NotoSansMedefaidrin-Bold.ufo
<glyph name="M-medf" format="2">
  <advance width="1216"/>
  <unicode hex="16E40"/>
  <outline>
    <contour>
      <point x="793" y="-121" type="line"/>
      <point x="812" y="-11"/>
      <point x="837" y="103"/>
      <point x="866" y="213" type="curve"/>
      <point x="832" y="212" type="line"/>
      <point x="845" y="151"/>
      <point x="887" y="116"/>
      <point x="963" y="116" type="curve" smooth="yes"/>
      <point x="1104" y="116"/>
      <point x="1191" y="237"/>
      <point x="1191" y="388" type="curve" smooth="yes"/>
      <point x="1191" y="592"/>
      <point x="1034" y="724"/>
      <point x="820" y="724" type="curve" smooth="yes"/>
      <point x="672" y="724"/>
      <point x="570" y="664"/>
      <point x="525" y="554" type="curve"/>
      <point x="554" y="554" type="line"/>
      <point x="544" y="583"/>
      <point x="514" y="600"/>
      <point x="466" y="617" type="curve" smooth="yes"/>
      <point x="411" y="636"/>
      <point x="357" y="655"/>
      <point x="323" y="717" type="curve"/>
      <point x="200" y="709" type="line"/>
      <point x="223" y="481"/>
      <point x="242" y="235"/>
      <point x="234" y="3" type="curve"/>
      <point x="347" y="-5" type="line"/>
      <point x="349" y="20"/>
      <point x="361" y="41"/>
      <point x="386" y="41" type="curve" smooth="yes"/>
      <point x="426" y="41"/>
      <point x="437" y="-11"/>
      <point x="503" y="-11" type="curve" smooth="yes"/>
      <point x="530" y="-11"/>
      <point x="559" y="0"/>
      <point x="580" y="16" type="curve"/>
      <point x="529" y="106" type="line"/>
      <point x="516" y="98"/>
      <point x="507" y="95"/>
      <point x="496" y="95" type="curve" smooth="yes"/>
      <point x="452" y="95"/>
      <point x="441" y="145"/>
      <point x="391" y="145" type="curve" smooth="yes"/>
      <point x="356" y="145"/>
      <point x="335" y="122"/>
      <point x="335" y="82" type="curve"/>
      <point x="350" y="82" type="line"/>
      <point x="355" y="252"/>
      <point x="339" y="478"/>
      <point x="317" y="658" type="curve"/>
      <point x="292" y="631" type="line"/>
      <point x="305" y="563"/>
      <point x="355" y="542"/>
      <point x="426" y="517" type="curve" smooth="yes"/>
      <point x="477" y="499"/>
      <point x="505" y="480"/>
      <point x="513" y="444" type="curve" smooth="yes"/>
      <point x="530" y="369"/>
      <point x="595" y="313"/>
      <point x="693" y="313" type="curve" smooth="yes"/>
      <point x="784" y="313"/>
      <point x="857" y="372"/>
      <point x="857" y="461" type="curve" smooth="yes"/>
      <point x="857" y="490"/>
      <point x="849" y="515"/>
      <point x="836" y="537" type="curve"/>
      <point x="734" y="500" type="line"/>
      <point x="741" y="484"/>
      <point x="744" y="472"/>
      <point x="744" y="460" type="curve" smooth="yes"/>
      <point x="744" y="426"/>
      <point x="718" y="405"/>
      <point x="685" y="405" type="curve" smooth="yes"/>
      <point x="650" y="405"/>
      <point x="623" y="431"/>
      <point x="623" y="482" type="curve" smooth="yes"/>
      <point x="623" y="579"/>
      <point x="719" y="616"/>
      <point x="819" y="616" type="curve" smooth="yes"/>
      <point x="946" y="616"/>
      <point x="1061" y="544"/>
      <point x="1061" y="387" type="curve" smooth="yes"/>
      <point x="1061" y="276"/>
      <point x="996" y="224"/>
      <point x="939" y="224" type="curve" smooth="yes"/>
      <point x="895" y="224"/>
      <point x="872" y="248"/>
      <point x="866" y="292" type="curve"/>
      <point x="785" y="292" type="line"/>
      <point x="763" y="181"/>
      <point x="740" y="69"/>
      <point x="726" y="-44" type="curve"/>
      <point x="750" y="11" type="line"/>
      <point x="722" y="229"/>
      <point x="557" y="323"/>
      <point x="373" y="323" type="curve" smooth="yes"/>
      <point x="324" y="323"/>
      <point x="291" y="317"/>
      <point x="249" y="317" type="curve" smooth="yes"/>
      <point x="149" y="317"/>
      <point x="117" y="346"/>
      <point x="117" y="399" type="curve" smooth="yes"/>
      <point x="117" y="436"/>
      <point x="141" y="461"/>
      <point x="174" y="475" type="curve"/>
      <point x="133" y="579" type="line"/>
      <point x="42" y="549"/>
      <point x="0" y="479"/>
      <point x="0" y="399" type="curve" smooth="yes"/>
      <point x="0" y="291"/>
      <point x="78" y="216"/>
      <point x="248" y="216" type="curve" smooth="yes"/>
      <point x="292" y="216"/>
      <point x="323" y="221"/>
      <point x="373" y="221" type="curve" smooth="yes"/>
      <point x="547" y="221"/>
      <point x="642" y="155"/>
      <point x="687" y="-121" type="curve"/>
    </contour>
  </outline>
</glyph>
<glyph name="S-medf" format="2">
	<unicode hex="16E41"/>
	<advance width="858"/>
	<outline>
		<contour>
			<point x="652" y="-11" type="curve" smooth="yes"/>
			<point x="745" y="-11"/>
			<point x="833" y="36"/>
			<point x="833" y="153" type="curve" smooth="yes"/>
			<point x="833" y="292"/>
			<point x="723" y="360"/>
			<point x="507" y="465" type="curve" smooth="yes"/>
			<point x="359" y="537"/>
			<point x="248" y="609"/>
			<point x="181" y="720" type="curve"/>
			<point x="60" y="712" type="line"/>
			<point x="81" y="483"/>
			<point x="101" y="251"/>
			<point x="93" y="3" type="curve"/>
			<point x="214" y="-5" type="line"/>
			<point x="216" y="20"/>
			<point x="229" y="41"/>
			<point x="252" y="41" type="curve" smooth="yes"/>
			<point x="292" y="41"/>
			<point x="303" y="-11"/>
			<point x="368" y="-11" type="curve" smooth="yes"/>
			<point x="415" y="-11"/>
			<point x="447" y="16"/>
			<point x="467" y="35" type="curve"/>
			<point x="403" y="134" type="line"/>
			<point x="392" y="124"/>
			<point x="382" y="115"/>
			<point x="363" y="115" type="curve" smooth="yes"/>
			<point x="319" y="115"/>
			<point x="310" y="167"/>
			<point x="260" y="167" type="curve" smooth="yes"/>
			<point x="225" y="167"/>
			<point x="201" y="142"/>
			<point x="201" y="102" type="curve"/>
			<point x="214" y="102" type="line"/>
			<point x="220" y="255"/>
			<point x="199" y="522"/>
			<point x="175" y="663" type="curve"/>
			<point x="155" y="614" type="line"/>
			<point x="203" y="502"/>
			<point x="313" y="425"/>
			<point x="448" y="361" type="curve" smooth="yes"/>
			<point x="637" y="272"/>
			<point x="706" y="226"/>
			<point x="706" y="155" type="curve" smooth="yes"/>
			<point x="706" y="123"/>
			<point x="688" y="100"/>
			<point x="652" y="100" type="curve" smooth="yes"/>
			<point x="621" y="100"/>
			<point x="605" y="118"/>
			<point x="605" y="141" type="curve" smooth="yes"/>
			<point x="605" y="147"/>
			<point x="606" y="153"/>
			<point x="609" y="159" type="curve"/>
			<point x="501" y="198" type="line"/>
			<point x="491" y="175"/>
			<point x="487" y="152"/>
			<point x="487" y="131" type="curve" smooth="yes"/>
			<point x="487" y="52"/>
			<point x="545" y="-11"/>
		</contour>
	</outline>
</glyph>
<glyph name="V-medf" format="2">
  <advance width="833"/>
  <unicode hex="16E42"/>
  <outline>
    <contour>
      <point x="271" y="-11" type="curve" smooth="yes"/>
      <point x="555" y="-11"/>
      <point x="818" y="238"/>
      <point x="818" y="507" type="curve" smooth="yes"/>
      <point x="818" y="645"/>
      <point x="747" y="724"/>
      <point x="623" y="724" type="curve" smooth="yes"/>
      <point x="517" y="724"/>
      <point x="444" y="663"/>
      <point x="444" y="574" type="curve" smooth="yes"/>
      <point x="444" y="546"/>
      <point x="452" y="518"/>
      <point x="468" y="489" type="curve"/>
      <point x="572" y="530" type="line"/>
      <point x="567" y="539"/>
      <point x="564" y="549"/>
      <point x="564" y="560" type="curve" smooth="yes"/>
      <point x="564" y="593"/>
      <point x="587" y="615"/>
      <point x="622" y="615" type="curve" smooth="yes"/>
      <point x="667" y="615"/>
      <point x="689" y="582"/>
      <point x="689" y="515" type="curve" smooth="yes"/>
      <point x="689" y="299"/>
      <point x="491" y="100"/>
      <point x="273" y="98" type="curve"/>
      <point x="326" y="44" type="line"/>
      <point x="352" y="220"/>
      <point x="377" y="506"/>
      <point x="384" y="713" type="curve"/>
      <point x="260" y="713" type="line"/>
      <point x="176" y="591"/>
      <point x="92" y="486"/>
      <point x="0" y="391" type="curve"/>
      <point x="24" y="293" type="line"/>
      <point x="164" y="321"/>
      <point x="259" y="332"/>
      <point x="374" y="332" type="curve" smooth="yes"/>
      <point x="418" y="332"/>
      <point x="454" y="330"/>
      <point x="491" y="327" type="curve"/>
      <point x="473" y="368" type="line"/>
      <point x="442" y="326"/>
      <point x="419" y="301"/>
      <point x="389" y="277" type="curve"/>
      <point x="450" y="206" type="line"/>
      <point x="497" y="250"/>
      <point x="530" y="287"/>
      <point x="557" y="329" type="curve"/>
      <point x="532" y="424" type="line"/>
      <point x="494" y="427"/>
      <point x="444" y="429"/>
      <point x="389" y="429" type="curve" smooth="yes"/>
      <point x="253" y="429"/>
      <point x="156" y="419"/>
      <point x="95" y="397" type="curve"/>
      <point x="107" y="375" type="line"/>
      <point x="179" y="448"/>
      <point x="255" y="546"/>
      <point x="295" y="616" type="curve"/>
      <point x="267" y="633" type="line"/>
      <point x="260" y="460"/>
      <point x="232" y="173"/>
      <point x="206" y="-1" type="curve"/>
      <point x="230" y="-9"/>
      <point x="243" y="-11"/>
    </contour>
  </outline>
</glyph>
<glyph name="W-medf" format="2">
	<unicode hex="16E43"/>
	<advance width="951"/>
	<outline>
		<contour>
			<point x="240" y="-11" type="curve" smooth="yes"/>
			<point x="407" y="-11"/>
			<point x="498" y="76"/>
			<point x="579" y="326" type="curve" smooth="yes"/>
			<point x="620" y="452" type="line" smooth="yes"/>
			<point x="659" y="573"/>
			<point x="681" y="605"/>
			<point x="719" y="605" type="curve"/>
			<point x="719" y="713" type="line"/>
			<point x="343" y="713" type="line" smooth="yes"/>
			<point x="173" y="713"/>
			<point x="15" y="638"/>
			<point x="15" y="476" type="curve" smooth="yes"/>
			<point x="15" y="351"/>
			<point x="110" y="288"/>
			<point x="231" y="288" type="curve" smooth="yes"/>
			<point x="325" y="288"/>
			<point x="401" y="326"/>
			<point x="401" y="397" type="curve" smooth="yes"/>
			<point x="401" y="426"/>
			<point x="389" y="443"/>
			<point x="355" y="456" type="curve"/>
			<point x="363" y="435" type="line"/>
			<point x="513" y="405"/>
			<point x="626" y="285"/>
			<point x="772" y="285" type="curve" smooth="yes"/>
			<point x="873" y="285"/>
			<point x="936" y="343"/>
			<point x="936" y="431" type="curve" smooth="yes"/>
			<point x="936" y="522"/>
			<point x="869" y="566"/>
			<point x="793" y="566" type="curve" smooth="yes"/>
			<point x="758" y="566"/>
			<point x="727" y="557"/>
			<point x="708" y="544" type="curve"/>
			<point x="742" y="460" type="line"/>
			<point x="752" y="464"/>
			<point x="762" y="467"/>
			<point x="775" y="467" type="curve" smooth="yes"/>
			<point x="803" y="467"/>
			<point x="818" y="451"/>
			<point x="818" y="428" type="curve" smooth="yes"/>
			<point x="818" y="404"/>
			<point x="802" y="385"/>
			<point x="764" y="385" type="curve" smooth="yes"/>
			<point x="654" y="385"/>
			<point x="497" y="543"/>
			<point x="255" y="543" type="curve"/>
			<point x="255" y="461" type="line"/>
			<point x="279" y="458"/>
			<point x="296" y="449"/>
			<point x="296" y="427" type="curve" smooth="yes"/>
			<point x="296" y="406"/>
			<point x="279" y="386"/>
			<point x="236" y="386" type="curve" smooth="yes"/>
			<point x="186" y="386"/>
			<point x="143" y="414"/>
			<point x="143" y="478" type="curve" smooth="yes"/>
			<point x="143" y="572"/>
			<point x="237" y="605"/>
			<point x="343" y="605" type="curve" smooth="yes"/>
			<point x="608" y="605" type="line"/>
			<point x="611" y="624" type="line"/>
			<point x="564" y="621"/>
			<point x="537" y="587"/>
			<point x="499" y="471" type="curve" smooth="yes"/>
			<point x="463" y="361" type="line" smooth="yes"/>
			<point x="392" y="145"/>
			<point x="335" y="79"/>
			<point x="243" y="79" type="curve" smooth="yes"/>
			<point x="198" y="79"/>
			<point x="184" y="100"/>
			<point x="184" y="119" type="curve" smooth="yes"/>
			<point x="184" y="140"/>
			<point x="201" y="160"/>
			<point x="239" y="160" type="curve" smooth="yes"/>
			<point x="350" y="160"/>
			<point x="428" y="-11"/>
			<point x="629" y="-11" type="curve" smooth="yes"/>
			<point x="759" y="-11"/>
			<point x="829" y="61"/>
			<point x="829" y="151" type="curve" smooth="yes"/>
			<point x="829" y="191"/>
			<point x="815" y="226"/>
			<point x="802" y="245" type="curve"/>
			<point x="687" y="204" type="line"/>
			<point x="695" y="190"/>
			<point x="701" y="170"/>
			<point x="701" y="154" type="curve" smooth="yes"/>
			<point x="701" y="122"/>
			<point x="676" y="94"/>
			<point x="617" y="94" type="curve" smooth="yes"/>
			<point x="479" y="94"/>
			<point x="390" y="250"/>
			<point x="227" y="250" type="curve" smooth="yes"/>
			<point x="132" y="250"/>
			<point x="67" y="197"/>
			<point x="67" y="119" type="curve" smooth="yes"/>
			<point x="67" y="49"/>
			<point x="118" y="-11"/>
		</contour>
	</outline>
	<guideline y="588"/>
</glyph>
<glyph name="Atiu-medf" format="2">
	<unicode hex="16E44"/>
	<advance width="889"/>
	<outline>
		<contour>
			<point x="604" y="-11" type="curve" smooth="yes"/>
			<point x="747" y="-11"/>
			<point x="874" y="42"/>
			<point x="874" y="221" type="curve" smooth="yes"/>
			<point x="874" y="352"/>
			<point x="787" y="436"/>
			<point x="668" y="436" type="curve" smooth="yes"/>
			<point x="577" y="436"/>
			<point x="511" y="377"/>
			<point x="505" y="298" type="curve"/>
			<point x="561" y="298" type="line"/>
			<point x="539" y="402"/>
			<point x="467" y="433"/>
			<point x="257" y="433" type="curve" smooth="yes"/>
			<point x="156" y="433"/>
			<point x="64" y="417"/>
			<point x="10" y="395" type="curve"/>
			<point x="39" y="301" type="line"/>
			<point x="90" y="318"/>
			<point x="158" y="333"/>
			<point x="268" y="333" type="curve" smooth="yes"/>
			<point x="454" y="333"/>
			<point x="482" y="307"/>
			<point x="491" y="240" type="curve"/>
			<point x="578" y="243" type="line"/>
			<point x="581" y="290"/>
			<point x="604" y="331"/>
			<point x="653" y="331" type="curve" smooth="yes"/>
			<point x="707" y="331"/>
			<point x="747" y="296"/>
			<point x="747" y="221" type="curve" smooth="yes"/>
			<point x="747" y="135"/>
			<point x="682" y="94"/>
			<point x="603" y="94" type="curve" smooth="yes"/>
			<point x="488" y="94"/>
			<point x="406" y="141"/>
			<point x="295" y="141" type="curve" smooth="yes"/>
			<point x="243" y="141"/>
			<point x="197" y="131"/>
			<point x="138" y="97" type="curve"/>
			<point x="196" y="69" type="line"/>
			<point x="199" y="157"/>
			<point x="204" y="260"/>
			<point x="218" y="356" type="curve"/>
			<point x="213" y="389" type="line"/>
			<point x="229" y="486"/>
			<point x="255" y="572"/>
			<point x="295" y="622" type="curve"/>
			<point x="285" y="639" type="line"/>
			<point x="276" y="611"/>
			<point x="270" y="572"/>
			<point x="270" y="542" type="curve" smooth="yes"/>
			<point x="270" y="485"/>
			<point x="277" y="431"/>
			<point x="289" y="381" type="curve"/>
			<point x="290" y="356" type="line"/>
			<point x="301" y="292"/>
			<point x="313" y="250"/>
			<point x="331" y="206" type="curve"/>
			<point x="425" y="238" type="line"/>
			<point x="390" y="319"/>
			<point x="353" y="475"/>
			<point x="353" y="547" type="curve" smooth="yes"/>
			<point x="353" y="601"/>
			<point x="368" y="628"/>
			<point x="400" y="628" type="curve" smooth="yes"/>
			<point x="426" y="628"/>
			<point x="439" y="612"/>
			<point x="446" y="584" type="curve"/>
			<point x="557" y="614" type="line"/>
			<point x="532" y="695"/>
			<point x="477" y="724"/>
			<point x="394" y="724" type="curve" smooth="yes"/>
			<point x="144" y="724"/>
			<point x="102" y="379"/>
			<point x="73" y="76" type="curve"/>
			<point x="143" y="-6" type="line"/>
			<point x="189" y="20"/>
			<point x="230" y="36"/>
			<point x="295" y="36" type="curve" smooth="yes"/>
			<point x="400" y="36"/>
			<point x="455" y="-11"/>
		</contour>
	</outline>
</glyph>
<glyph name="Z-medf" format="2">
  <advance width="741"/>
  <unicode hex="16E45"/>
  <outline>
    <contour>
      <point x="229" y="-11" type="curve" smooth="yes"/>
      <point x="382" y="-11"/>
      <point x="536" y="52"/>
      <point x="603" y="326" type="curve" smooth="yes"/>
      <point x="634" y="454" type="line" smooth="yes"/>
      <point x="664" y="578"/>
      <point x="698" y="605"/>
      <point x="736" y="605" type="curve"/>
      <point x="736" y="713" type="line"/>
      <point x="317" y="713" type="line" smooth="yes"/>
      <point x="184" y="713"/>
      <point x="85" y="657"/>
      <point x="85" y="539" type="curve" smooth="yes"/>
      <point x="85" y="432"/>
      <point x="161" y="381"/>
      <point x="248" y="381" type="curve" smooth="yes"/>
      <point x="281" y="381"/>
      <point x="306" y="387"/>
      <point x="325" y="395" type="curve"/>
      <point x="293" y="496" type="line"/>
      <point x="281" y="493"/>
      <point x="272" y="491"/>
      <point x="261" y="491" type="curve" smooth="yes"/>
      <point x="228" y="491"/>
      <point x="208" y="510"/>
      <point x="208" y="539" type="curve" smooth="yes"/>
      <point x="208" y="580"/>
      <point x="243" y="595"/>
      <point x="317" y="595" type="curve" smooth="yes"/>
      <point x="625" y="595" type="line"/>
      <point x="617" y="622" type="line"/>
      <point x="570" y="619"/>
      <point x="525" y="591"/>
      <point x="496" y="467" type="curve" smooth="yes"/>
      <point x="470" y="355" type="line" smooth="yes"/>
      <point x="424" y="155"/>
      <point x="322" y="97"/>
      <point x="229" y="97" type="curve" smooth="yes"/>
      <point x="159" y="97"/>
      <point x="130" y="118"/>
      <point x="130" y="154" type="curve" smooth="yes"/>
      <point x="130" y="181"/>
      <point x="150" y="200"/>
      <point x="178" y="200" type="curve" smooth="yes"/>
      <point x="202" y="200"/>
      <point x="219" y="188"/>
      <point x="223" y="167" type="curve"/>
      <point x="334" y="184" type="line"/>
      <point x="321" y="260"/>
      <point x="261" y="297"/>
      <point x="178" y="297" type="curve" smooth="yes"/>
      <point x="82" y="297"/>
      <point x="15" y="234"/>
      <point x="15" y="149" type="curve" smooth="yes"/>
      <point x="15" y="61"/>
      <point x="76" y="-11"/>
    </contour>
    <contour>
      <point x="446" y="515" type="line"/>
      <point x="451" y="612"/>
      <point x="466" y="745"/>
      <point x="479" y="846" type="curve"/>
      <point x="370" y="846" type="line"/>
      <point x="357" y="743"/>
      <point x="342" y="613"/>
      <point x="337" y="515" type="curve"/>
    </contour>
  </outline>
</glyph>
<glyph name="KP-medf" format="2">
  <advance width="767"/>
  <unicode hex="16E46"/>
  <outline>
    <contour>
      <point x="411" y="416" type="line"/>
      <point x="416" y="559"/>
      <point x="433" y="726"/>
      <point x="447" y="846" type="curve"/>
      <point x="337" y="846" type="line"/>
      <point x="322" y="730"/>
      <point x="312" y="557"/>
      <point x="310" y="416" type="curve"/>
    </contour>
    <contour>
      <point x="412" y="-10" type="line"/>
      <point x="492" y="196"/>
      <point x="644" y="435"/>
      <point x="762" y="597" type="curve"/>
      <point x="752" y="714" type="line"/>
      <point x="620" y="721"/>
      <point x="489" y="725"/>
      <point x="356" y="725" type="curve" smooth="yes"/>
      <point x="243" y="725"/>
      <point x="129" y="722"/>
      <point x="13" y="717" type="curve"/>
      <point x="5" y="600" type="line"/>
      <point x="81" y="479"/>
      <point x="212" y="190"/>
      <point x="251" y="0" type="curve"/>
    </contour>
    <contour>
      <point x="357" y="43" type="line"/>
      <point x="325" y="229"/>
      <point x="217" y="480"/>
      <point x="123" y="653" type="curve"/>
      <point x="60" y="607" type="line"/>
      <point x="148" y="612"/>
      <point x="267" y="614"/>
      <point x="355" y="614" type="curve" smooth="yes"/>
      <point x="461" y="614"/>
      <point x="537" y="611"/>
      <point x="638" y="604" type="curve"/>
      <point x="640" y="639" type="line"/>
      <point x="546" y="518"/>
      <point x="369" y="216"/>
      <point x="319" y="52" type="curve"/>
    </contour>
  </outline>
</glyph>
<glyph name="P-medf" format="2">
  <advance width="935"/>
  <unicode hex="16E47"/>
  <outline>
    <contour>
      <point x="530" y="-11" type="curve" smooth="yes"/>
      <point x="707" y="-11"/>
      <point x="800" y="76"/>
      <point x="800" y="239" type="curve" smooth="yes"/>
      <point x="800" y="322"/>
      <point x="780" y="381"/>
      <point x="780" y="448" type="curve" smooth="yes"/>
      <point x="780" y="546"/>
      <point x="834" y="606"/>
      <point x="930" y="614" type="curve"/>
      <point x="930" y="724" type="line"/>
      <point x="895" y="724" type="line" smooth="yes"/>
      <point x="693" y="724"/>
      <point x="602" y="688"/>
      <point x="508" y="569" type="curve" smooth="yes"/>
      <point x="485" y="540" type="line" smooth="yes"/>
      <point x="385" y="413"/>
      <point x="362" y="396"/>
      <point x="296" y="396" type="curve" smooth="yes"/>
      <point x="244" y="396"/>
      <point x="216" y="415"/>
      <point x="200" y="464" type="curve"/>
      <point x="77" y="458" type="line"/>
      <point x="65" y="354"/>
      <point x="56" y="201"/>
      <point x="50" y="-2" type="curve"/>
      <point x="180" y="-4" type="line"/>
      <point x="186" y="199"/>
      <point x="192" y="319"/>
      <point x="199" y="375" type="curve"/>
      <point x="177" y="375" type="line"/>
      <point x="184" y="321"/>
      <point x="235" y="283"/>
      <point x="301" y="283" type="curve" smooth="yes"/>
      <point x="400" y="283"/>
      <point x="458" y="323"/>
      <point x="575" y="470" type="curve" smooth="yes"/>
      <point x="598" y="499" type="line" smooth="yes"/>
      <point x="681" y="604"/>
      <point x="729" y="624"/>
      <point x="895" y="624" type="curve"/>
      <point x="863" y="655" type="line"/>
      <point x="709" y="628"/>
      <point x="652" y="568"/>
      <point x="652" y="433" type="curve" smooth="yes"/>
      <point x="652" y="363"/>
      <point x="670" y="321"/>
      <point x="670" y="241" type="curve" smooth="yes"/>
      <point x="670" y="157"/>
      <point x="615" y="101"/>
      <point x="530" y="101" type="curve" smooth="yes"/>
      <point x="466" y="101"/>
      <point x="435" y="124"/>
      <point x="435" y="171" type="curve" smooth="yes"/>
      <point x="435" y="179"/>
      <point x="435" y="184"/>
      <point x="436" y="187" type="curve"/>
      <point x="302" y="208" type="line"/>
      <point x="298" y="190"/>
      <point x="295" y="173"/>
      <point x="295" y="159" type="curve" smooth="yes"/>
      <point x="295" y="55"/>
      <point x="386" y="-11"/>
    </contour>
  </outline>
</glyph>
<glyph name="T-medf" format="2">
  <advance width="721"/>
  <unicode hex="16E48"/>
  <guideline y="-408"/>
  <outline>
    <contour>
      <point x="284" y="-265" type="line"/>
      <point x="406" y="20"/>
      <point x="615" y="430"/>
      <point x="716" y="592" type="curve"/>
      <point x="698" y="709" type="line"/>
      <point x="563" y="716"/>
      <point x="415" y="720"/>
      <point x="279" y="720" type="curve" smooth="yes"/>
      <point x="178" y="720"/>
      <point x="86" y="718"/>
      <point x="7" y="713" type="curve"/>
      <point x="7" y="594" type="line"/>
      <point x="90" y="600"/>
      <point x="197" y="602"/>
      <point x="306" y="602" type="curve" smooth="yes"/>
      <point x="432" y="602"/>
      <point x="560" y="599"/>
      <point x="653" y="596" type="curve"/>
      <point x="595" y="634" type="line"/>
      <point x="516" y="513"/>
      <point x="274" y="13"/>
      <point x="201" y="-203" type="curve"/>
      <point x="234" y="-212" type="line"/>
      <point x="231" y="-26"/>
      <point x="216" y="204"/>
      <point x="206" y="338" type="curve"/>
      <point x="122" y="298" type="line"/>
      <point x="171" y="305"/>
      <point x="238" y="308"/>
      <point x="306" y="308" type="curve" smooth="yes"/>
      <point x="384" y="308"/>
      <point x="463" y="304"/>
      <point x="522" y="300" type="curve"/>
      <point x="521" y="408" type="line"/>
      <point x="466" y="411"/>
      <point x="388" y="413"/>
      <point x="310" y="413" type="curve" smooth="yes"/>
      <point x="223" y="413"/>
      <point x="135" y="411"/>
      <point x="77" y="405" type="curve"/>
      <point x="100" y="169"/>
      <point x="120" y="-63"/>
      <point x="133" y="-252" type="curve"/>
    </contour>
  </outline>
</glyph>
<glyph name="G-medf" format="2">
  <advance width="949"/>
  <unicode hex="16E49"/>
  <outline>
    <contour>
      <point x="865" y="-265" type="curve"/>
      <point x="883" y="-171"/>
      <point x="899" y="-19"/>
      <point x="899" y="77" type="curve" smooth="yes"/>
      <point x="899" y="468"/>
      <point x="701" y="595"/>
      <point x="537" y="595" type="curve" smooth="yes"/>
      <point x="413" y="595"/>
      <point x="356" y="519"/>
      <point x="356" y="454" type="curve" smooth="yes"/>
      <point x="356" y="414"/>
      <point x="379" y="375"/>
      <point x="416" y="340" type="curve"/>
      <point x="505" y="410" type="line"/>
      <point x="495" y="420"/>
      <point x="486" y="430"/>
      <point x="486" y="443" type="curve" smooth="yes"/>
      <point x="486" y="461"/>
      <point x="499" y="475"/>
      <point x="533" y="475" type="curve" smooth="yes"/>
      <point x="642" y="475"/>
      <point x="765" y="376"/>
      <point x="765" y="77" type="curve" smooth="yes"/>
      <point x="765" y="0"/>
      <point x="754" y="-150"/>
      <point x="740" y="-205" type="curve"/>
      <point x="836" y="-134" type="line"/>
      <point x="744" y="-121"/>
      <point x="666" y="-117"/>
      <point x="586" y="-117" type="curve" smooth="yes"/>
      <point x="566" y="-117"/>
      <point x="546" y="-118"/>
      <point x="525" y="-118" type="curve"/>
      <point x="595" y="-211" type="line"/>
      <point x="595" y="-162" type="line" smooth="yes"/>
      <point x="595" y="125"/>
      <point x="515" y="240"/>
      <point x="312" y="345" type="curve" smooth="yes"/>
      <point x="287" y="358" type="line" smooth="yes"/>
      <point x="184" y="411"/>
      <point x="149" y="451"/>
      <point x="149" y="511" type="curve" smooth="yes"/>
      <point x="149" y="568"/>
      <point x="192" y="603"/>
      <point x="246" y="603" type="curve" smooth="yes"/>
      <point x="293" y="603"/>
      <point x="319" y="592"/>
      <point x="348" y="577" type="curve"/>
      <point x="405" y="685" type="line"/>
      <point x="366" y="706"/>
      <point x="312" y="724"/>
      <point x="242" y="724" type="curve" smooth="yes"/>
      <point x="109" y="724"/>
      <point x="0" y="646"/>
      <point x="0" y="510" type="curve" smooth="yes"/>
      <point x="0" y="408"/>
      <point x="52" y="326"/>
      <point x="222" y="241" type="curve" smooth="yes"/>
      <point x="248" y="228" type="line" smooth="yes"/>
      <point x="407" y="148"/>
      <point x="466" y="69"/>
      <point x="466" y="-164" type="curve" smooth="yes"/>
      <point x="466" y="-252" type="line"/>
      <point x="500" y="-249"/>
      <point x="540" y="-248"/>
      <point x="582" y="-248" type="curve" smooth="yes"/>
      <point x="684" y="-248"/>
      <point x="797" y="-255"/>
    </contour>
  </outline>
</glyph>
<glyph name="F-medf" format="2">
  <advance width="697"/>
  <unicode hex="16E4A"/>
  <outline>
    <contour>
      <point x="327" y="-11" type="curve" smooth="yes"/>
      <point x="525" y="-11"/>
      <point x="657" y="70"/>
      <point x="657" y="213" type="curve" smooth="yes"/>
      <point x="657" y="349"/>
      <point x="535" y="393"/>
      <point x="375" y="409" type="curve" smooth="yes"/>
      <point x="365" y="410" type="line" smooth="yes"/>
      <point x="234" y="423"/>
      <point x="198" y="455"/>
      <point x="198" y="506" type="curve" smooth="yes"/>
      <point x="198" y="578"/>
      <point x="268" y="614"/>
      <point x="380" y="614" type="curve" smooth="yes"/>
      <point x="480" y="614"/>
      <point x="530" y="586"/>
      <point x="525" y="535" type="curve"/>
      <point x="655" y="526" type="line"/>
      <point x="668" y="656"/>
      <point x="559" y="724"/>
      <point x="382" y="724" type="curve" smooth="yes"/>
      <point x="202" y="724"/>
      <point x="70" y="646"/>
      <point x="70" y="503" type="curve" smooth="yes"/>
      <point x="70" y="371"/>
      <point x="181" y="329"/>
      <point x="360" y="311" type="curve" smooth="yes"/>
      <point x="370" y="310" type="line" smooth="yes"/>
      <point x="474" y="300"/>
      <point x="529" y="277"/>
      <point x="529" y="215" type="curve" smooth="yes"/>
      <point x="529" y="131"/>
      <point x="429" y="99"/>
      <point x="334" y="99" type="curve" smooth="yes"/>
      <point x="225" y="99"/>
      <point x="166" y="140"/>
      <point x="137" y="206" type="curve"/>
      <point x="20" y="161" type="line"/>
      <point x="53" y="52"/>
      <point x="152" y="-11"/>
    </contour>
    <contour>
      <point x="337" y="197" type="line"/>
      <point x="339" y="234"/>
      <point x="340" y="308"/>
      <point x="340" y="345" type="curve" smooth="yes"/>
      <point x="340" y="408"/>
      <point x="340" y="446"/>
      <point x="337" y="509" type="curve"/>
      <point x="273" y="509" type="line"/>
      <point x="276" y="446"/>
      <point x="276" y="408"/>
      <point x="276" y="345" type="curve" smooth="yes"/>
      <point x="276" y="308"/>
      <point x="275" y="234"/>
      <point x="273" y="197" type="curve"/>
    </contour>
    <contour>
      <point x="450" y="201" type="line"/>
      <point x="452" y="238"/>
      <point x="453" y="303"/>
      <point x="453" y="340" type="curve" smooth="yes"/>
      <point x="453" y="403"/>
      <point x="453" y="437"/>
      <point x="450" y="500" type="curve"/>
      <point x="386" y="500" type="line"/>
      <point x="389" y="437"/>
      <point x="389" y="403"/>
      <point x="389" y="340" type="curve" smooth="yes"/>
      <point x="389" y="303"/>
      <point x="388" y="238"/>
      <point x="386" y="201" type="curve"/>
    </contour>
  </outline>
</glyph>
<glyph name="I-medf" format="2">
	<unicode hex="16E4B"/>
	<advance width="596"/>
	<outline>
		<contour>
			<point x="351" y="524" type="line"/>
			<point x="353" y="581"/>
			<point x="354" y="643"/>
			<point x="354" y="705" type="curve" smooth="yes"/>
			<point x="354" y="754"/>
			<point x="353" y="803"/>
			<point x="351" y="846" type="curve"/>
			<point x="251" y="846" type="line"/>
			<point x="253" y="803"/>
			<point x="254" y="754"/>
			<point x="254" y="705" type="curve" smooth="yes"/>
			<point x="254" y="643"/>
			<point x="253" y="580"/>
			<point x="251" y="524" type="curve"/>
		</contour>
		<contour>
			<point x="277" y="-11" type="curve" smooth="yes"/>
			<point x="405" y="-11"/>
			<point x="489" y="54"/>
			<point x="489" y="153" type="curve" smooth="yes"/>
			<point x="489" y="237"/>
			<point x="446" y="285"/>
			<point x="288" y="373" type="curve" smooth="yes"/>
			<point x="263" y="387" type="line" smooth="yes"/>
			<point x="176" y="435"/>
			<point x="145" y="469"/>
			<point x="145" y="518" type="curve" smooth="yes"/>
			<point x="145" y="581"/>
			<point x="214" y="624"/>
			<point x="316" y="624" type="curve" smooth="yes"/>
			<point x="401" y="624"/>
			<point x="447" y="601"/>
			<point x="447" y="558" type="curve" smooth="yes"/>
			<point x="447" y="537"/>
			<point x="435" y="513"/>
			<point x="412" y="488" type="curve"/>
			<point x="501" y="414" type="line"/>
			<point x="548" y="458"/>
			<point x="576" y="512"/>
			<point x="576" y="560" type="curve" smooth="yes"/>
			<point x="576" y="661"/>
			<point x="478" y="724"/>
			<point x="319" y="724" type="curve" smooth="yes"/>
			<point x="139" y="724"/>
			<point x="20" y="640"/>
			<point x="20" y="514" type="curve" smooth="yes"/>
			<point x="20" y="425"/>
			<point x="66" y="369"/>
			<point x="196" y="299" type="curve" smooth="yes"/>
			<point x="220" y="286" type="line" smooth="yes"/>
			<point x="338" y="222"/>
			<point x="364" y="199"/>
			<point x="364" y="156" type="curve" smooth="yes"/>
			<point x="364" y="116"/>
			<point x="329" y="90"/>
			<point x="276" y="90" type="curve" smooth="yes"/>
			<point x="231" y="90"/>
			<point x="198" y="113"/>
			<point x="198" y="143" type="curve" smooth="yes"/>
			<point x="198" y="153"/>
			<point x="201" y="164"/>
			<point x="206" y="176" type="curve"/>
			<point x="95" y="218" type="line"/>
			<point x="80" y="191"/>
			<point x="73" y="163"/>
			<point x="73" y="135" type="curve" smooth="yes"/>
			<point x="73" y="46"/>
			<point x="153" y="-11"/>
		</contour>
	</outline>
</glyph>
<glyph name="K-medf" format="2">
  <advance width="863"/>
  <unicode hex="16E4C"/>
  <outline>
    <contour>
      <point x="493" y="611" type="curve" smooth="yes"/>
      <point x="586" y="611"/>
      <point x="682" y="594"/>
      <point x="745" y="569" type="curve"/>
      <point x="776" y="602" type="line"/>
      <point x="671" y="602"/>
      <point x="647" y="554"/>
      <point x="598" y="403" type="curve" smooth="yes"/>
      <point x="586" y="366" type="line" smooth="yes"/>
      <point x="546" y="242"/>
      <point x="520" y="208"/>
      <point x="459" y="135" type="curve"/>
      <point x="428" y="112"/>
      <point x="415" y="91"/>
      <point x="403" y="71" type="curve"/>
      <point x="459" y="107"/>
      <point x="506" y="175"/>
      <point x="506" y="242" type="curve" smooth="yes"/>
      <point x="506" y="364"/>
      <point x="397" y="427"/>
      <point x="284" y="427" type="curve" smooth="yes"/>
      <point x="204" y="427"/>
      <point x="130" y="386"/>
      <point x="120" y="311" type="curve"/>
      <point x="154" y="339" type="line"/>
      <point x="168" y="536"/>
      <point x="309" y="611"/>
    </contour>
    <contour>
      <point x="267" y="92" type="curve" smooth="yes"/>
      <point x="200" y="92"/>
      <point x="161" y="120"/>
      <point x="151" y="164" type="curve"/>
      <point x="25" y="157" type="line"/>
      <point x="25" y="71"/>
      <point x="105" y="-11"/>
      <point x="274" y="-11" type="curve" smooth="yes"/>
      <point x="478" y="-11"/>
      <point x="629" y="87"/>
      <point x="708" y="329" type="curve" smooth="yes"/>
      <point x="720" y="366" type="line" smooth="yes"/>
      <point x="767" y="510"/>
      <point x="791" y="546"/>
      <point x="838" y="546" type="curve"/>
      <point x="858" y="666" type="line"/>
      <point x="751" y="701"/>
      <point x="625" y="724"/>
      <point x="492" y="724" type="curve" smooth="yes"/>
      <point x="222" y="724"/>
      <point x="29" y="598"/>
      <point x="29" y="277" type="curve"/>
      <point x="151" y="264" type="line"/>
      <point x="167" y="300"/>
      <point x="210" y="322"/>
      <point x="259" y="322" type="curve" smooth="yes"/>
      <point x="348" y="322"/>
      <point x="389" y="265"/>
      <point x="389" y="207" type="curve" smooth="yes"/>
      <point x="389" y="146"/>
      <point x="349" y="92"/>
    </contour>
  </outline>
</glyph>
<glyph name="A-medf" format="2">
  <advance width="928"/>
  <unicode hex="16E4D"/>
  <outline>
    <contour>
      <point x="185" y="-11" type="curve" smooth="yes"/>
      <point x="321" y="-11"/>
      <point x="390" y="67"/>
      <point x="390" y="216" type="curve" smooth="yes"/>
      <point x="390" y="445"/>
      <point x="264" y="634"/>
      <point x="74" y="725" type="curve"/>
      <point x="13" y="625" type="line"/>
      <point x="189" y="525"/>
      <point x="265" y="381"/>
      <point x="265" y="216" type="curve" smooth="yes"/>
      <point x="265" y="130"/>
      <point x="225" y="104"/>
      <point x="185" y="104" type="curve" smooth="yes"/>
      <point x="158" y="104"/>
      <point x="140" y="114"/>
      <point x="127" y="127" type="curve"/>
      <point x="44" y="42" type="line"/>
      <point x="70" y="11"/>
      <point x="125" y="-11"/>
    </contour>
    <contour>
      <point x="510" y="-11" type="curve" smooth="yes"/>
      <point x="651" y="-11"/>
      <point x="710" y="69"/>
      <point x="755" y="242" type="curve" smooth="yes"/>
      <point x="785" y="358" type="line" smooth="yes"/>
      <point x="823" y="506"/>
      <point x="880" y="602"/>
      <point x="923" y="636" type="curve"/>
      <point x="848" y="725" type="line"/>
      <point x="767" y="678"/>
      <point x="704" y="657"/>
      <point x="601" y="657" type="curve" smooth="yes"/>
      <point x="546" y="657"/>
      <point x="518" y="673"/>
      <point x="515" y="718" type="curve"/>
      <point x="404" y="724" type="line"/>
      <point x="320" y="584"/>
      <point x="211" y="515"/>
      <point x="10" y="501" type="curve"/>
      <point x="10" y="380" type="line"/>
      <point x="253" y="388"/>
      <point x="434" y="518"/>
      <point x="501" y="656" type="curve"/>
      <point x="456" y="622" type="line"/>
      <point x="456" y="572"/>
      <point x="510" y="540"/>
      <point x="599" y="540" type="curve" smooth="yes"/>
      <point x="691" y="540"/>
      <point x="755" y="564"/>
      <point x="814" y="598" type="curve"/>
      <point x="789" y="621" type="line"/>
      <point x="735" y="602"/>
      <point x="691" y="528"/>
      <point x="657" y="395" type="curve" smooth="yes"/>
      <point x="627" y="279" type="line" smooth="yes"/>
      <point x="597" y="161"/>
      <point x="565" y="104"/>
      <point x="514" y="104" type="curve" smooth="yes"/>
      <point x="494" y="104"/>
      <point x="478" y="111"/>
      <point x="465" y="121" type="curve"/>
      <point x="392" y="28" type="line"/>
      <point x="419" y="4"/>
      <point x="459" y="-11"/>
    </contour>
  </outline>
</glyph>
<glyph name="J-medf" format="2">
  <advance width="737"/>
  <unicode hex="16E4E"/>
  <outline>
    <contour>
      <point x="186" y="-11" type="curve" smooth="yes"/>
      <point x="288" y="-11"/>
      <point x="349" y="32"/>
      <point x="422" y="32" type="curve" smooth="yes"/>
      <point x="464" y="32"/>
      <point x="512" y="16"/>
      <point x="549" y="-11" type="curve"/>
      <point x="638" y="52" type="line"/>
      <point x="592" y="192"/>
      <point x="547" y="378"/>
      <point x="547" y="563" type="curve" smooth="yes"/>
      <point x="547" y="613"/>
      <point x="551" y="661"/>
      <point x="558" y="710" type="curve"/>
      <point x="452" y="725" type="line"/>
      <point x="413" y="586"/>
      <point x="339" y="489"/>
      <point x="201" y="392" type="curve"/>
      <point x="219" y="306" type="line"/>
      <point x="293" y="288"/>
      <point x="442" y="235"/>
      <point x="502" y="193" type="curve"/>
      <point x="524" y="293" type="line"/>
      <point x="478" y="322"/>
      <point x="361" y="370"/>
      <point x="302" y="384" type="curve"/>
      <point x="285" y="336" type="line"/>
      <point x="396" y="403"/>
      <point x="475" y="510"/>
      <point x="522" y="661" type="curve"/>
      <point x="464" y="656" type="line"/>
      <point x="409" y="486"/>
      <point x="466" y="202"/>
      <point x="522" y="33" type="curve"/>
      <point x="556" y="70" type="line"/>
      <point x="528" y="107"/>
      <point x="483" y="137"/>
      <point x="411" y="137" type="curve" smooth="yes"/>
      <point x="325" y="137"/>
      <point x="275" y="94"/>
      <point x="188" y="94" type="curve" smooth="yes"/>
      <point x="145" y="94"/>
      <point x="127" y="111"/>
      <point x="127" y="136" type="curve" smooth="yes"/>
      <point x="127" y="163"/>
      <point x="150" y="177"/>
      <point x="173" y="177" type="curve" smooth="yes"/>
      <point x="186" y="177"/>
      <point x="200" y="174"/>
      <point x="212" y="168" type="curve"/>
      <point x="241" y="251" type="line"/>
      <point x="221" y="262"/>
      <point x="193" y="271"/>
      <point x="159" y="271" type="curve" smooth="yes"/>
      <point x="84" y="271"/>
      <point x="15" y="221"/>
      <point x="15" y="136" type="curve" smooth="yes"/>
      <point x="15" y="46"/>
      <point x="80" y="-11"/>
    </contour>
    <contour>
      <point x="737" y="451" type="line"/>
      <point x="625" y="526"/>
      <point x="430" y="622"/>
      <point x="270" y="680" type="curve"/>
      <point x="227" y="589" type="line"/>
      <point x="376" y="535"/>
      <point x="574" y="432"/>
      <point x="681" y="362" type="curve"/>
    </contour>
  </outline>
</glyph>
<glyph name="E-medf" format="2">
	<unicode hex="16E4F"/>
	<advance width="749"/>
	<outline>
		<contour>
			<point x="423" y="-11" type="curve" smooth="yes"/>
			<point x="623" y="-11"/>
			<point x="718" y="66"/>
			<point x="718" y="186" type="curve" smooth="yes"/>
			<point x="718" y="270"/>
			<point x="669" y="316"/>
			<point x="607" y="336" type="curve"/>
			<point x="549" y="234" type="line"/>
			<point x="576" y="222"/>
			<point x="592" y="208"/>
			<point x="592" y="183" type="curve" smooth="yes"/>
			<point x="592" y="145"/>
			<point x="556" y="99"/>
			<point x="431" y="99" type="curve" smooth="yes"/>
			<point x="288" y="99"/>
			<point x="245" y="159"/>
			<point x="245" y="241" type="curve" smooth="yes"/>
			<point x="245" y="310"/>
			<point x="276" y="369"/>
			<point x="276" y="443" type="curve" smooth="yes"/>
			<point x="276" y="536"/>
			<point x="226" y="597"/>
			<point x="165" y="621" type="curve"/>
			<point x="158" y="613" type="line"/>
			<point x="209" y="579"/>
			<point x="245" y="569"/>
			<point x="292" y="569" type="curve" smooth="yes"/>
			<point x="385" y="569"/>
			<point x="433" y="608"/>
			<point x="501" y="608" type="curve" smooth="yes"/>
			<point x="556" y="608"/>
			<point x="581" y="583"/>
			<point x="584" y="533" type="curve"/>
			<point x="724" y="533" type="line"/>
			<point x="724" y="660"/>
			<point x="655" y="724"/>
			<point x="526" y="724" type="curve" smooth="yes"/>
			<point x="413" y="724"/>
			<point x="349" y="675"/>
			<point x="247" y="675" type="curve" smooth="yes"/>
			<point x="197" y="675"/>
			<point x="160" y="687"/>
			<point x="119" y="724" type="curve"/>
			<point x="34" y="623" type="line"/>
			<point x="108" y="574"/>
			<point x="146" y="518"/>
			<point x="146" y="440" type="curve" smooth="yes"/>
			<point x="146" y="369"/>
			<point x="115" y="314"/>
			<point x="115" y="229" type="curve" smooth="yes"/>
			<point x="115" y="107"/>
			<point x="179" y="-11"/>
		</contour>
		<contour>
			<point x="461" y="268" type="line"/>
			<point x="461" y="319"/>
			<point x="469" y="361"/>
			<point x="509" y="398" type="curve"/>
			<point x="443" y="467" type="line"/>
			<point x="396" y="433"/>
			<point x="370" y="371"/>
			<point x="386" y="310" type="curve"/>
			<point x="400" y="351" type="line"/>
			<point x="370" y="415"/>
			<point x="287" y="432"/>
			<point x="146" y="432" type="curve" smooth="yes"/>
			<point x="98" y="432"/>
			<point x="49" y="427"/>
			<point x="5" y="415" type="curve"/>
			<point x="24" y="319" type="line"/>
			<point x="60" y="327"/>
			<point x="103" y="331"/>
			<point x="153" y="331" type="curve" smooth="yes"/>
			<point x="270" y="331"/>
			<point x="352" y="324"/>
			<point x="377" y="261" type="curve"/>
		</contour>
	</outline>
</glyph>
<glyph name="B-medf" format="2">
  <advance width="850"/>
  <unicode hex="16E50"/>
  <outline>
    <contour>
      <point x="570" y="-11" type="curve" smooth="yes"/>
      <point x="703" y="-11"/>
      <point x="776" y="52"/>
      <point x="776" y="190" type="curve" smooth="yes"/>
      <point x="776" y="282"/>
      <point x="748" y="329"/>
      <point x="748" y="395" type="curve" smooth="yes"/>
      <point x="748" y="469"/>
      <point x="785" y="515"/>
      <point x="825" y="541" type="curve"/>
      <point x="756" y="632" type="line"/>
      <point x="727" y="610"/>
      <point x="689" y="593"/>
      <point x="636" y="593" type="curve" smooth="yes"/>
      <point x="586" y="593"/>
      <point x="556" y="606"/>
      <point x="540" y="630" type="curve"/>
      <point x="442" y="626" type="line"/>
      <point x="397" y="522"/>
      <point x="294" y="484"/>
      <point x="204" y="484" type="curve" smooth="yes"/>
      <point x="169" y="484"/>
      <point x="136" y="489"/>
      <point x="107" y="496" type="curve"/>
      <point x="35" y="433" type="line"/>
      <point x="82" y="327"/>
      <point x="145" y="101"/>
      <point x="159" y="4" type="curve"/>
      <point x="250" y="-6" type="line"/>
      <point x="355" y="176"/>
      <point x="389" y="356"/>
      <point x="389" y="465" type="curve" smooth="yes"/>
      <point x="389" y="654"/>
      <point x="303" y="724"/>
      <point x="184" y="724" type="curve" smooth="yes"/>
      <point x="90" y="724"/>
      <point x="29" y="675"/>
      <point x="0" y="613" type="curve"/>
      <point x="91" y="568" type="line"/>
      <point x="115" y="616"/>
      <point x="150" y="634"/>
      <point x="184" y="634" type="curve" smooth="yes"/>
      <point x="242" y="634"/>
      <point x="280" y="582"/>
      <point x="280" y="462" type="curve" smooth="yes"/>
      <point x="280" y="366"/>
      <point x="253" y="232"/>
      <point x="202" y="111" type="curve"/>
      <point x="230" y="96" type="line"/>
      <point x="223" y="179"/>
      <point x="177" y="364"/>
      <point x="135" y="442" type="curve"/>
      <point x="111" y="405" type="line"/>
      <point x="132" y="397"/>
      <point x="172" y="389"/>
      <point x="221" y="389" type="curve" smooth="yes"/>
      <point x="332" y="389"/>
      <point x="486" y="424"/>
      <point x="542" y="581" type="curve"/>
      <point x="474" y="535" type="line"/>
      <point x="493" y="506"/>
      <point x="544" y="485"/>
      <point x="600" y="485" type="curve" smooth="yes"/>
      <point x="643" y="485"/>
      <point x="679" y="499"/>
      <point x="718" y="542" type="curve"/>
      <point x="718" y="561" type="line"/>
      <point x="645" y="525"/>
      <point x="621" y="462"/>
      <point x="621" y="395" type="curve" smooth="yes"/>
      <point x="621" y="322"/>
      <point x="646" y="255"/>
      <point x="646" y="190" type="curve" smooth="yes"/>
      <point x="646" y="121"/>
      <point x="603" y="99"/>
      <point x="570" y="99" type="curve" smooth="yes"/>
      <point x="533" y="99"/>
      <point x="501" y="115"/>
      <point x="483" y="150" type="curve"/>
      <point x="377" y="98" type="line"/>
      <point x="405" y="33"/>
      <point x="465" y="-11"/>
    </contour>
  </outline>
</glyph>
<glyph name="C-medf" format="2">
  <advance width="632"/>
  <unicode hex="16E51"/>
  <outline>
    <contour>
      <point x="298" y="-11" type="curve" smooth="yes"/>
      <point x="465" y="-11"/>
      <point x="558" y="70"/>
      <point x="558" y="168" type="curve" smooth="yes"/>
      <point x="558" y="267"/>
      <point x="481" y="318"/>
      <point x="392" y="318" type="curve" smooth="yes"/>
      <point x="336" y="318"/>
      <point x="301" y="299"/>
      <point x="287" y="272" type="curve"/>
      <point x="339" y="273" type="line"/>
      <point x="392" y="393"/>
      <point x="450" y="522"/>
      <point x="524" y="670" type="curve"/>
      <point x="408" y="725" type="line"/>
      <point x="285" y="632"/>
      <point x="121" y="503"/>
      <point x="13" y="405" type="curve"/>
      <point x="49" y="314" type="line"/>
      <point x="154" y="336"/>
      <point x="294" y="347"/>
      <point x="408" y="347" type="curve" smooth="yes"/>
      <point x="492" y="347"/>
      <point x="555" y="344"/>
      <point x="612" y="339" type="curve"/>
      <point x="612" y="435" type="line"/>
      <point x="549" y="441"/>
      <point x="476" y="443"/>
      <point x="407" y="443" type="curve" smooth="yes"/>
      <point x="281" y="443"/>
      <point x="159" y="427"/>
      <point x="91" y="404" type="curve"/>
      <point x="93" y="365" type="line"/>
      <point x="178" y="442"/>
      <point x="334" y="562"/>
      <point x="438" y="640" type="curve"/>
      <point x="413" y="672" type="line"/>
      <point x="341" y="533"/>
      <point x="276" y="404"/>
      <point x="210" y="257" type="curve"/>
      <point x="278" y="213" type="line"/>
      <point x="295" y="226"/>
      <point x="318" y="233"/>
      <point x="345" y="233" type="curve" smooth="yes"/>
      <point x="393" y="233"/>
      <point x="423" y="212"/>
      <point x="423" y="175" type="curve" smooth="yes"/>
      <point x="423" y="128"/>
      <point x="369" y="99"/>
      <point x="296" y="99" type="curve" smooth="yes"/>
      <point x="209" y="99"/>
      <point x="158" y="128"/>
      <point x="134" y="176" type="curve"/>
      <point x="10" y="141" type="line"/>
      <point x="35" y="49"/>
      <point x="137" y="-11"/>
    </contour>
  </outline>
</glyph>
<glyph name="U-medf" format="2">
	<unicode hex="16E52"/>
	<advance width="915"/>
	<outline>
		<contour>
			<point x="245" y="-11" type="curve" smooth="yes"/>
			<point x="426" y="-11"/>
			<point x="507" y="103"/>
			<point x="529" y="370" type="curve" smooth="yes"/>
			<point x="541" y="512"/>
			<point x="586" y="601"/>
			<point x="678" y="601" type="curve" smooth="yes"/>
			<point x="732" y="601"/>
			<point x="768" y="576"/>
			<point x="768" y="523" type="curve" smooth="yes"/>
			<point x="768" y="505"/>
			<point x="761" y="484"/>
			<point x="753" y="472" type="curve"/>
			<point x="874" y="412" type="line"/>
			<point x="895" y="441"/>
			<point x="910" y="483"/>
			<point x="910" y="528" type="curve" smooth="yes"/>
			<point x="910" y="660"/>
			<point x="812" y="724"/>
			<point x="703" y="724" type="curve" smooth="yes"/>
			<point x="569" y="724"/>
			<point x="471" y="637"/>
			<point x="456" y="505" type="curve"/>
			<point x="487" y="508" type="line"/>
			<point x="468" y="636"/>
			<point x="400" y="724"/>
			<point x="258" y="724" type="curve" smooth="yes"/>
			<point x="128" y="724"/>
			<point x="42" y="640"/>
			<point x="42" y="536" type="curve" smooth="yes"/>
			<point x="42" y="520"/>
			<point x="44" y="503"/>
			<point x="49" y="486" type="curve"/>
			<point x="185" y="519" type="line"/>
			<point x="184" y="524"/>
			<point x="184" y="529"/>
			<point x="184" y="534" type="curve" smooth="yes"/>
			<point x="184" y="573"/>
			<point x="216" y="603"/>
			<point x="264" y="603" type="curve" smooth="yes"/>
			<point x="351" y="603"/>
			<point x="393" y="525"/>
			<point x="393" y="375" type="curve" smooth="yes"/>
			<point x="393" y="204"/>
			<point x="354" y="112"/>
			<point x="255" y="112" type="curve" smooth="yes"/>
			<point x="196" y="112"/>
			<point x="167" y="142"/>
			<point x="167" y="188" type="curve" smooth="yes"/>
			<point x="167" y="193"/>
			<point x="167" y="198"/>
			<point x="168" y="203" type="curve"/>
			<point x="32" y="235" type="line"/>
			<point x="27" y="216"/>
			<point x="25" y="197"/>
			<point x="25" y="179" type="curve" smooth="yes"/>
			<point x="25" y="63"/>
			<point x="109" y="-11"/>
		</contour>
		<contour>
			<point x="319" y="218" type="curve" smooth="yes"/>
			<point x="364" y="218"/>
			<point x="397" y="237"/>
			<point x="420" y="257" type="curve"/>
			<point x="394" y="318" type="line"/>
			<point x="379" y="306"/>
			<point x="356" y="299"/>
			<point x="331" y="299" type="curve" smooth="yes"/>
			<point x="286" y="299"/>
			<point x="264" y="322"/>
			<point x="264" y="352" type="curve" smooth="yes"/>
			<point x="264" y="382"/>
			<point x="286" y="405"/>
			<point x="329" y="405" type="curve" smooth="yes"/>
			<point x="358" y="405"/>
			<point x="383" y="396"/>
			<point x="397" y="382" type="curve"/>
			<point x="422" y="447" type="line"/>
			<point x="399" y="468"/>
			<point x="366" y="486"/>
			<point x="314" y="486" type="curve" smooth="yes"/>
			<point x="223" y="486"/>
			<point x="169" y="426"/>
			<point x="169" y="352" type="curve" smooth="yes"/>
			<point x="169" y="278"/>
			<point x="223" y="218"/>
		</contour>
	</outline>
</glyph>
<glyph name="YU-medf" format="2">
  <advance width="981"/>
  <unicode hex="16E53"/>
  <outline>
    <contour>
      <point x="242" y="-11" type="curve" smooth="yes"/>
      <point x="404" y="-11"/>
      <point x="484" y="80"/>
      <point x="511" y="209" type="curve"/>
      <point x="465" y="207" type="line"/>
      <point x="490" y="71"/>
      <point x="568" y="-11"/>
      <point x="725" y="-11" type="curve" smooth="yes"/>
      <point x="860" y="-11"/>
      <point x="939" y="79"/>
      <point x="939" y="183" type="curve" smooth="yes"/>
      <point x="939" y="219"/>
      <point x="928" y="257"/>
      <point x="904" y="293" type="curve"/>
      <point x="783" y="235" type="line"/>
      <point x="793" y="219"/>
      <point x="798" y="202"/>
      <point x="798" y="186" type="curve" smooth="yes"/>
      <point x="798" y="145"/>
      <point x="771" y="101"/>
      <point x="708" y="101" type="curve" smooth="yes"/>
      <point x="608" y="101"/>
      <point x="554" y="189"/>
      <point x="554" y="329" type="curve" smooth="yes"/>
      <point x="554" y="492"/>
      <point x="615" y="609"/>
      <point x="724" y="609" type="curve" smooth="yes"/>
      <point x="786" y="609"/>
      <point x="820" y="576"/>
      <point x="820" y="524" type="curve" smooth="yes"/>
      <point x="820" y="516"/>
      <point x="819" y="506"/>
      <point x="817" y="500" type="curve"/>
      <point x="945" y="469" type="line"/>
      <point x="953" y="489"/>
      <point x="956" y="512"/>
      <point x="956" y="533" type="curve" smooth="yes"/>
      <point x="956" y="661"/>
      <point x="854" y="724"/>
      <point x="731" y="724" type="curve" smooth="yes"/>
      <point x="581" y="724"/>
      <point x="499" y="629"/>
      <point x="474" y="514" type="curve"/>
      <point x="513" y="514" type="line"/>
      <point x="491" y="630"/>
      <point x="421" y="724"/>
      <point x="273" y="724" type="curve" smooth="yes"/>
      <point x="133" y="724"/>
      <point x="42" y="634"/>
      <point x="42" y="530" type="curve" smooth="yes"/>
      <point x="42" y="494"/>
      <point x="51" y="459"/>
      <point x="75" y="423" type="curve"/>
      <point x="198" y="482" type="line"/>
      <point x="189" y="498"/>
      <point x="184" y="517"/>
      <point x="184" y="533" type="curve" smooth="yes"/>
      <point x="184" y="580"/>
      <point x="222" y="614"/>
      <point x="279" y="614" type="curve" smooth="yes"/>
      <point x="372" y="614"/>
      <point x="427" y="525"/>
      <point x="427" y="376" type="curve" smooth="yes"/>
      <point x="427" y="217"/>
      <point x="374" y="100"/>
      <point x="260" y="100" type="curve" smooth="yes"/>
      <point x="192" y="100"/>
      <point x="159" y="131"/>
      <point x="159" y="185" type="curve" smooth="yes"/>
      <point x="159" y="193"/>
      <point x="160" y="206"/>
      <point x="162" y="212" type="curve"/>
      <point x="36" y="241" type="line"/>
      <point x="28" y="221"/>
      <point x="25" y="205"/>
      <point x="25" y="184" type="curve" smooth="yes"/>
      <point x="25" y="56"/>
      <point x="127" y="-11"/>
    </contour>
    <contour>
      <point x="282" y="395" type="line"/>
      <point x="339" y="398"/>
      <point x="439" y="398"/>
      <point x="495" y="398" type="curve" smooth="yes"/>
      <point x="529" y="398"/>
      <point x="688" y="397"/>
      <point x="721" y="395" type="curve"/>
      <point x="717" y="471" type="line"/>
      <point x="684" y="473"/>
      <point x="525" y="474"/>
      <point x="492" y="474" type="curve" smooth="yes"/>
      <point x="436" y="474"/>
      <point x="335" y="474"/>
      <point x="278" y="471" type="curve"/>
    </contour>
    <contour>
      <point x="282" y="266" type="line"/>
      <point x="339" y="269"/>
      <point x="439" y="269"/>
      <point x="495" y="269" type="curve" smooth="yes"/>
      <point x="529" y="269"/>
      <point x="688" y="268"/>
      <point x="721" y="266" type="curve"/>
      <point x="717" y="342" type="line"/>
      <point x="684" y="344"/>
      <point x="525" y="345"/>
      <point x="492" y="345" type="curve" smooth="yes"/>
      <point x="436" y="345"/>
      <point x="335" y="345"/>
      <point x="278" y="342" type="curve"/>
    </contour>
  </outline>
</glyph>
<glyph name="L-medf" format="2">
  <advance width="834"/>
  <unicode hex="16E54"/>
  <outline>
    <contour>
      <point x="609" y="-11" type="curve" smooth="yes"/>
      <point x="739" y="-11"/>
      <point x="819" y="49"/>
      <point x="819" y="148" type="curve" smooth="yes"/>
      <point x="819" y="189"/>
      <point x="807" y="224"/>
      <point x="783" y="256" type="curve"/>
      <point x="677" y="201" type="line"/>
      <point x="688" y="187"/>
      <point x="693" y="172"/>
      <point x="693" y="156" type="curve" smooth="yes"/>
      <point x="693" y="121"/>
      <point x="660" y="98"/>
      <point x="609" y="98" type="curve" smooth="yes"/>
      <point x="484" y="98"/>
      <point x="418" y="147"/>
      <point x="297" y="147" type="curve" smooth="yes"/>
      <point x="221" y="147"/>
      <point x="164" y="118"/>
      <point x="138" y="65" type="curve"/>
      <point x="165" y="33" type="line"/>
      <point x="205" y="154"/>
      <point x="263" y="463"/>
      <point x="281" y="658" type="curve"/>
      <point x="263" y="654" type="line"/>
      <point x="302" y="527"/>
      <point x="335" y="340"/>
      <point x="335" y="250" type="curve"/>
      <point x="353" y="321" type="line"/>
      <point x="292" y="304"/>
      <point x="210" y="277"/>
      <point x="154" y="257" type="curve"/>
      <point x="164" y="163" type="line"/>
      <point x="223" y="184"/>
      <point x="372" y="229"/>
      <point x="440" y="247" type="curve"/>
      <point x="440" y="357"/>
      <point x="382" y="589"/>
      <point x="321" y="718" type="curve"/>
      <point x="205" y="712" type="line"/>
      <point x="159" y="447"/>
      <point x="99" y="187"/>
      <point x="51" y="39" type="curve"/>
      <point x="141" y="-9" type="line"/>
      <point x="166" y="25"/>
      <point x="215" y="43"/>
      <point x="278" y="43" type="curve" smooth="yes"/>
      <point x="396" y="43"/>
      <point x="470" y="-11"/>
    </contour>
    <contour>
      <point x="602" y="399" type="line"/>
      <point x="532" y="419"/>
      <point x="421" y="450"/>
      <point x="368" y="463" type="curve"/>
      <point x="342" y="458" type="line"/>
      <point x="226" y="488" type="line"/>
      <point x="210" y="503" type="line"/>
      <point x="144" y="521"/>
      <point x="83" y="535"/>
      <point x="32" y="544" type="curve"/>
      <point x="10" y="445" type="line"/>
      <point x="65" y="434"/>
      <point x="128" y="418"/>
      <point x="189" y="401" type="curve"/>
      <point x="219" y="407" type="line"/>
      <point x="356" y="372" type="line"/>
      <point x="366" y="357" type="line"/>
      <point x="425" y="342"/>
      <point x="528" y="313"/>
      <point x="568" y="300" type="curve"/>
    </contour>
  </outline>
</glyph>
<glyph name="H-medf" format="2">
	<unicode hex="16E56"/>
	<advance width="627"/>
	<outline>
		<contour>
			<point x="240" y="-265" type="curve" smooth="yes"/>
			<point x="468" y="-265"/>
			<point x="513" y="-132"/>
			<point x="531" y="77" type="curve" smooth="yes"/>
			<point x="537" y="149"/>
			<point x="545" y="230"/>
			<point x="572" y="317" type="curve"/>
			<point x="450" y="337" type="line"/>
			<point x="418" y="274"/>
			<point x="367" y="258"/>
			<point x="280" y="258" type="curve" smooth="yes"/>
			<point x="198" y="258"/>
			<point x="178" y="245"/>
			<point x="155" y="223" type="curve"/>
			<point x="180" y="199" type="line"/>
			<point x="229" y="276"/>
			<point x="242" y="348"/>
			<point x="251" y="477" type="curve" smooth="yes"/>
			<point x="258" y="580"/>
			<point x="301" y="604"/>
			<point x="343" y="604" type="curve" smooth="yes"/>
			<point x="374" y="604"/>
			<point x="397" y="593"/>
			<point x="416" y="580" type="curve"/>
			<point x="484" y="674" type="line"/>
			<point x="452" y="703"/>
			<point x="399" y="724"/>
			<point x="343" y="724" type="curve" smooth="yes"/>
			<point x="197" y="724"/>
			<point x="121" y="640"/>
			<point x="110" y="497" type="curve" smooth="yes"/>
			<point x="100" y="368"/>
			<point x="86" y="286"/>
			<point x="55" y="199" type="curve"/>
			<point x="133" y="115" type="line"/>
			<point x="170" y="135"/>
			<point x="201" y="137"/>
			<point x="265" y="137" type="curve" smooth="yes"/>
			<point x="377" y="137"/>
			<point x="436" y="139"/>
			<point x="467" y="249" type="curve"/>
			<point x="417" y="192" type="line"/>
			<point x="400" y="153"/>
			<point x="392" y="105"/>
			<point x="387" y="51" type="curve" smooth="yes"/>
			<point x="378" y="-47"/>
			<point x="355" y="-145"/>
			<point x="241" y="-145" type="curve" smooth="yes"/>
			<point x="203" y="-145"/>
			<point x="169" y="-132"/>
			<point x="147" y="-110" type="curve"/>
			<point x="66" y="-197" type="line"/>
			<point x="100" y="-242"/>
			<point x="159" y="-265"/>
		</contour>
	</outline>
</glyph>
<glyph name="NG-medf" format="2">
	<unicode hex="16E57"/>
	<advance width="709"/>
	<outline>
		<contour>
			<point x="292" y="-11" type="curve" smooth="yes"/>
			<point x="539" y="-11"/>
			<point x="659" y="167"/>
			<point x="659" y="367" type="curve" smooth="yes"/>
			<point x="659" y="581"/>
			<point x="510" y="724"/>
			<point x="287" y="724" type="curve" smooth="yes"/>
			<point x="237" y="724"/>
			<point x="195" y="720"/>
			<point x="161" y="714" type="curve"/>
			<point x="107" y="654" type="line"/>
			<point x="107" y="580"/>
			<point x="95" y="499"/>
			<point x="78" y="431" type="curve"/>
			<point x="123" y="357" type="line"/>
			<point x="192" y="328"/>
			<point x="244" y="302"/>
			<point x="306" y="267" type="curve"/>
			<point x="353" y="359" type="line"/>
			<point x="285" y="398"/>
			<point x="216" y="429"/>
			<point x="154" y="451" type="curve"/>
			<point x="195" y="395" type="line"/>
			<point x="217" y="462"/>
			<point x="232" y="592"/>
			<point x="232" y="654" type="curve"/>
			<point x="142" y="587" type="line"/>
			<point x="166" y="603"/>
			<point x="213" y="612"/>
			<point x="267" y="612" type="curve" smooth="yes"/>
			<point x="401" y="612"/>
			<point x="510" y="530"/>
			<point x="510" y="375" type="curve" smooth="yes"/>
			<point x="510" y="221"/>
			<point x="423" y="112"/>
			<point x="290" y="112" type="curve" smooth="yes"/>
			<point x="216" y="112"/>
			<point x="166" y="151"/>
			<point x="147" y="211" type="curve"/>
			<point x="15" y="164" type="line"/>
			<point x="37" y="53"/>
			<point x="157" y="-11"/>
		</contour>
		<contour>
			<point x="398" y="499" type="line"/>
			<point x="329" y="539"/>
			<point x="249" y="568"/>
			<point x="188" y="584" type="curve"/>
			<point x="149" y="503" type="line"/>
			<point x="222" y="478"/>
			<point x="294" y="452"/>
			<point x="356" y="416" type="curve"/>
		</contour>
	</outline>
</glyph>
<glyph name="X-medf" format="2">
  <advance width="1058"/>
  <unicode hex="16E58"/>
  <outline>
    <contour>
      <point x="762" y="-11" type="curve" smooth="yes"/>
      <point x="923" y="-11"/>
      <point x="1023" y="97"/>
      <point x="1023" y="269" type="curve" smooth="yes"/>
      <point x="1023" y="553"/>
      <point x="794" y="724"/>
      <point x="414" y="724" type="curve" smooth="yes"/>
      <point x="309" y="724"/>
      <point x="162" y="708"/>
      <point x="65" y="687" type="curve"/>
      <point x="90" y="461"/>
      <point x="91" y="237"/>
      <point x="66" y="-1" type="curve"/>
      <point x="111" y="0"/>
      <point x="160" y="1"/>
      <point x="205" y="1" type="curve" smooth="yes"/>
      <point x="294" y="1"/>
      <point x="388" y="-1"/>
      <point x="458" y="-5" type="curve"/>
      <point x="462" y="59"/>
      <point x="463" y="177"/>
      <point x="459" y="232" type="curve"/>
      <point x="341" y="232" type="line"/>
      <point x="345" y="185"/>
      <point x="345" y="128"/>
      <point x="342" y="82" type="curve"/>
      <point x="414" y="100" type="line"/>
      <point x="359" y="106"/>
      <point x="277" y="109"/>
      <point x="196" y="109" type="curve" smooth="yes"/>
      <point x="158" y="109"/>
      <point x="139" y="109"/>
      <point x="122" y="108" type="curve"/>
      <point x="194" y="80" type="line"/>
      <point x="217" y="273"/>
      <point x="215" y="491"/>
      <point x="190" y="670" type="curve"/>
      <point x="140" y="580" type="line"/>
      <point x="197" y="598"/>
      <point x="310" y="611"/>
      <point x="414" y="611" type="curve" smooth="yes"/>
      <point x="723" y="611"/>
      <point x="878" y="496"/>
      <point x="878" y="268" type="curve" smooth="yes"/>
      <point x="878" y="165"/>
      <point x="835" y="104"/>
      <point x="762" y="104" type="curve" smooth="yes"/>
      <point x="710" y="104"/>
      <point x="680" y="128"/>
      <point x="680" y="168" type="curve" smooth="yes"/>
      <point x="680" y="178"/>
      <point x="681" y="188"/>
      <point x="685" y="201" type="curve"/>
      <point x="560" y="230" type="line"/>
      <point x="550" y="205"/>
      <point x="545" y="177"/>
      <point x="545" y="150" type="curve" smooth="yes"/>
      <point x="545" y="50"/>
      <point x="627" y="-11"/>
    </contour>
    <contour>
      <point x="566" y="404" type="line"/>
      <point x="570" y="533"/>
      <point x="570" y="759"/>
      <point x="566" y="846" type="curve"/>
      <point x="445" y="846" type="line"/>
      <point x="449" y="758"/>
      <point x="449" y="532"/>
      <point x="445" y="404" type="curve"/>
    </contour>
  </outline>
</glyph>
<glyph name="D-medf" format="2">
	<unicode hex="16E59"/>
	<advance width="858"/>
	<outline>
		<contour>
			<point x="355" y="-5" type="line"/>
			<point x="370" y="226"/>
			<point x="380" y="323"/>
			<point x="424" y="495" type="curve"/>
			<point x="311" y="511" type="line"/>
			<point x="285" y="364"/>
			<point x="269" y="230"/>
			<point x="269" y="127" type="curve"/>
			<point x="300" y="251" type="line"/>
			<point x="273" y="398"/>
			<point x="224" y="525"/>
			<point x="116" y="611" type="curve"/>
			<point x="92" y="613" type="line"/>
			<point x="125" y="576"/>
			<point x="150" y="550"/>
			<point x="218" y="550" type="curve" smooth="yes"/>
			<point x="325" y="550"/>
			<point x="401" y="604"/>
			<point x="517" y="604" type="curve" smooth="yes"/>
			<point x="628" y="604"/>
			<point x="701" y="540"/>
			<point x="701" y="420" type="curve" smooth="yes"/>
			<point x="701" y="328"/>
			<point x="660" y="267"/>
			<point x="596" y="267" type="curve" smooth="yes"/>
			<point x="565" y="267"/>
			<point x="545" y="281"/>
			<point x="545" y="310" type="curve" smooth="yes"/>
			<point x="545" y="314"/>
			<point x="546" y="320"/>
			<point x="548" y="326" type="curve"/>
			<point x="438" y="370" type="line"/>
			<point x="426" y="348"/>
			<point x="420" y="323"/>
			<point x="420" y="301" type="curve" smooth="yes"/>
			<point x="420" y="210"/>
			<point x="489" y="158"/>
			<point x="596" y="158" type="curve" smooth="yes"/>
			<point x="767" y="158"/>
			<point x="843" y="283"/>
			<point x="843" y="420" type="curve" smooth="yes"/>
			<point x="843" y="606"/>
			<point x="711" y="724"/>
			<point x="530" y="724" type="curve" smooth="yes"/>
			<point x="402" y="724"/>
			<point x="303" y="660"/>
			<point x="208" y="660" type="curve" smooth="yes"/>
			<point x="154" y="660"/>
			<point x="127" y="678"/>
			<point x="100" y="705" type="curve"/>
			<point x="0" y="612" type="line"/>
			<point x="145" y="447"/>
			<point x="235" y="273"/>
			<point x="210" y="3" type="curve"/>
		</contour>
	</outline>
</glyph>
<glyph name="OE-medf" format="2">
	<unicode hex="16E5A"/>
	<advance width="868"/>
	<outline>
		<contour>
			<point x="339" y="354" type="line"/>
			<point x="403" y="363"/>
			<point x="469" y="367"/>
			<point x="551" y="372" type="curve"/>
			<point x="546" y="450" type="line"/>
			<point x="470" y="445"/>
			<point x="392" y="436"/>
			<point x="334" y="425" type="curve"/>
		</contour>
		<contour>
			<point x="393" y="-5" type="line"/>
			<point x="426" y="74"/>
			<point x="451" y="161"/>
			<point x="467" y="239" type="curve"/>
			<point x="425" y="239" type="line"/>
			<point x="453" y="174"/>
			<point x="468" y="110"/>
			<point x="487" y="2" type="curve"/>
			<point x="590" y="-5" type="line"/>
			<point x="764" y="170"/>
			<point x="838" y="313"/>
			<point x="838" y="451" type="curve" smooth="yes"/>
			<point x="838" y="615"/>
			<point x="733" y="724"/>
			<point x="566" y="724" type="curve" smooth="yes"/>
			<point x="481" y="724"/>
			<point x="427" y="696"/>
			<point x="389" y="646" type="curve"/>
			<point x="371" y="642" type="line"/>
			<point x="355" y="617"/>
			<point x="346" y="588"/>
			<point x="346" y="562" type="curve" smooth="yes"/>
			<point x="346" y="523"/>
			<point x="365" y="486"/>
			<point x="398" y="463" type="curve"/>
			<point x="490" y="524" type="line"/>
			<point x="478" y="537"/>
			<point x="475" y="549"/>
			<point x="475" y="558" type="curve" smooth="yes"/>
			<point x="475" y="587"/>
			<point x="506" y="610"/>
			<point x="560" y="610" type="curve" smooth="yes"/>
			<point x="648" y="610"/>
			<point x="706" y="549"/>
			<point x="706" y="440" type="curve" smooth="yes"/>
			<point x="706" y="321"/>
			<point x="638" y="212"/>
			<point x="550" y="112" type="curve"/>
			<point x="566" y="80" type="line"/>
			<point x="546" y="181"/>
			<point x="523" y="252"/>
			<point x="495" y="313" type="curve"/>
			<point x="389" y="290" type="line"/>
			<point x="379" y="227"/>
			<point x="365" y="173"/>
			<point x="345" y="110" type="curve"/>
			<point x="361" y="108" type="line"/>
			<point x="346" y="171"/>
			<point x="293" y="235"/>
			<point x="237" y="299" type="curve" smooth="yes"/>
			<point x="190" y="352"/>
			<point x="152" y="406"/>
			<point x="152" y="479" type="curve" smooth="yes"/>
			<point x="152" y="556"/>
			<point x="197" y="611"/>
			<point x="273" y="611" type="curve" smooth="yes"/>
			<point x="329" y="611"/>
			<point x="362" y="582"/>
			<point x="392" y="522" type="curve"/>
			<point x="454" y="635" type="line"/>
			<point x="419" y="686"/>
			<point x="353" y="724"/>
			<point x="265" y="724" type="curve" smooth="yes"/>
			<point x="126" y="724"/>
			<point x="20" y="630"/>
			<point x="20" y="477" type="curve" smooth="yes"/>
			<point x="20" y="360"/>
			<point x="82" y="294"/>
			<point x="147" y="225" type="curve" smooth="yes"/>
			<point x="204" y="165"/>
			<point x="263" y="104"/>
			<point x="287" y="2" type="curve"/>
		</contour>
	</outline>
	<guideline y="117"/>
</glyph>
<glyph name="N-medf" format="2">
	<unicode hex="16E5B"/>
	<advance width="707"/>
	<outline>
		<contour>
			<point x="287" y="-11" type="curve" smooth="yes"/>
			<point x="534" y="-11"/>
			<point x="657" y="167"/>
			<point x="657" y="367" type="curve" smooth="yes"/>
			<point x="657" y="581"/>
			<point x="517" y="724"/>
			<point x="316" y="724" type="curve" smooth="yes"/>
			<point x="164" y="724"/>
			<point x="57" y="637"/>
			<point x="57" y="511" type="curve" smooth="yes"/>
			<point x="57" y="473"/>
			<point x="67" y="438"/>
			<point x="96" y="406" type="curve"/>
			<point x="223" y="466" type="line"/>
			<point x="211" y="484"/>
			<point x="206" y="504"/>
			<point x="206" y="522" type="curve" smooth="yes"/>
			<point x="206" y="572"/>
			<point x="245" y="606"/>
			<point x="316" y="606" type="curve" smooth="yes"/>
			<point x="429" y="606"/>
			<point x="507" y="523"/>
			<point x="507" y="375" type="curve" smooth="yes"/>
			<point x="507" y="219"/>
			<point x="420" y="109"/>
			<point x="279" y="109" type="curve" smooth="yes"/>
			<point x="201" y="109"/>
			<point x="168" y="146"/>
			<point x="168" y="195" type="curve" smooth="yes"/>
			<point x="168" y="203"/>
			<point x="169" y="213"/>
			<point x="171" y="219" type="curve"/>
			<point x="36" y="245" type="line"/>
			<point x="28" y="225"/>
			<point x="25" y="205"/>
			<point x="25" y="184" type="curve" smooth="yes"/>
			<point x="25" y="56"/>
			<point x="136" y="-11"/>
		</contour>
	</outline>
</glyph>
<glyph name="R-medf" format="2">
  <advance width="738"/>
  <unicode hex="16E5C"/>
  <outline>
    <contour>
      <point x="359" y="-3" type="line"/>
      <point x="375" y="98"/>
      <point x="387" y="192"/>
      <point x="387" y="298" type="curve"/>
      <point x="334" y="274" type="line"/>
      <point x="377" y="265"/>
      <point x="419" y="261"/>
      <point x="459" y="261" type="curve" smooth="yes"/>
      <point x="514" y="261"/>
      <point x="564" y="269"/>
      <point x="600" y="284" type="curve"/>
      <point x="561" y="317" type="line"/>
      <point x="514" y="277"/>
      <point x="477" y="220"/>
      <point x="477" y="145" type="curve" smooth="yes"/>
      <point x="477" y="66"/>
      <point x="524" y="-11"/>
      <point x="700" y="-11" type="curve"/>
      <point x="708" y="99" type="line"/>
      <point x="641" y="99"/>
      <point x="602" y="124"/>
      <point x="602" y="162" type="curve" smooth="yes"/>
      <point x="602" y="212"/>
      <point x="628" y="264"/>
      <point x="666" y="308" type="curve"/>
      <point x="608" y="387" type="line"/>
      <point x="567" y="372"/>
      <point x="508" y="366"/>
      <point x="439" y="366" type="curve" smooth="yes"/>
      <point x="388" y="366"/>
      <point x="336" y="369"/>
      <point x="278" y="374" type="curve"/>
      <point x="278" y="333"/>
      <point x="277" y="260"/>
      <point x="271" y="117" type="curve"/>
      <point x="301" y="123" type="line"/>
      <point x="294" y="240"/>
      <point x="251" y="300"/>
      <point x="208" y="356" type="curve" smooth="yes"/>
      <point x="177" y="397"/>
      <point x="156" y="431"/>
      <point x="156" y="482" type="curve" smooth="yes"/>
      <point x="156" y="555"/>
      <point x="210" y="602"/>
      <point x="306" y="602" type="curve" smooth="yes"/>
      <point x="383" y="602"/>
      <point x="431" y="564"/>
      <point x="431" y="516" type="curve" smooth="yes"/>
      <point x="431" y="508"/>
      <point x="430" y="500"/>
      <point x="428" y="494" type="curve"/>
      <point x="561" y="468" type="line"/>
      <point x="569" y="488"/>
      <point x="572" y="506"/>
      <point x="572" y="527" type="curve" smooth="yes"/>
      <point x="572" y="655"/>
      <point x="448" y="724"/>
      <point x="305" y="724" type="curve" smooth="yes"/>
      <point x="119" y="724"/>
      <point x="15" y="617"/>
      <point x="15" y="482" type="curve" smooth="yes"/>
      <point x="15" y="387"/>
      <point x="59" y="327"/>
      <point x="109" y="273" type="curve" smooth="yes"/>
      <point x="177" y="198"/>
      <point x="255" y="134"/>
      <point x="243" y="-1" type="curve"/>
    </contour>
  </outline>
</glyph>
<glyph name="O-medf" format="2">
  <advance width="942"/>
  <unicode hex="16E5D"/>
  <outline>
    <contour>
      <point x="237" y="-11" type="curve" smooth="yes"/>
      <point x="381" y="-11"/>
      <point x="461" y="80"/>
      <point x="479" y="222" type="curve"/>
      <point x="442" y="222" type="line"/>
      <point x="459" y="71"/>
      <point x="543" y="-11"/>
      <point x="682" y="-11" type="curve" smooth="yes"/>
      <point x="806" y="-11"/>
      <point x="881" y="63"/>
      <point x="907" y="136" type="curve"/>
      <point x="762" y="177" type="line"/>
      <point x="752" y="150"/>
      <point x="720" y="114"/>
      <point x="663" y="114" type="curve" smooth="yes"/>
      <point x="584" y="114"/>
      <point x="535" y="168"/>
      <point x="535" y="268" type="curve" smooth="yes"/>
      <point x="535" y="381"/>
      <point x="606" y="492"/>
      <point x="827" y="520" type="curve"/>
      <point x="781" y="599" type="line"/>
      <point x="605" y="581"/>
      <point x="473" y="479"/>
      <point x="447" y="348" type="curve"/>
      <point x="485" y="346" type="line"/>
      <point x="462" y="470"/>
      <point x="328" y="586"/>
      <point x="108" y="570" type="curve"/>
      <point x="130" y="515" type="line"/>
      <point x="201" y="575"/>
      <point x="326" y="612"/>
      <point x="457" y="612" type="curve" smooth="yes"/>
      <point x="576" y="612"/>
      <point x="682" y="593"/>
      <point x="736" y="543" type="curve"/>
      <point x="745" y="544" type="line"/>
      <point x="760" y="529"/>
      <point x="767" y="511"/>
      <point x="767" y="493" type="curve" smooth="yes"/>
      <point x="767" y="458"/>
      <point x="741" y="431"/>
      <point x="699" y="431" type="curve" smooth="yes"/>
      <point x="669" y="431"/>
      <point x="641" y="445"/>
      <point x="623" y="467" type="curve"/>
      <point x="554" y="404" type="line"/>
      <point x="584" y="363"/>
      <point x="638" y="337"/>
      <point x="709" y="337" type="curve" smooth="yes"/>
      <point x="818" y="337"/>
      <point x="889" y="399"/>
      <point x="889" y="494" type="curve" smooth="yes"/>
      <point x="889" y="642"/>
      <point x="705" y="724"/>
      <point x="457" y="724" type="curve" smooth="yes"/>
      <point x="275" y="724"/>
      <point x="130" y="669"/>
      <point x="45" y="594" type="curve"/>
      <point x="84" y="485" type="line"/>
      <point x="237" y="485"/>
      <point x="392" y="395"/>
      <point x="392" y="282" type="curve" smooth="yes"/>
      <point x="392" y="192"/>
      <point x="339" y="114"/>
      <point x="250" y="114" type="curve" smooth="yes"/>
      <point x="196" y="114"/>
      <point x="171" y="140"/>
      <point x="152" y="165" type="curve"/>
      <point x="25" y="92" type="line"/>
      <point x="59" y="34"/>
      <point x="126" y="-11"/>
    </contour>
  </outline>
</glyph>
<glyph name="AI-medf" format="2">
  <advance width="857"/>
  <unicode hex="16E5E"/>
  <outline>
    <contour>
      <point x="205" y="-11" type="curve" smooth="yes"/>
      <point x="361" y="-11"/>
      <point x="450" y="91"/>
      <point x="489" y="342" type="curve" smooth="yes"/>
      <point x="494" y="376"/>
      <point x="498" y="413"/>
      <point x="501" y="452" type="curve" smooth="yes"/>
      <point x="511" y="566"/>
      <point x="533" y="616"/>
      <point x="577" y="616" type="curve" smooth="yes"/>
      <point x="597" y="616"/>
      <point x="611" y="608"/>
      <point x="622" y="601" type="curve"/>
      <point x="673" y="693" type="line"/>
      <point x="651" y="709"/>
      <point x="613" y="724"/>
      <point x="572" y="724" type="curve" smooth="yes"/>
      <point x="462" y="724"/>
      <point x="407" y="645"/>
      <point x="387" y="466" type="curve" smooth="yes"/>
      <point x="382" y="425"/>
      <point x="378" y="387"/>
      <point x="373" y="354" type="curve" smooth="yes"/>
      <point x="336" y="130"/>
      <point x="278" y="73"/>
      <point x="203" y="73" type="curve" smooth="yes"/>
      <point x="170" y="73"/>
      <point x="154" y="93"/>
      <point x="154" y="114" type="curve" smooth="yes"/>
      <point x="154" y="139"/>
      <point x="173" y="161"/>
      <point x="211" y="161" type="curve" smooth="yes"/>
      <point x="322" y="161"/>
      <point x="385" y="-11"/>
      <point x="579" y="-11" type="curve" smooth="yes"/>
      <point x="742" y="-11"/>
      <point x="842" y="72"/>
      <point x="842" y="213" type="curve" smooth="yes"/>
      <point x="842" y="357"/>
      <point x="721" y="428"/>
      <point x="559" y="428" type="curve" smooth="yes"/>
      <point x="469" y="428"/>
      <point x="339" y="404"/>
      <point x="280" y="372" type="curve"/>
      <point x="319" y="333" type="line"/>
      <point x="331" y="375"/>
      <point x="340" y="410"/>
      <point x="340" y="450" type="curve" smooth="yes"/>
      <point x="340" y="567"/>
      <point x="269" y="626"/>
      <point x="167" y="626" type="curve" smooth="yes"/>
      <point x="57" y="626"/>
      <point x="0" y="558"/>
      <point x="0" y="482" type="curve" smooth="yes"/>
      <point x="0" y="426"/>
      <point x="26" y="387"/>
      <point x="79" y="361" type="curve"/>
      <point x="142" y="445" type="line"/>
      <point x="126" y="456"/>
      <point x="117" y="469"/>
      <point x="117" y="486" type="curve" smooth="yes"/>
      <point x="117" y="508"/>
      <point x="134" y="527"/>
      <point x="166" y="527" type="curve" smooth="yes"/>
      <point x="201" y="527"/>
      <point x="230" y="504"/>
      <point x="230" y="441" type="curve" smooth="yes"/>
      <point x="230" y="417"/>
      <point x="226" y="378"/>
      <point x="216" y="345" type="curve"/>
      <point x="261" y="271" type="line"/>
      <point x="350" y="307"/>
      <point x="480" y="323"/>
      <point x="550" y="323" type="curve" smooth="yes"/>
      <point x="661" y="323"/>
      <point x="710" y="280"/>
      <point x="710" y="213" type="curve" smooth="yes"/>
      <point x="710" y="139"/>
      <point x="662" y="94"/>
      <point x="577" y="94" type="curve" smooth="yes"/>
      <point x="435" y="94"/>
      <point x="368" y="245"/>
      <point x="203" y="245" type="curve" smooth="yes"/>
      <point x="113" y="245"/>
      <point x="43" y="196"/>
      <point x="43" y="118" type="curve" smooth="yes"/>
      <point x="43" y="48"/>
      <point x="90" y="-11"/>
    </contour>
  </outline>
</glyph>
<glyph name="Y-medf" format="2">
	<unicode hex="16E5F"/>
	<advance width="978"/>
	<outline>
		<contour>
			<point x="183" y="-11" type="curve" smooth="yes"/>
			<point x="347" y="-11"/>
			<point x="414" y="124"/>
			<point x="414" y="363" type="curve" smooth="yes"/>
			<point x="414" y="397" type="line" smooth="yes"/>
			<point x="414" y="530"/>
			<point x="435" y="616"/>
			<point x="506" y="616" type="curve" smooth="yes"/>
			<point x="543" y="616"/>
			<point x="571" y="593"/>
			<point x="571" y="561" type="curve" smooth="yes"/>
			<point x="571" y="532"/>
			<point x="555" y="516"/>
			<point x="535" y="502" type="curve"/>
			<point x="612" y="420" type="line"/>
			<point x="653" y="447"/>
			<point x="693" y="496"/>
			<point x="693" y="563" type="curve" smooth="yes"/>
			<point x="693" y="652"/>
			<point x="621" y="724"/>
			<point x="509" y="724" type="curve" smooth="yes"/>
			<point x="348" y="724"/>
			<point x="290" y="612"/>
			<point x="290" y="398" type="curve" smooth="yes"/>
			<point x="290" y="364" type="line" smooth="yes"/>
			<point x="290" y="149"/>
			<point x="251" y="79"/>
			<point x="179" y="79" type="curve" smooth="yes"/>
			<point x="146" y="79"/>
			<point x="132" y="99"/>
			<point x="132" y="122" type="curve" smooth="yes"/>
			<point x="132" y="145"/>
			<point x="153" y="169"/>
			<point x="191" y="169" type="curve" smooth="yes"/>
			<point x="329" y="169"/>
			<point x="433" y="-11"/>
			<point x="683" y="-11" type="curve" smooth="yes"/>
			<point x="851" y="-11"/>
			<point x="929" y="91"/>
			<point x="963" y="209" type="curve"/>
			<point x="850" y="243" type="line"/>
			<point x="822" y="159"/>
			<point x="784" y="94"/>
			<point x="671" y="94" type="curve" smooth="yes"/>
			<point x="499" y="94"/>
			<point x="378" y="259"/>
			<point x="183" y="259" type="curve" smooth="yes"/>
			<point x="80" y="259"/>
			<point x="15" y="202"/>
			<point x="15" y="124" type="curve" smooth="yes"/>
			<point x="15" y="54"/>
			<point x="66" y="-11"/>
		</contour>
		<contour>
			<point x="702" y="-221" type="line"/>
			<point x="703" y="-106"/>
			<point x="720" y="186"/>
			<point x="731" y="286" type="curve"/>
			<point x="622" y="290" type="line"/>
			<point x="613" y="187"/>
			<point x="595" y="-101"/>
			<point x="594" y="-219" type="curve"/>
		</contour>
	</outline>
</glyph>
<glyph name="m-medf" format="2">
	<unicode hex="16E60"/>
	<advance width="741"/>
	<outline>
		<contour>
			<point x="319" y="-11" type="curve" smooth="yes"/>
			<point x="488" y="-11"/>
			<point x="589" y="70"/>
			<point x="651" y="297" type="curve" smooth="yes"/>
			<point x="673" y="378" type="line" smooth="yes"/>
			<point x="688" y="434"/>
			<point x="700" y="447"/>
			<point x="731" y="449" type="curve"/>
			<point x="731" y="546" type="line"/>
			<point x="481" y="546" type="line" smooth="yes"/>
			<point x="378" y="546"/>
			<point x="316" y="486"/>
			<point x="316" y="420" type="curve"/>
			<point x="352" y="404" type="line"/>
			<point x="305" y="500"/>
			<point x="241" y="557"/>
			<point x="158" y="557" type="curve" smooth="yes"/>
			<point x="62" y="557"/>
			<point x="5" y="493"/>
			<point x="5" y="419" type="curve" smooth="yes"/>
			<point x="5" y="384"/>
			<point x="18" y="346"/>
			<point x="41" y="312" type="curve"/>
			<point x="139" y="359" type="line"/>
			<point x="124" y="381"/>
			<point x="119" y="397"/>
			<point x="119" y="414" type="curve" smooth="yes"/>
			<point x="119" y="438"/>
			<point x="134" y="455"/>
			<point x="162" y="455" type="curve" smooth="yes"/>
			<point x="225" y="455"/>
			<point x="270" y="381"/>
			<point x="338" y="260" type="curve"/>
			<point x="433" y="306" type="line"/>
			<point x="415" y="335"/>
			<point x="404" y="355"/>
			<point x="404" y="379" type="curve" smooth="yes"/>
			<point x="404" y="410"/>
			<point x="426" y="434"/>
			<point x="481" y="434" type="curve" smooth="yes"/>
			<point x="615" y="434" type="line"/>
			<point x="615" y="454" type="line"/>
			<point x="575" y="454"/>
			<point x="556" y="446"/>
			<point x="543" y="401" type="curve" smooth="yes"/>
			<point x="521" y="320" type="line" smooth="yes"/>
			<point x="483" y="179"/>
			<point x="435" y="108"/>
			<point x="324" y="108" type="curve" smooth="yes"/>
			<point x="248" y="108"/>
			<point x="218" y="147"/>
			<point x="210" y="202" type="curve"/>
			<point x="81" y="183" type="line"/>
			<point x="89" y="73"/>
			<point x="168" y="-11"/>
		</contour>
	</outline>
</glyph>
<glyph name="s-medf" format="2">
  <advance width="884"/>
  <unicode hex="16E61"/>
  <outline>
    <contour>
      <point x="255" y="-11" type="curve" smooth="yes"/>
      <point x="362" y="-11"/>
      <point x="429" y="38"/>
      <point x="446" y="121" type="curve"/>
      <point x="325" y="154" type="line"/>
      <point x="314" y="123"/>
      <point x="299" y="103"/>
      <point x="255" y="103" type="curve" smooth="yes"/>
      <point x="211" y="103"/>
      <point x="173" y="141"/>
      <point x="173" y="217" type="curve" smooth="yes"/>
      <point x="173" y="359"/>
      <point x="295" y="440"/>
      <point x="447" y="440" type="curve" smooth="yes"/>
      <point x="603" y="440"/>
      <point x="707" y="355"/>
      <point x="707" y="223" type="curve" smooth="yes"/>
      <point x="707" y="151"/>
      <point x="672" y="104"/>
      <point x="624" y="104" type="curve" smooth="yes"/>
      <point x="603" y="104"/>
      <point x="580" y="113"/>
      <point x="568" y="122" type="curve"/>
      <point x="516" y="23" type="line"/>
      <point x="537" y="4"/>
      <point x="582" y="-11"/>
      <point x="635" y="-11" type="curve" smooth="yes"/>
      <point x="772" y="-11"/>
      <point x="849" y="89"/>
      <point x="849" y="223" type="curve" smooth="yes"/>
      <point x="849" y="419"/>
      <point x="673" y="557"/>
      <point x="450" y="557" type="curve" smooth="yes"/>
      <point x="234" y="557"/>
      <point x="35" y="428"/>
      <point x="35" y="216" type="curve" smooth="yes"/>
      <point x="35" y="73"/>
      <point x="122" y="-11"/>
    </contour>
  </outline>
</glyph>
<glyph name="v-medf" format="2">
	<unicode hex="16E62"/>
	<advance width="685"/>
	<outline>
		<contour>
			<point x="185" y="-11" type="curve" smooth="yes"/>
			<point x="456" y="-11"/>
			<point x="665" y="192"/>
			<point x="665" y="392" type="curve" smooth="yes"/>
			<point x="665" y="494"/>
			<point x="593" y="557"/>
			<point x="488" y="557" type="curve" smooth="yes"/>
			<point x="402" y="557"/>
			<point x="329" y="501"/>
			<point x="329" y="413" type="curve" smooth="yes"/>
			<point x="329" y="339"/>
			<point x="376" y="298"/>
			<point x="440" y="280" type="curve"/>
			<point x="481" y="368" type="line"/>
			<point x="455" y="375"/>
			<point x="442" y="388"/>
			<point x="442" y="413" type="curve" smooth="yes"/>
			<point x="442" y="439"/>
			<point x="462" y="457"/>
			<point x="488" y="457" type="curve" smooth="yes"/>
			<point x="524" y="457"/>
			<point x="542" y="429"/>
			<point x="542" y="392" type="curve" smooth="yes"/>
			<point x="542" y="245"/>
			<point x="382" y="99"/>
			<point x="180" y="97" type="curve"/>
			<point x="253" y="23" type="line"/>
			<point x="275" y="172"/>
			<point x="297" y="345"/>
			<point x="303" y="536" type="curve"/>
			<point x="175" y="549" type="line"/>
			<point x="132" y="485"/>
			<point x="64" y="406"/>
			<point x="0" y="338" type="curve"/>
			<point x="79" y="270" type="line"/>
			<point x="144" y="337"/>
			<point x="208" y="412"/>
			<point x="242" y="475" type="curve"/>
			<point x="177" y="519" type="line"/>
			<point x="173" y="346"/>
			<point x="152" y="173"/>
			<point x="126" y="-4" type="curve"/>
			<point x="147" y="-9"/>
			<point x="166" y="-11"/>
		</contour>
	</outline>
</glyph>
<glyph name="w-medf" format="2">
  <advance width="660"/>
  <unicode hex="16E63"/>
  <outline>
    <contour>
      <point x="254" y="-11" type="curve" smooth="yes"/>
      <point x="469" y="-11"/>
      <point x="621" y="146"/>
      <point x="621" y="313" type="curve" smooth="yes"/>
      <point x="621" y="476"/>
      <point x="498" y="557"/>
      <point x="339" y="557" type="curve" smooth="yes"/>
      <point x="186" y="557"/>
      <point x="49" y="467"/>
      <point x="49" y="320" type="curve" smooth="yes"/>
      <point x="49" y="207"/>
      <point x="138" y="172"/>
      <point x="208" y="172" type="curve" smooth="yes"/>
      <point x="307" y="172"/>
      <point x="409" y="243"/>
      <point x="436" y="379" type="curve"/>
      <point x="343" y="404" type="line"/>
      <point x="310" y="304"/>
      <point x="271" y="275"/>
      <point x="223" y="275" type="curve" smooth="yes"/>
      <point x="194" y="275"/>
      <point x="174" y="288"/>
      <point x="174" y="323" type="curve" smooth="yes"/>
      <point x="174" y="404"/>
      <point x="259" y="454"/>
      <point x="344" y="454" type="curve" smooth="yes"/>
      <point x="430" y="454"/>
      <point x="498" y="409"/>
      <point x="498" y="313" type="curve" smooth="yes"/>
      <point x="498" y="204"/>
      <point x="420" y="95"/>
      <point x="257" y="95" type="curve" smooth="yes"/>
      <point x="184" y="95"/>
      <point x="141" y="119"/>
      <point x="117" y="152" type="curve"/>
      <point x="25" y="86" type="line"/>
      <point x="59" y="30"/>
      <point x="130" y="-11"/>
    </contour>
    <contour>
      <point x="635" y="76" type="line"/>
      <point x="602" y="112"/>
      <point x="580" y="138"/>
      <point x="560" y="168" type="curve"/>
      <point x="534" y="198" type="line"/>
      <point x="494" y="251"/>
      <point x="450" y="294"/>
      <point x="381" y="330" type="curve"/>
      <point x="303" y="264" type="line"/>
      <point x="388" y="219"/>
      <point x="441" y="165"/>
      <point x="467" y="121" type="curve"/>
      <point x="479" y="105" type="line"/>
      <point x="490" y="86"/>
      <point x="517" y="46"/>
      <point x="548" y="13" type="curve"/>
    </contour>
  </outline>
</glyph>
<glyph name="atiu-medf" format="2">
  <advance width="944"/>
  <unicode hex="16E64"/>
  <outline>
    <contour>
      <point x="629" y="-11" type="curve" smooth="yes"/>
      <point x="801" y="-11"/>
      <point x="909" y="85"/>
      <point x="909" y="257" type="curve" smooth="yes"/>
      <point x="909" y="412"/>
      <point x="828" y="496"/>
      <point x="716" y="496" type="curve" smooth="yes"/>
      <point x="643" y="496"/>
      <point x="571" y="456"/>
      <point x="564" y="373" type="curve"/>
      <point x="608" y="380" type="line"/>
      <point x="592" y="472"/>
      <point x="514" y="500"/>
      <point x="327" y="500" type="curve" smooth="yes"/>
      <point x="109" y="500"/>
      <point x="15" y="444"/>
      <point x="15" y="341" type="curve" smooth="yes"/>
      <point x="15" y="314"/>
      <point x="23" y="287"/>
      <point x="37" y="263" type="curve"/>
      <point x="135" y="300" type="line"/>
      <point x="127" y="315"/>
      <point x="125" y="324"/>
      <point x="125" y="335" type="curve" smooth="yes"/>
      <point x="125" y="378"/>
      <point x="165" y="393"/>
      <point x="317" y="393" type="curve" smooth="yes"/>
      <point x="477" y="393"/>
      <point x="543" y="385"/>
      <point x="555" y="320" type="curve"/>
      <point x="643" y="322" type="line"/>
      <point x="645" y="361"/>
      <point x="671" y="383"/>
      <point x="704" y="383" type="curve" smooth="yes"/>
      <point x="757" y="383"/>
      <point x="780" y="338"/>
      <point x="780" y="257" type="curve" smooth="yes"/>
      <point x="780" y="176"/>
      <point x="727" y="106"/>
      <point x="628" y="106" type="curve" smooth="yes"/>
      <point x="527" y="106"/>
      <point x="448" y="159"/>
      <point x="329" y="159" type="curve" smooth="yes"/>
      <point x="249" y="159"/>
      <point x="198" y="128"/>
      <point x="159" y="96" type="curve"/>
      <point x="227" y="60" type="line"/>
      <point x="259" y="177"/>
      <point x="285" y="307"/>
      <point x="307" y="434" type="curve"/>
      <point x="301" y="458" type="line"/>
      <point x="318" y="549"/>
      <point x="336" y="650"/>
      <point x="347" y="733" type="curve"/>
      <point x="334" y="733" type="line"/>
      <point x="338" y="656"/>
      <point x="355" y="556"/>
      <point x="373" y="462" type="curve"/>
      <point x="369" y="431" type="line"/>
      <point x="386" y="350"/>
      <point x="408" y="268"/>
      <point x="435" y="193" type="curve"/>
      <point x="542" y="229" type="line"/>
      <point x="480" y="395"/>
      <point x="426" y="627"/>
      <point x="404" y="807" type="curve"/>
      <point x="274" y="807" type="line"/>
      <point x="230" y="574"/>
      <point x="168" y="291"/>
      <point x="102" y="66" type="curve"/>
      <point x="166" y="-5" type="line"/>
      <point x="212" y="21"/>
      <point x="253" y="42"/>
      <point x="318" y="42" type="curve" smooth="yes"/>
      <point x="422" y="42"/>
      <point x="504" y="-11"/>
    </contour>
  </outline>
</glyph>
<glyph name="z-medf" format="2">
  <advance width="510"/>
  <unicode hex="16E65"/>
  <outline>
    <contour>
      <point x="73" y="-408" type="line"/>
      <point x="287" y="-372"/>
      <point x="427" y="-220"/>
      <point x="427" y="-26" type="curve" smooth="yes"/>
      <point x="427" y="51"/>
      <point x="404" y="108"/>
      <point x="360" y="139" type="curve" smooth="yes"/>
      <point x="335" y="157" type="line"/>
      <point x="303" y="213"/>
      <point x="237" y="246"/>
      <point x="166" y="246" type="curve" smooth="yes"/>
      <point x="79" y="246"/>
      <point x="15" y="191"/>
      <point x="15" y="112" type="curve" smooth="yes"/>
      <point x="15" y="30"/>
      <point x="78" y="-22"/>
      <point x="171" y="-22" type="curve" smooth="yes"/>
      <point x="236" y="-22"/>
      <point x="291" y="1"/>
      <point x="329" y="49" type="curve"/>
      <point x="370" y="65" type="line"/>
      <point x="431" y="126"/>
      <point x="465" y="212"/>
      <point x="465" y="304" type="curve" smooth="yes"/>
      <point x="465" y="458"/>
      <point x="361" y="557"/>
      <point x="208" y="557" type="curve" smooth="yes"/>
      <point x="130" y="557"/>
      <point x="65" y="526"/>
      <point x="27" y="489" type="curve"/>
      <point x="97" y="404" type="line"/>
      <point x="128" y="429"/>
      <point x="168" y="444"/>
      <point x="206" y="444" type="curve" smooth="yes"/>
      <point x="272" y="444"/>
      <point x="332" y="397"/>
      <point x="332" y="293" type="curve" smooth="yes"/>
      <point x="332" y="156"/>
      <point x="270" y="62"/>
      <point x="182" y="62" type="curve" smooth="yes"/>
      <point x="141" y="62"/>
      <point x="117" y="78"/>
      <point x="117" y="111" type="curve" smooth="yes"/>
      <point x="117" y="144"/>
      <point x="140" y="162"/>
      <point x="176" y="162" type="curve" smooth="yes"/>
      <point x="248" y="162"/>
      <point x="294" y="93"/>
      <point x="294" y="-18" type="curve" smooth="yes"/>
      <point x="294" y="-167"/>
      <point x="214" y="-260"/>
      <point x="44" y="-306" type="curve"/>
    </contour>
  </outline>
</glyph>
<glyph name="kp-medf" format="2">
  <advance width="629"/>
  <unicode hex="16E66"/>
  <outline>
    <contour>
      <point x="333" y="-5" type="line"/>
      <point x="390" y="135"/>
      <point x="501" y="301"/>
      <point x="614" y="434" type="curve"/>
      <point x="608" y="541" type="line"/>
      <point x="493" y="550"/>
      <point x="385" y="554"/>
      <point x="277" y="554" type="curve" smooth="yes"/>
      <point x="196" y="554"/>
      <point x="115" y="552"/>
      <point x="33" y="546" type="curve"/>
      <point x="15" y="435" type="line"/>
      <point x="89" y="329"/>
      <point x="168" y="132"/>
      <point x="207" y="0" type="curve"/>
    </contour>
    <contour>
      <point x="291" y="87" type="line"/>
      <point x="275" y="204"/>
      <point x="187" y="412"/>
      <point x="128" y="493" type="curve"/>
      <point x="74" y="439" type="line"/>
      <point x="122" y="441"/>
      <point x="170" y="442"/>
      <point x="219" y="442" type="curve" smooth="yes"/>
      <point x="319" y="442"/>
      <point x="421" y="438"/>
      <point x="528" y="432" type="curve"/>
      <point x="482" y="459" type="line"/>
      <point x="410" y="385"/>
      <point x="286" y="187"/>
      <point x="256" y="88" type="curve"/>
    </contour>
    <contour>
      <point x="376" y="459" type="line"/>
      <point x="375" y="529"/>
      <point x="387" y="613"/>
      <point x="399" y="678" type="curve"/>
      <point x="256" y="678" type="line"/>
      <point x="246" y="619"/>
      <point x="236" y="524"/>
      <point x="245" y="459" type="curve"/>
    </contour>
  </outline>
</glyph>
<glyph name="p-medf" format="2">
  <advance width="672"/>
  <unicode hex="16E67"/>
  <outline>
    <contour>
      <point x="395" y="-11" type="curve" smooth="yes"/>
      <point x="528" y="-11"/>
      <point x="597" y="70"/>
      <point x="597" y="186" type="curve" smooth="yes"/>
      <point x="597" y="314"/>
      <point x="545" y="388"/>
      <point x="545" y="527" type="curve" smooth="yes"/>
      <point x="545" y="625"/>
      <point x="557" y="678"/>
      <point x="657" y="704" type="curve"/>
      <point x="642" y="807" type="line"/>
      <point x="328" y="799"/>
      <point x="40" y="602"/>
      <point x="40" y="0" type="curve"/>
      <point x="168" y="0" type="line"/>
      <point x="168" y="413"/>
      <point x="301" y="635"/>
      <point x="538" y="693" type="curve"/>
      <point x="539" y="712" type="line"/>
      <point x="437" y="669"/>
      <point x="413" y="582"/>
      <point x="413" y="511" type="curve" smooth="yes"/>
      <point x="413" y="388"/>
      <point x="463" y="308"/>
      <point x="463" y="186" type="curve" smooth="yes"/>
      <point x="463" y="130"/>
      <point x="436" y="98"/>
      <point x="397" y="98" type="curve" smooth="yes"/>
      <point x="366" y="98"/>
      <point x="347" y="117"/>
      <point x="342" y="141" type="curve"/>
      <point x="222" y="105" type="line"/>
      <point x="233" y="50"/>
      <point x="276" y="-11"/>
    </contour>
  </outline>
</glyph>
<glyph name="t-medf" format="2">
	<unicode hex="16E68"/>
	<advance width="538"/>
	<outline>
		<contour>
			<point x="182" y="-408" type="line"/>
			<point x="401" y="-104"/>
			<point x="493" y="99"/>
			<point x="493" y="276" type="curve" smooth="yes"/>
			<point x="493" y="448"/>
			<point x="392" y="557"/>
			<point x="231" y="557" type="curve" smooth="yes"/>
			<point x="110" y="557"/>
			<point x="25" y="487"/>
			<point x="25" y="388" type="curve" smooth="yes"/>
			<point x="25" y="350"/>
			<point x="39" y="315"/>
			<point x="66" y="286" type="curve"/>
			<point x="177" y="342" type="line"/>
			<point x="166" y="357"/>
			<point x="159" y="376"/>
			<point x="159" y="391" type="curve" smooth="yes"/>
			<point x="159" y="425"/>
			<point x="186" y="446"/>
			<point x="229" y="446" type="curve" smooth="yes"/>
			<point x="313" y="446"/>
			<point x="363" y="380"/>
			<point x="363" y="273" type="curve" smooth="yes"/>
			<point x="363" y="124"/>
			<point x="302" y="-40"/>
			<point x="159" y="-274" type="curve"/>
			<point x="175" y="-283" type="line"/>
			<point x="180" y="-144"/>
			<point x="180" y="43"/>
			<point x="175" y="142" type="curve"/>
			<point x="123" y="68" type="line"/>
			<point x="208" y="92"/>
			<point x="326" y="119"/>
			<point x="438" y="140" type="curve"/>
			<point x="429" y="247" type="line"/>
			<point x="317" y="226"/>
			<point x="147" y="185"/>
			<point x="50" y="157" type="curve"/>
			<point x="63" y="43"/>
			<point x="75" y="-170"/>
			<point x="82" y="-391" type="curve"/>
		</contour>
	</outline>
	<guideline y="-408"/>
</glyph>
<glyph name="g-medf" format="2">
  <advance width="576"/>
  <unicode hex="16E69"/>
  <outline>
    <contour>
      <point x="90" y="-408" type="line"/>
      <point x="139" y="-369" type="line" smooth="yes"/>
      <point x="395" y="-161"/>
      <point x="535" y="-41"/>
      <point x="535" y="112" type="curve" smooth="yes"/>
      <point x="535" y="251"/>
      <point x="435" y="327"/>
      <point x="327" y="348" type="curve"/>
      <point x="296" y="235" type="line"/>
      <point x="364" y="217"/>
      <point x="405" y="176"/>
      <point x="405" y="112" type="curve" smooth="yes"/>
      <point x="405" y="15"/>
      <point x="324" y="-94"/>
      <point x="172" y="-215" type="curve" smooth="yes"/>
      <point x="108" y="-266" type="line"/>
      <point x="156" y="-251" type="line"/>
      <point x="207" y="-209"/>
      <point x="246" y="-151"/>
      <point x="246" y="-53" type="curve" smooth="yes"/>
      <point x="246" y="-2"/>
      <point x="233" y="60"/>
      <point x="218" y="117" type="curve" smooth="yes"/>
      <point x="204" y="174"/>
      <point x="192" y="231"/>
      <point x="192" y="286" type="curve" smooth="yes"/>
      <point x="192" y="396"/>
      <point x="254" y="445"/>
      <point x="318" y="445" type="curve" smooth="yes"/>
      <point x="373" y="445"/>
      <point x="404" y="420"/>
      <point x="408" y="388" type="curve"/>
      <point x="546" y="378" type="line"/>
      <point x="546" y="485"/>
      <point x="451" y="557"/>
      <point x="318" y="557" type="curve" smooth="yes"/>
      <point x="165" y="557"/>
      <point x="62" y="451"/>
      <point x="62" y="286" type="curve" smooth="yes"/>
      <point x="62" y="219"/>
      <point x="77" y="151"/>
      <point x="94" y="85" type="curve" smooth="yes"/>
      <point x="111" y="23"/>
      <point x="125" y="-39"/>
      <point x="125" y="-106" type="curve" smooth="yes"/>
      <point x="125" y="-180"/>
      <point x="109" y="-239"/>
      <point x="25" y="-306" type="curve" smooth="yes"/>
      <point x="15" y="-314" type="line"/>
    </contour>
  </outline>
</glyph>
<glyph name="f-medf" format="2">
	<unicode hex="16E6A"/>
	<advance width="554"/>
	<outline>
		<contour>
			<point x="280" y="-11" type="curve" smooth="yes"/>
			<point x="411" y="-11"/>
			<point x="509" y="50"/>
			<point x="509" y="156" type="curve" smooth="yes"/>
			<point x="509" y="261"/>
			<point x="425" y="303"/>
			<point x="303" y="322" type="curve" smooth="yes"/>
			<point x="290" y="324" type="line" smooth="yes"/>
			<point x="232" y="333"/>
			<point x="201" y="353"/>
			<point x="201" y="391" type="curve" smooth="yes"/>
			<point x="201" y="435"/>
			<point x="238" y="455"/>
			<point x="287" y="455" type="curve" smooth="yes"/>
			<point x="338" y="455"/>
			<point x="366" y="427"/>
			<point x="379" y="386" type="curve"/>
			<point x="504" y="400" type="line"/>
			<point x="496" y="485"/>
			<point x="424" y="557"/>
			<point x="287" y="557" type="curve" smooth="yes"/>
			<point x="166" y="557"/>
			<point x="75" y="496"/>
			<point x="75" y="390" type="curve" smooth="yes"/>
			<point x="75" y="285"/>
			<point x="163" y="242"/>
			<point x="276" y="225" type="curve" smooth="yes"/>
			<point x="289" y="223" type="line" smooth="yes"/>
			<point x="356" y="213"/>
			<point x="383" y="193"/>
			<point x="383" y="155" type="curve" smooth="yes"/>
			<point x="383" y="111"/>
			<point x="338" y="91"/>
			<point x="280" y="91" type="curve" smooth="yes"/>
			<point x="219" y="91"/>
			<point x="183" y="123"/>
			<point x="170" y="167" type="curve"/>
			<point x="45" y="153" type="line"/>
			<point x="54" y="64"/>
			<point x="132" y="-11"/>
		</contour>
		<contour>
			<point x="320" y="145" type="line"/>
			<point x="322" y="170"/>
			<point x="322" y="243"/>
			<point x="322" y="268" type="curve" smooth="yes"/>
			<point x="322" y="311"/>
			<point x="322" y="347"/>
			<point x="320" y="390" type="curve"/>
			<point x="248" y="390" type="line"/>
			<point x="250" y="347"/>
			<point x="250" y="311"/>
			<point x="250" y="269" type="curve" smooth="yes"/>
			<point x="250" y="243"/>
			<point x="250" y="170"/>
			<point x="248" y="145" type="curve"/>
		</contour>
	</outline>
</glyph>
<glyph name="i-medf" format="2">
  <advance width="392"/>
  <unicode hex="16E6B"/>
  <outline>
    <contour>
      <point x="135" y="-11" type="line"/>
      <point x="277" y="-11"/>
      <point x="333" y="66"/>
      <point x="333" y="154" type="curve" smooth="yes"/>
      <point x="333" y="239"/>
      <point x="266" y="286"/>
      <point x="211" y="326" type="curve" smooth="yes"/>
      <point x="169" y="357"/>
      <point x="146" y="379"/>
      <point x="146" y="412" type="curve" smooth="yes"/>
      <point x="146" y="439"/>
      <point x="163" y="462"/>
      <point x="196" y="462" type="curve" smooth="yes"/>
      <point x="231" y="462"/>
      <point x="250" y="440"/>
      <point x="250" y="408" type="curve" smooth="yes"/>
      <point x="250" y="402"/>
      <point x="249" y="396"/>
      <point x="248" y="390" type="curve"/>
      <point x="350" y="377" type="line"/>
      <point x="354" y="392"/>
      <point x="357" y="409"/>
      <point x="357" y="424" type="curve" smooth="yes"/>
      <point x="357" y="500"/>
      <point x="294" y="557"/>
      <point x="194" y="557" type="curve" smooth="yes"/>
      <point x="90" y="557"/>
      <point x="25" y="498"/>
      <point x="25" y="412" type="curve" smooth="yes"/>
      <point x="25" y="341"/>
      <point x="70" y="290"/>
      <point x="119" y="254" type="curve" smooth="yes"/>
      <point x="175" y="213"/>
      <point x="208" y="185"/>
      <point x="208" y="154" type="curve" smooth="yes"/>
      <point x="208" y="115"/>
      <point x="173" y="95"/>
      <point x="119" y="95" type="curve"/>
    </contour>
    <contour>
      <point x="198" y="594" type="curve" smooth="yes"/>
      <point x="249" y="594"/>
      <point x="281" y="627"/>
      <point x="281" y="677" type="curve" smooth="yes"/>
      <point x="281" y="727"/>
      <point x="249" y="760"/>
      <point x="198" y="760" type="curve" smooth="yes"/>
      <point x="147" y="760"/>
      <point x="115" y="727"/>
      <point x="115" y="677" type="curve" smooth="yes"/>
      <point x="115" y="627"/>
      <point x="147" y="594"/>
    </contour>
  </outline>
</glyph>
<glyph name="k-medf" format="2">
	<unicode hex="16E6C"/>
	<advance width="677"/>
	<outline>
		<contour>
			<point x="590" y="3" type="line"/>
			<point x="544" y="279"/>
			<point x="512" y="625"/>
			<point x="517" y="794" type="curve"/>
			<point x="398" y="812" type="line"/>
			<point x="357" y="670"/>
			<point x="308" y="539"/>
			<point x="256" y="434" type="curve"/>
			<point x="258" y="422" type="line"/>
			<point x="244" y="395"/>
			<point x="229" y="369"/>
			<point x="207" y="330" type="curve"/>
			<point x="200" y="331" type="line"/>
			<point x="139" y="226"/>
			<point x="109" y="186"/>
			<point x="5" y="79" type="curve"/>
			<point x="87" y="-5" type="line"/>
			<point x="204" y="110"/>
			<point x="298" y="253"/>
			<point x="368" y="421" type="curve"/>
			<point x="374" y="461" type="line"/>
			<point x="428" y="602"/>
			<point x="456" y="696"/>
			<point x="471" y="781" type="curve"/>
			<point x="427" y="749" type="line"/>
			<point x="430" y="592"/>
			<point x="432" y="539"/>
			<point x="438" y="460" type="curve"/>
			<point x="429" y="420" type="line"/>
			<point x="432" y="316"/>
			<point x="440" y="222"/>
			<point x="452" y="139" type="curve"/>
			<point x="477" y="150" type="line"/>
			<point x="451" y="227"/>
			<point x="387" y="286"/>
			<point x="283" y="332" type="curve"/>
			<point x="262" y="331" type="line"/>
			<point x="172" y="367"/>
			<point x="126" y="384"/>
			<point x="93" y="391" type="curve"/>
			<point x="105" y="370" type="line"/>
			<point x="170" y="386"/>
			<point x="237" y="395"/>
			<point x="299" y="396" type="curve"/>
			<point x="314" y="390" type="line"/>
			<point x="331" y="391"/>
			<point x="349" y="391"/>
			<point x="385" y="391" type="curve" smooth="yes"/>
			<point x="480" y="391"/>
			<point x="578" y="386"/>
			<point x="662" y="378" type="curve"/>
			<point x="662" y="471" type="line"/>
			<point x="598" y="477"/>
			<point x="525" y="480"/>
			<point x="450" y="480" type="curve" smooth="yes"/>
			<point x="285" y="480"/>
			<point x="138" y="465"/>
			<point x="50" y="439" type="curve"/>
			<point x="60" y="303" type="line"/>
			<point x="309" y="234"/>
			<point x="422" y="147"/>
			<point x="468" y="-5" type="curve"/>
		</contour>
	</outline>
</glyph>
<glyph name="a-medf" format="2">
	<unicode hex="16E6D"/>
	<advance width="705"/>
	<outline>
		<contour>
			<point x="372" y="105" type="line"/>
			<point x="221" y="228"/>
			<point x="161" y="309"/>
			<point x="161" y="380" type="curve" smooth="yes"/>
			<point x="161" y="417"/>
			<point x="184" y="437"/>
			<point x="215" y="437" type="curve" smooth="yes"/>
			<point x="263" y="437"/>
			<point x="282" y="385"/>
			<point x="285" y="342" type="curve"/>
			<point x="391" y="325" type="line"/>
			<point x="410" y="395"/>
			<point x="442" y="431"/>
			<point x="482" y="431" type="curve" smooth="yes"/>
			<point x="516" y="431"/>
			<point x="535" y="407"/>
			<point x="535" y="373" type="curve" smooth="yes"/>
			<point x="535" y="296"/>
			<point x="455" y="211"/>
			<point x="320" y="100" type="curve"/>
		</contour>
		<contour>
			<point x="386" y="0" type="line"/>
			<point x="535" y="111"/>
			<point x="680" y="238"/>
			<point x="680" y="385" type="curve" smooth="yes"/>
			<point x="680" y="476"/>
			<point x="621" y="551"/>
			<point x="507" y="551" type="curve" smooth="yes"/>
			<point x="420" y="551"/>
			<point x="339" y="478"/>
			<point x="339" y="379" type="curve"/>
			<point x="369" y="376" type="line"/>
			<point x="363" y="478"/>
			<point x="303" y="557"/>
			<point x="195" y="557" type="curve" smooth="yes"/>
			<point x="102" y="557"/>
			<point x="25" y="500"/>
			<point x="25" y="389" type="curve" smooth="yes"/>
			<point x="25" y="236"/>
			<point x="186" y="98"/>
			<point x="313" y="0" type="curve"/>
		</contour>
	</outline>
</glyph>
<glyph name="j-medf" format="2">
	<unicode hex="16E6E"/>
	<advance width="576"/>
	<outline>
		<contour>
			<point x="194" y="-11" type="curve" smooth="yes"/>
			<point x="350" y="-11"/>
			<point x="414" y="74"/>
			<point x="429" y="242" type="curve" smooth="yes"/>
			<point x="437" y="337"/>
			<point x="441" y="444"/>
			<point x="441" y="536" type="curve"/>
			<point x="298" y="536" type="line"/>
			<point x="298" y="443"/>
			<point x="293" y="350"/>
			<point x="287" y="255" type="curve" smooth="yes"/>
			<point x="280" y="149"/>
			<point x="251" y="105"/>
			<point x="194" y="105" type="curve" smooth="yes"/>
			<point x="159" y="105"/>
			<point x="140" y="126"/>
			<point x="140" y="148" type="curve" smooth="yes"/>
			<point x="140" y="172"/>
			<point x="157" y="185"/>
			<point x="179" y="190" type="curve"/>
			<point x="131" y="302" type="line"/>
			<point x="61" y="287"/>
			<point x="10" y="236"/>
			<point x="10" y="152" type="curve" smooth="yes"/>
			<point x="10" y="55"/>
			<point x="90" y="-11"/>
		</contour>
		<contour>
			<point x="571" y="349" type="line"/>
			<point x="469" y="386"/>
			<point x="303" y="435"/>
			<point x="190" y="463" type="curve"/>
			<point x="153" y="350" type="line"/>
			<point x="264" y="324"/>
			<point x="428" y="272"/>
			<point x="532" y="234" type="curve"/>
		</contour>
	</outline>
</glyph>
<glyph name="e-medf" format="2">
	<unicode hex="16E6F"/>
	<advance width="642"/>
	<outline>
		<contour>
			<point x="342" y="-11" type="curve" smooth="yes"/>
			<point x="496" y="-11"/>
			<point x="597" y="56"/>
			<point x="597" y="171" type="curve" smooth="yes"/>
			<point x="597" y="288"/>
			<point x="492" y="352"/>
			<point x="353" y="352" type="curve" smooth="yes"/>
			<point x="257" y="352"/>
			<point x="185" y="322"/>
			<point x="124" y="274" type="curve"/>
			<point x="150" y="196" type="line"/>
			<point x="196" y="226"/>
			<point x="264" y="252"/>
			<point x="335" y="252" type="curve" smooth="yes"/>
			<point x="412" y="252"/>
			<point x="455" y="222"/>
			<point x="455" y="175" type="curve" smooth="yes"/>
			<point x="455" y="125"/>
			<point x="407" y="98"/>
			<point x="342" y="98" type="curve" smooth="yes"/>
			<point x="250" y="98"/>
			<point x="177" y="151"/>
			<point x="177" y="266" type="curve" smooth="yes"/>
			<point x="177" y="370"/>
			<point x="248" y="442"/>
			<point x="359" y="442" type="curve" smooth="yes"/>
			<point x="416" y="442"/>
			<point x="473" y="421"/>
			<point x="507" y="402" type="curve"/>
			<point x="570" y="501" type="line"/>
			<point x="522" y="533"/>
			<point x="450" y="557"/>
			<point x="359" y="557" type="curve" smooth="yes"/>
			<point x="189" y="557"/>
			<point x="35" y="458"/>
			<point x="35" y="263" type="curve" smooth="yes"/>
			<point x="35" y="78"/>
			<point x="173" y="-11"/>
		</contour>
	</outline>
</glyph>
<glyph name="b-medf" format="2">
  <advance width="617"/>
  <unicode hex="16E70"/>
  <outline>
    <contour>
      <point x="215" y="104" type="line"/>
      <point x="200" y="155"/>
      <point x="194" y="201"/>
      <point x="194" y="254" type="curve" smooth="yes"/>
      <point x="194" y="367"/>
      <point x="221" y="481"/>
      <point x="221" y="594" type="curve" smooth="yes"/>
      <point x="221" y="621"/>
      <point x="220" y="653"/>
      <point x="215" y="680" type="curve"/>
      <point x="83" y="674" type="line"/>
      <point x="87" y="648"/>
      <point x="88" y="618"/>
      <point x="88" y="592" type="curve" smooth="yes"/>
      <point x="88" y="476"/>
      <point x="60" y="360"/>
      <point x="60" y="244" type="curve" smooth="yes"/>
      <point x="60" y="189"/>
      <point x="66" y="129"/>
      <point x="82" y="74" type="curve"/>
    </contour>
    <contour>
      <point x="368" y="-11" type="curve" smooth="yes"/>
      <point x="465" y="-11"/>
      <point x="556" y="34"/>
      <point x="556" y="163" type="curve" smooth="yes"/>
      <point x="556" y="254"/>
      <point x="503" y="307"/>
      <point x="503" y="372" type="curve" smooth="yes"/>
      <point x="503" y="410"/>
      <point x="522" y="433"/>
      <point x="572" y="455" type="curve"/>
      <point x="537" y="556" type="line"/>
      <point x="460" y="522"/>
      <point x="324" y="496"/>
      <point x="227" y="496" type="curve" smooth="yes"/>
      <point x="191" y="496"/>
      <point x="160" y="499"/>
      <point x="137" y="506" type="curve"/>
      <point x="131" y="397" type="line"/>
      <point x="159" y="389"/>
      <point x="196" y="386"/>
      <point x="236" y="386" type="curve" smooth="yes"/>
      <point x="323" y="386"/>
      <point x="398" y="397"/>
      <point x="461" y="414" type="curve"/>
      <point x="441" y="436" type="line"/>
      <point x="399" y="421"/>
      <point x="368" y="384"/>
      <point x="368" y="339" type="curve" smooth="yes"/>
      <point x="368" y="279"/>
      <point x="416" y="224"/>
      <point x="416" y="164" type="curve" smooth="yes"/>
      <point x="416" y="119"/>
      <point x="390" y="99"/>
      <point x="352" y="99" type="curve" smooth="yes"/>
      <point x="333" y="99"/>
      <point x="314" y="107"/>
      <point x="301" y="119" type="curve"/>
      <point x="237" y="33" type="line"/>
      <point x="265" y="7"/>
      <point x="307" y="-11"/>
    </contour>
  </outline>
</glyph>
<glyph name="c-medf" format="2">
	<unicode hex="16E71"/>
	<advance width="569"/>
	<outline>
		<contour>
			<point x="267" y="-11" type="curve" smooth="yes"/>
			<point x="416" y="-11"/>
			<point x="514" y="63"/>
			<point x="514" y="173" type="curve" smooth="yes"/>
			<point x="514" y="265"/>
			<point x="451" y="325"/>
			<point x="354" y="325" type="curve" smooth="yes"/>
			<point x="305" y="325"/>
			<point x="255" y="301"/>
			<point x="239" y="269" type="curve"/>
			<point x="295" y="272" type="line"/>
			<point x="372" y="337"/>
			<point x="444" y="394"/>
			<point x="524" y="455" type="curve"/>
			<point x="487" y="556" type="line"/>
			<point x="366" y="532"/>
			<point x="172" y="498"/>
			<point x="25" y="475" type="curve"/>
			<point x="44" y="368" type="line"/>
			<point x="182" y="390"/>
			<point x="327" y="417"/>
			<point x="408" y="435" type="curve"/>
			<point x="397" y="466" type="line"/>
			<point x="318" y="404"/>
			<point x="239" y="337"/>
			<point x="175" y="278" type="curve"/>
			<point x="237" y="213" type="line"/>
			<point x="256" y="227"/>
			<point x="276" y="234"/>
			<point x="301" y="234" type="curve" smooth="yes"/>
			<point x="351" y="234"/>
			<point x="379" y="212"/>
			<point x="379" y="173" type="curve" smooth="yes"/>
			<point x="379" y="128"/>
			<point x="336" y="99"/>
			<point x="267" y="99" type="curve" smooth="yes"/>
			<point x="204" y="99"/>
			<point x="171" y="118"/>
			<point x="160" y="159" type="curve"/>
			<point x="31" y="143" type="line"/>
			<point x="38" y="41"/>
			<point x="117" y="-11"/>
		</contour>
	</outline>
	<guideline y="184"/>
</glyph>
<glyph name="u-medf" format="2">
	<unicode hex="16E72"/>
	<advance width="548"/>
	<outline>
		<contour>
			<point x="230" y="-11" type="curve" smooth="yes"/>
			<point x="402" y="-11"/>
			<point x="513" y="128"/>
			<point x="513" y="286" type="curve" smooth="yes"/>
			<point x="513" y="458"/>
			<point x="401" y="557"/>
			<point x="252" y="557" type="curve" smooth="yes"/>
			<point x="140" y="557"/>
			<point x="50" y="497"/>
			<point x="35" y="402" type="curve"/>
			<point x="150" y="379" type="line"/>
			<point x="157" y="421"/>
			<point x="199" y="450"/>
			<point x="251" y="450" type="curve" smooth="yes"/>
			<point x="318" y="450"/>
			<point x="388" y="409"/>
			<point x="388" y="281" type="curve" smooth="yes"/>
			<point x="388" y="154"/>
			<point x="305" y="96"/>
			<point x="230" y="96" type="curve" smooth="yes"/>
			<point x="177" y="96"/>
			<point x="145" y="117"/>
			<point x="129" y="153" type="curve"/>
			<point x="15" y="122" type="line"/>
			<point x="33" y="52"/>
			<point x="101" y="-11"/>
		</contour>
		<contour>
			<point x="317" y="141" type="curve" smooth="yes"/>
			<point x="359" y="141"/>
			<point x="380" y="159"/>
			<point x="402" y="178" type="curve"/>
			<point x="390" y="237" type="line"/>
			<point x="376" y="226"/>
			<point x="355" y="219"/>
			<point x="332" y="219" type="curve" smooth="yes"/>
			<point x="290" y="219"/>
			<point x="270" y="240"/>
			<point x="270" y="268" type="curve" smooth="yes"/>
			<point x="270" y="296"/>
			<point x="290" y="317"/>
			<point x="330" y="317" type="curve" smooth="yes"/>
			<point x="357" y="317"/>
			<point x="380" y="309"/>
			<point x="393" y="296" type="curve"/>
			<point x="401" y="354" type="line"/>
			<point x="382" y="375"/>
			<point x="350" y="395"/>
			<point x="304" y="395" type="curve" smooth="yes"/>
			<point x="226" y="395"/>
			<point x="175" y="338"/>
			<point x="175" y="268" type="curve" smooth="yes"/>
			<point x="175" y="198"/>
			<point x="226" y="141"/>
		</contour>
	</outline>
</glyph>
<glyph name="yu-medf" format="2">
	<unicode hex="16E73"/>
	<advance width="676"/>
	<outline>
		<contour>
			<point x="186" y="-11" type="curve" smooth="yes"/>
			<point x="291" y="-11"/>
			<point x="338" y="61"/>
			<point x="358" y="164" type="curve"/>
			<point x="321" y="164" type="line"/>
			<point x="341" y="61"/>
			<point x="384" y="-11"/>
			<point x="493" y="-11" type="curve" smooth="yes"/>
			<point x="577" y="-11"/>
			<point x="639" y="46"/>
			<point x="651" y="136" type="curve"/>
			<point x="532" y="153" type="line"/>
			<point x="524" y="110"/>
			<point x="505" y="96"/>
			<point x="482" y="96" type="curve" smooth="yes"/>
			<point x="431" y="96"/>
			<point x="393" y="154"/>
			<point x="393" y="284" type="curve" smooth="yes"/>
			<point x="393" y="407"/>
			<point x="434" y="450"/>
			<point x="474" y="450" type="curve" smooth="yes"/>
			<point x="501" y="450"/>
			<point x="518" y="430"/>
			<point x="524" y="397" type="curve"/>
			<point x="643" y="414" type="line"/>
			<point x="632" y="507"/>
			<point x="568" y="557"/>
			<point x="483" y="557" type="curve" smooth="yes"/>
			<point x="402" y="557"/>
			<point x="340" y="502"/>
			<point x="323" y="396" type="curve"/>
			<point x="347" y="395" type="line"/>
			<point x="338" y="500"/>
			<point x="279" y="557"/>
			<point x="192" y="557" type="curve" smooth="yes"/>
			<point x="108" y="557"/>
			<point x="44" y="501"/>
			<point x="32" y="415" type="curve"/>
			<point x="151" y="398" type="line"/>
			<point x="158" y="432"/>
			<point x="177" y="450"/>
			<point x="203" y="450" type="curve" smooth="yes"/>
			<point x="246" y="450"/>
			<point x="282" y="407"/>
			<point x="282" y="284" type="curve" smooth="yes"/>
			<point x="282" y="156"/>
			<point x="246" y="96"/>
			<point x="192" y="96" type="curve" smooth="yes"/>
			<point x="165" y="96"/>
			<point x="149" y="120"/>
			<point x="144" y="154" type="curve"/>
			<point x="25" y="137" type="line"/>
			<point x="34" y="43"/>
			<point x="100" y="-11"/>
		</contour>
		<contour>
			<point x="549" y="320" type="line"/>
			<point x="499" y="322"/>
			<point x="435" y="323"/>
			<point x="368" y="323" type="curve" smooth="yes"/>
			<point x="287" y="323"/>
			<point x="202" y="322"/>
			<point x="138" y="319" type="curve"/>
			<point x="138" y="237" type="line"/>
			<point x="189" y="240"/>
			<point x="254" y="241"/>
			<point x="320" y="241" type="curve" smooth="yes"/>
			<point x="403" y="241"/>
			<point x="488" y="239"/>
			<point x="549" y="236" type="curve"/>
		</contour>
	</outline>
	<guideline x="414"/>
</glyph>
<glyph name="l-medf" format="2">
  <advance width="502"/>
  <unicode hex="16E74"/>
  <outline>
    <contour>
      <point x="252" y="-11" type="curve" smooth="yes"/>
      <point x="377" y="-11"/>
      <point x="449" y="45"/>
      <point x="449" y="126" type="curve" smooth="yes"/>
      <point x="449" y="206"/>
      <point x="379" y="252"/>
      <point x="297" y="252" type="curve" smooth="yes"/>
      <point x="261" y="252"/>
      <point x="226" y="245"/>
      <point x="202" y="227" type="curve"/>
      <point x="246" y="155" type="line"/>
      <point x="259" y="161"/>
      <point x="272" y="164"/>
      <point x="288" y="164" type="curve" smooth="yes"/>
      <point x="319" y="164"/>
      <point x="336" y="149"/>
      <point x="336" y="130" type="curve" smooth="yes"/>
      <point x="336" y="102"/>
      <point x="310" y="85"/>
      <point x="252" y="85" type="curve" smooth="yes"/>
      <point x="190" y="85"/>
      <point x="136" y="117"/>
      <point x="136" y="173" type="curve" smooth="yes"/>
      <point x="136" y="260"/>
      <point x="225" y="308"/>
      <point x="410" y="308" type="curve"/>
      <point x="467" y="369" type="line"/>
      <point x="449" y="503"/>
      <point x="395" y="669"/>
      <point x="331" y="808" type="curve"/>
      <point x="224" y="812" type="line"/>
      <point x="195" y="640"/>
      <point x="135" y="404"/>
      <point x="94" y="299" type="curve"/>
      <point x="209" y="314" type="line"/>
      <point x="248" y="423"/>
      <point x="279" y="569"/>
      <point x="299" y="737" type="curve"/>
      <point x="261" y="730" type="line"/>
      <point x="302" y="629"/>
      <point x="341" y="493"/>
      <point x="354" y="356" type="curve"/>
      <point x="380" y="400" type="line"/>
      <point x="308" y="400"/>
      <point x="244" y="389"/>
      <point x="191" y="371" type="curve"/>
      <point x="164" y="375" type="line"/>
      <point x="73" y="336"/>
      <point x="20" y="259"/>
      <point x="20" y="173" type="curve" smooth="yes"/>
      <point x="20" y="59"/>
      <point x="111" y="-11"/>
    </contour>
  </outline>
</glyph>
<glyph name="q-medf" format="2">
  <advance width="648"/>
  <unicode hex="16E75"/>
  <guideline y="336"/>
  <outline>
    <contour>
      <point x="253" y="-11" type="curve" smooth="yes"/>
      <point x="420" y="-11"/>
      <point x="501" y="74"/>
      <point x="501" y="227" type="curve" smooth="yes"/>
      <point x="501" y="253"/>
      <point x="500" y="283"/>
      <point x="500" y="308" type="curve" smooth="yes"/>
      <point x="500" y="407"/>
      <point x="525" y="436"/>
      <point x="581" y="440" type="curve"/>
      <point x="581" y="545" type="line"/>
      <point x="336" y="545" type="line" smooth="yes"/>
      <point x="168" y="545"/>
      <point x="93" y="456"/>
      <point x="76" y="298" type="curve" smooth="yes"/>
      <point x="67" y="216" type="line"/>
      <point x="182" y="208" type="line"/>
      <point x="192" y="294" type="line" smooth="yes"/>
      <point x="204" y="400"/>
      <point x="242" y="440"/>
      <point x="336" y="440" type="curve" smooth="yes"/>
      <point x="480" y="440" type="line"/>
      <point x="458" y="461" type="line"/>
      <point x="381" y="448"/>
      <point x="372" y="391"/>
      <point x="372" y="308" type="curve" smooth="yes"/>
      <point x="372" y="283"/>
      <point x="373" y="253"/>
      <point x="373" y="227" type="curve" smooth="yes"/>
      <point x="373" y="164"/>
      <point x="339" y="105"/>
      <point x="253" y="105" type="curve" smooth="yes"/>
      <point x="199" y="105"/>
      <point x="156" y="125"/>
      <point x="126" y="152" type="curve"/>
      <point x="47" y="62" type="line"/>
      <point x="86" y="19"/>
      <point x="153" y="-11"/>
    </contour>
    <contour>
      <point x="33" y="248" type="line"/>
      <point x="99" y="252"/>
      <point x="206" y="254"/>
      <point x="321" y="254" type="curve" smooth="yes"/>
      <point x="423" y="254"/>
      <point x="532" y="252"/>
      <point x="628" y="248" type="curve"/>
      <point x="628" y="342" type="line"/>
      <point x="545" y="347"/>
      <point x="456" y="349"/>
      <point x="370" y="349" type="curve" smooth="yes"/>
      <point x="237" y="349"/>
      <point x="111" y="344"/>
      <point x="25" y="338" type="curve"/>
    </contour>
  </outline>
</glyph>
<glyph name="h-medf" format="2">
  <advance width="487"/>
  <unicode hex="16E76"/>
  <outline>
    <contour>
      <point x="169" y="-5" type="line"/>
      <point x="257" y="103"/>
      <point x="406" y="331"/>
      <point x="476" y="486" type="curve"/>
      <point x="370" y="524" type="line"/>
      <point x="340" y="475"/>
      <point x="297" y="447"/>
      <point x="233" y="447" type="curve" smooth="yes"/>
      <point x="188" y="447"/>
      <point x="156" y="439"/>
      <point x="126" y="415" type="curve"/>
      <point x="152" y="398" type="line"/>
      <point x="185" y="447"/>
      <point x="200" y="495"/>
      <point x="216" y="564" type="curve" smooth="yes"/>
      <point x="240" y="664"/>
      <point x="265" y="720"/>
      <point x="314" y="720" type="curve" smooth="yes"/>
      <point x="348" y="720"/>
      <point x="363" y="700"/>
      <point x="363" y="678" type="curve" smooth="yes"/>
      <point x="363" y="667"/>
      <point x="360" y="655"/>
      <point x="354" y="644" type="curve"/>
      <point x="461" y="620" type="line"/>
      <point x="471" y="641"/>
      <point x="477" y="669"/>
      <point x="477" y="689" type="curve" smooth="yes"/>
      <point x="477" y="769"/>
      <point x="409" y="818"/>
      <point x="314" y="818" type="curve" smooth="yes"/>
      <point x="199" y="818"/>
      <point x="134" y="749"/>
      <point x="97" y="593" type="curve" smooth="yes"/>
      <point x="73" y="491"/>
      <point x="60" y="451"/>
      <point x="25" y="391" type="curve"/>
      <point x="92" y="306" type="line"/>
      <point x="109" y="319"/>
      <point x="130" y="331"/>
      <point x="170" y="331" type="curve" smooth="yes"/>
      <point x="233" y="331"/>
      <point x="259" y="332"/>
      <point x="316" y="381" type="curve"/>
      <point x="289" y="389" type="line"/>
      <point x="221" y="282"/>
      <point x="126" y="154"/>
      <point x="62" y="78" type="curve"/>
    </contour>
  </outline>
</glyph>
<glyph name="x-medf" format="2">
	<unicode hex="16E78"/>
	<advance width="816"/>
	<outline>
		<contour>
			<point x="239" y="-11" type="curve" smooth="yes"/>
			<point x="292" y="-11"/>
			<point x="337" y="4"/>
			<point x="358" y="23" type="curve"/>
			<point x="304" y="120" type="line"/>
			<point x="292" y="111"/>
			<point x="271" y="104"/>
			<point x="250" y="104" type="curve" smooth="yes"/>
			<point x="202" y="104"/>
			<point x="168" y="156"/>
			<point x="168" y="228" type="curve" smooth="yes"/>
			<point x="168" y="360"/>
			<point x="267" y="446"/>
			<point x="409" y="446" type="curve" smooth="yes"/>
			<point x="567" y="446"/>
			<point x="648" y="351"/>
			<point x="648" y="228" type="curve" smooth="yes"/>
			<point x="648" y="156"/>
			<point x="615" y="104"/>
			<point x="567" y="104" type="curve" smooth="yes"/>
			<point x="549" y="104"/>
			<point x="531" y="110"/>
			<point x="519" y="119" type="curve"/>
			<point x="465" y="22" type="line"/>
			<point x="486" y="3"/>
			<point x="525" y="-11"/>
			<point x="578" y="-11" type="curve" smooth="yes"/>
			<point x="715" y="-11"/>
			<point x="786" y="94"/>
			<point x="786" y="228" type="curve" smooth="yes"/>
			<point x="786" y="430"/>
			<point x="625" y="557"/>
			<point x="409" y="557" type="curve" smooth="yes"/>
			<point x="195" y="557"/>
			<point x="30" y="423"/>
			<point x="30" y="228" type="curve" smooth="yes"/>
			<point x="30" y="94"/>
			<point x="102" y="-11"/>
		</contour>
		<contour>
			<point x="464" y="283" type="line"/>
			<point x="466" y="316"/>
			<point x="469" y="425"/>
			<point x="469" y="458" type="curve" smooth="yes"/>
			<point x="469" y="514"/>
			<point x="469" y="621"/>
			<point x="466" y="678" type="curve"/>
			<point x="348" y="678" type="line"/>
			<point x="351" y="621"/>
			<point x="351" y="515"/>
			<point x="351" y="459" type="curve" smooth="yes"/>
			<point x="351" y="425"/>
			<point x="350" y="316"/>
			<point x="348" y="283" type="curve"/>
		</contour>
	</outline>
</glyph>
<glyph name="d-medf" format="2">
  <advance width="576"/>
  <unicode hex="16E79"/>
  <outline>
    <contour>
      <point x="203" y="0" type="line"/>
      <point x="213" y="165"/>
      <point x="217" y="355"/>
      <point x="212" y="519" type="curve"/>
      <point x="118" y="435" type="line"/>
      <point x="203" y="440"/>
      <point x="208" y="440"/>
      <point x="266" y="440" type="curve" smooth="yes"/>
      <point x="358" y="440"/>
      <point x="402" y="416"/>
      <point x="402" y="365" type="curve" smooth="yes"/>
      <point x="402" y="310"/>
      <point x="351" y="274"/>
      <point x="265" y="267" type="curve"/>
      <point x="277" y="155" type="line"/>
      <point x="452" y="164"/>
      <point x="556" y="243"/>
      <point x="556" y="366" type="curve" smooth="yes"/>
      <point x="556" y="490"/>
      <point x="460" y="552"/>
      <point x="266" y="552" type="curve" smooth="yes"/>
      <point x="198" y="552"/>
      <point x="108" y="547"/>
      <point x="67" y="542" type="curve"/>
      <point x="73" y="425"/>
      <point x="73" y="401"/>
      <point x="65" y="0" type="curve"/>
    </contour>
  </outline>
</glyph>
<glyph name="oe-medf" format="2">
	<unicode hex="16E7A"/>
	<advance width="637"/>
	<outline>
		<contour>
			<point x="613" y="79" type="line"/>
			<point x="474" y="244"/>
			<point x="302" y="414"/>
			<point x="128" y="555" type="curve"/>
			<point x="32" y="471" type="line"/>
			<point x="219" y="314"/>
			<point x="384" y="152"/>
			<point x="517" y="-5" type="curve"/>
		</contour>
		<contour>
			<point x="408" y="254" type="line"/>
			<point x="491" y="324"/>
			<point x="580" y="412"/>
			<point x="627" y="472" type="curve"/>
			<point x="528" y="555" type="line"/>
			<point x="479" y="496"/>
			<point x="396" y="411"/>
			<point x="322" y="343" type="curve"/>
		</contour>
		<contour>
			<point x="96" y="-5" type="line"/>
			<point x="191" y="63"/>
			<point x="283" y="139"/>
			<point x="368" y="223" type="curve"/>
			<point x="280" y="309" type="line"/>
			<point x="194" y="228"/>
			<point x="122" y="170"/>
			<point x="10" y="88" type="curve"/>
		</contour>
		<contour>
			<point x="337" y="594" type="curve" smooth="yes"/>
			<point x="388" y="594"/>
			<point x="420" y="627"/>
			<point x="420" y="677" type="curve" smooth="yes"/>
			<point x="420" y="728"/>
			<point x="388" y="760"/>
			<point x="337" y="760" type="curve" smooth="yes"/>
			<point x="287" y="760"/>
			<point x="254" y="728"/>
			<point x="254" y="677" type="curve" smooth="yes"/>
			<point x="254" y="627"/>
			<point x="287" y="594"/>
		</contour>
	</outline>
</glyph>
<glyph name="n-medf" format="2">
	<unicode hex="16E7B"/>
	<advance width="554"/>
	<outline>
		<contour>
			<point x="230" y="-11" type="curve" smooth="yes"/>
			<point x="411" y="-11"/>
			<point x="519" y="124"/>
			<point x="519" y="286" type="curve" smooth="yes"/>
			<point x="519" y="454"/>
			<point x="417" y="557"/>
			<point x="256" y="557" type="curve" smooth="yes"/>
			<point x="145" y="557"/>
			<point x="49" y="485"/>
			<point x="49" y="387" type="curve" smooth="yes"/>
			<point x="49" y="356"/>
			<point x="59" y="329"/>
			<point x="81" y="300" type="curve"/>
			<point x="199" y="353" type="line"/>
			<point x="190" y="365"/>
			<point x="186" y="378"/>
			<point x="186" y="388" type="curve" smooth="yes"/>
			<point x="186" y="418"/>
			<point x="211" y="443"/>
			<point x="256" y="443" type="curve" smooth="yes"/>
			<point x="321" y="443"/>
			<point x="374" y="392"/>
			<point x="374" y="284" type="curve" smooth="yes"/>
			<point x="374" y="179"/>
			<point x="308" y="103"/>
			<point x="233" y="103" type="curve" smooth="yes"/>
			<point x="190" y="103"/>
			<point x="162" y="125"/>
			<point x="156" y="164" type="curve"/>
			<point x="25" y="143" type="line"/>
			<point x="25" y="39"/>
			<point x="106" y="-11"/>
		</contour>
	</outline>
</glyph>
<glyph name="r-medf" format="2">
	<unicode hex="16E7C"/>
	<advance width="686"/>
	<outline>
		<contour>
			<point x="345" y="-10" type="line"/>
			<point x="462" y="62"/>
			<point x="577" y="190"/>
			<point x="577" y="342" type="curve" smooth="yes"/>
			<point x="577" y="434"/>
			<point x="518" y="489"/>
			<point x="434" y="489" type="curve" smooth="yes"/>
			<point x="359" y="489"/>
			<point x="300" y="438"/>
			<point x="300" y="367" type="curve" smooth="yes"/>
			<point x="300" y="304"/>
			<point x="352" y="243"/>
			<point x="456" y="243" type="curve" smooth="yes"/>
			<point x="554" y="243"/>
			<point x="634" y="281"/>
			<point x="681" y="341" type="curve"/>
			<point x="619" y="403" type="line"/>
			<point x="580" y="362"/>
			<point x="536" y="325"/>
			<point x="456" y="325" type="curve" smooth="yes"/>
			<point x="410" y="325"/>
			<point x="395" y="346"/>
			<point x="395" y="368" type="curve" smooth="yes"/>
			<point x="395" y="391"/>
			<point x="411" y="406"/>
			<point x="432" y="406" type="curve" smooth="yes"/>
			<point x="457" y="406"/>
			<point x="477" y="388"/>
			<point x="477" y="343" type="curve" smooth="yes"/>
			<point x="477" y="265"/>
			<point x="402" y="143"/>
			<point x="291" y="73" type="curve"/>
			<point x="350" y="38" type="line"/>
			<point x="375" y="227"/>
			<point x="251" y="383"/>
			<point x="96" y="426" type="curve"/>
			<point x="66" y="359" type="line"/>
			<point x="113" y="384"/>
			<point x="212" y="421"/>
			<point x="289" y="442" type="curve"/>
			<point x="256" y="556" type="line"/>
			<point x="185" y="538"/>
			<point x="53" y="480"/>
			<point x="5" y="446" type="curve"/>
			<point x="29" y="338" type="line"/>
			<point x="148" y="294"/>
			<point x="248" y="202"/>
			<point x="230" y="34" type="curve"/>
		</contour>
	</outline>
</glyph>
<glyph name="o-medf" format="2">
	<unicode hex="16E7D"/>
	<advance width="653"/>
	<outline>
		<contour>
			<point x="631" y="84" type="line"/>
			<point x="529" y="152"/>
			<point x="433" y="223"/>
			<point x="349" y="292" type="curve" smooth="yes"/>
			<point x="289" y="342"/>
			<point x="235" y="383"/>
			<point x="130" y="460" type="curve"/>
			<point x="135" y="403" type="line"/>
			<point x="194" y="429"/>
			<point x="257" y="443"/>
			<point x="321" y="443" type="curve" smooth="yes"/>
			<point x="396" y="443"/>
			<point x="463" y="427"/>
			<point x="528" y="397" type="curve"/>
			<point x="540" y="456" type="line"/>
			<point x="485" y="418"/>
			<point x="370" y="332"/>
			<point x="323" y="295" type="curve"/>
			<point x="413" y="217" type="line"/>
			<point x="512" y="299"/>
			<point x="582" y="352"/>
			<point x="638" y="389" type="curve"/>
			<point x="633" y="474" type="line"/>
			<point x="556" y="527"/>
			<point x="447" y="557"/>
			<point x="321" y="557" type="curve" smooth="yes"/>
			<point x="193" y="557"/>
			<point x="82" y="526"/>
			<point x="15" y="474" type="curve"/>
			<point x="35" y="389" type="line"/>
			<point x="94" y="348"/>
			<point x="155" y="299"/>
			<point x="255" y="213" type="curve" smooth="yes"/>
			<point x="392" y="94"/>
			<point x="461" y="40"/>
			<point x="538" y="-10" type="curve"/>
		</contour>
		<contour>
			<point x="119" y="-10" type="line"/>
			<point x="199" y="45"/>
			<point x="285" y="114"/>
			<point x="389" y="205" type="curve"/>
			<point x="302" y="287" type="line"/>
			<point x="176" y="184"/>
			<point x="105" y="129"/>
			<point x="39" y="85" type="curve"/>
		</contour>
	</outline>
</glyph>
<glyph name="ai-medf" format="2">
	<unicode hex="16E7E"/>
	<advance width="533"/>
	<outline>
		<contour>
			<point x="62" y="-11" type="line"/>
			<point x="359" y="-11"/>
			<point x="498" y="93"/>
			<point x="498" y="245" type="curve" smooth="yes"/>
			<point x="498" y="364"/>
			<point x="395" y="443"/>
			<point x="234" y="449" type="curve"/>
			<point x="235" y="433" type="line"/>
			<point x="390" y="456"/>
			<point x="490" y="535"/>
			<point x="490" y="638" type="curve" smooth="yes"/>
			<point x="490" y="737"/>
			<point x="403" y="818"/>
			<point x="255" y="818" type="curve" smooth="yes"/>
			<point x="177" y="818"/>
			<point x="103" y="795"/>
			<point x="47" y="750" type="curve"/>
			<point x="120" y="664" type="line"/>
			<point x="156" y="691"/>
			<point x="205" y="706"/>
			<point x="250" y="706" type="curve" smooth="yes"/>
			<point x="313" y="706"/>
			<point x="348" y="667"/>
			<point x="348" y="630" type="curve" smooth="yes"/>
			<point x="348" y="545"/>
			<point x="230" y="498"/>
			<point x="63" y="466" type="curve"/>
			<point x="75" y="380" type="line"/>
			<point x="270" y="380"/>
			<point x="350" y="341"/>
			<point x="350" y="259" type="curve" smooth="yes"/>
			<point x="350" y="172"/>
			<point x="267" y="107"/>
			<point x="62" y="107" type="curve"/>
		</contour>
	</outline>
</glyph>
<glyph name="y-medf" format="2">
	<unicode hex="16E7F"/>
	<advance width="654"/>
	<outline>
		<contour>
			<point x="456" y="-110" type="line"/>
			<point x="452" y="45"/>
			<point x="452" y="211"/>
			<point x="458" y="398" type="curve"/>
			<point x="327" y="398" type="line"/>
			<point x="323" y="269"/>
			<point x="324" y="112"/>
			<point x="331" y="-110" type="curve"/>
		</contour>
		<contour>
			<point x="41" y="8" type="line"/>
			<point x="128" y="22"/>
			<point x="230" y="29"/>
			<point x="332" y="29" type="curve" smooth="yes"/>
			<point x="421" y="29"/>
			<point x="541" y="22"/>
			<point x="640" y="12" type="curve"/>
			<point x="649" y="124" type="line"/>
			<point x="562" y="134"/>
			<point x="430" y="142"/>
			<point x="332" y="142" type="curve" smooth="yes"/>
			<point x="222" y="142"/>
			<point x="149" y="136"/>
			<point x="82" y="120" type="curve"/>
			<point x="118" y="38" type="line"/>
			<point x="157" y="164"/>
			<point x="254" y="400"/>
			<point x="315" y="516" type="curve"/>
			<point x="203" y="557" type="line"/>
			<point x="157" y="473"/>
			<point x="54" y="224"/>
			<point x="15" y="105" type="curve"/>
		</contour>
	</outline>
</glyph>
<glyph name="zero-medf" format="2">
	<unicode hex="16E80"/>
	<advance width="598"/>
	<outline>
		<contour>
			<point x="115" y="312" type="line"/>
			<point x="170" y="314"/>
			<point x="224" y="315"/>
			<point x="278" y="315" type="curve" smooth="yes"/>
			<point x="344" y="315"/>
			<point x="411" y="314"/>
			<point x="477" y="311" type="curve"/>
			<point x="477" y="411" type="line"/>
			<point x="433" y="412"/>
			<point x="389" y="413"/>
			<point x="346" y="413" type="curve" smooth="yes"/>
			<point x="267" y="413"/>
			<point x="189" y="411"/>
			<point x="115" y="407" type="curve"/>
		</contour>
		<contour>
			<point x="299" y="102" type="curve" smooth="yes"/>
			<point x="230" y="102"/>
			<point x="190" y="164"/>
			<point x="190" y="357" type="curve" smooth="yes"/>
			<point x="190" y="550"/>
			<point x="230" y="611"/>
			<point x="299" y="611" type="curve" smooth="yes"/>
			<point x="368" y="611"/>
			<point x="408" y="549"/>
			<point x="408" y="356" type="curve" smooth="yes"/>
			<point x="408" y="163"/>
			<point x="368" y="102"/>
		</contour>
		<contour>
			<point x="299" y="-11" type="curve" smooth="yes"/>
			<point x="475" y="-11"/>
			<point x="553" y="126"/>
			<point x="553" y="356" type="curve" smooth="yes"/>
			<point x="553" y="586"/>
			<point x="475" y="724"/>
			<point x="299" y="724" type="curve" smooth="yes"/>
			<point x="123" y="724"/>
			<point x="45" y="587"/>
			<point x="45" y="357" type="curve" smooth="yes"/>
			<point x="45" y="127"/>
			<point x="123" y="-11"/>
		</contour>
	</outline>
</glyph>
<glyph name="one-medf" format="2">
  <advance width="568"/>
  <unicode hex="16E81"/>
  <outline>
    <contour>
      <point x="266" y="0" type="line"/>
      <point x="351" y="132"/>
      <point x="440" y="262"/>
      <point x="543" y="381" type="curve"/>
      <point x="543" y="480" type="line"/>
      <point x="461" y="474"/>
      <point x="370" y="470"/>
      <point x="277" y="470" type="curve" smooth="yes"/>
      <point x="190" y="470"/>
      <point x="102" y="473"/>
      <point x="15" y="480" type="curve"/>
      <point x="15" y="369" type="line"/>
      <point x="96" y="365"/>
      <point x="175" y="363"/>
      <point x="251" y="363" type="curve" smooth="yes"/>
      <point x="327" y="363"/>
      <point x="400" y="365"/>
      <point x="472" y="369" type="curve"/>
      <point x="454" y="421" type="line"/>
      <point x="353" y="312"/>
      <point x="280" y="199"/>
      <point x="212" y="84" type="curve"/>
      <point x="264" y="92" type="line"/>
      <point x="281" y="292"/>
      <point x="279" y="506"/>
      <point x="273" y="713" type="curve"/>
      <point x="156" y="713" type="line"/>
      <point x="161" y="474"/>
      <point x="162" y="234"/>
      <point x="147" y="0" type="curve"/>
    </contour>
  </outline>
</glyph>
<glyph name="two-medf" format="2">
	<unicode hex="16E82"/>
	<advance width="568"/>
	<outline>
		<contour>
			<point x="412" y="0" type="line"/>
			<point x="407" y="239"/>
			<point x="406" y="479"/>
			<point x="421" y="713" type="curve"/>
			<point x="302" y="713" type="line"/>
			<point x="217" y="581"/>
			<point x="128" y="452"/>
			<point x="25" y="333" type="curve"/>
			<point x="25" y="234" type="line"/>
			<point x="107" y="240"/>
			<point x="198" y="244"/>
			<point x="291" y="244" type="curve" smooth="yes"/>
			<point x="378" y="244"/>
			<point x="466" y="241"/>
			<point x="553" y="234" type="curve"/>
			<point x="553" y="345" type="line"/>
			<point x="472" y="349"/>
			<point x="393" y="351"/>
			<point x="317" y="351" type="curve" smooth="yes"/>
			<point x="241" y="351"/>
			<point x="167" y="349"/>
			<point x="96" y="345" type="curve"/>
			<point x="114" y="293" type="line"/>
			<point x="215" y="402"/>
			<point x="288" y="514"/>
			<point x="356" y="629" type="curve"/>
			<point x="304" y="621" type="line"/>
			<point x="287" y="421"/>
			<point x="289" y="207"/>
			<point x="295" y="0" type="curve"/>
		</contour>
	</outline>
</glyph>
<glyph name="three-medf" format="2">
	<unicode hex="16E83"/>
	<advance width="568"/>
	<outline>
		<contour>
			<point x="273" y="0" type="line"/>
			<point x="279" y="207"/>
			<point x="281" y="421"/>
			<point x="264" y="621" type="curve"/>
			<point x="212" y="629" type="line"/>
			<point x="280" y="514"/>
			<point x="353" y="402"/>
			<point x="454" y="293" type="curve"/>
			<point x="472" y="345" type="line"/>
			<point x="400" y="349"/>
			<point x="327" y="351"/>
			<point x="251" y="351" type="curve" smooth="yes"/>
			<point x="175" y="351"/>
			<point x="96" y="349"/>
			<point x="15" y="345" type="curve"/>
			<point x="15" y="234" type="line"/>
			<point x="102" y="241"/>
			<point x="190" y="244"/>
			<point x="277" y="244" type="curve" smooth="yes"/>
			<point x="370" y="244"/>
			<point x="461" y="240"/>
			<point x="543" y="234" type="curve"/>
			<point x="543" y="333" type="line"/>
			<point x="440" y="452"/>
			<point x="351" y="581"/>
			<point x="266" y="713" type="curve"/>
			<point x="147" y="713" type="line"/>
			<point x="162" y="479"/>
			<point x="161" y="239"/>
			<point x="156" y="0" type="curve"/>
		</contour>
	</outline>
</glyph>
<glyph name="four-medf" format="2">
	<unicode hex="16E84"/>
	<advance width="638"/>
	<outline>
		<contour>
			<point x="345" y="-5" type="line"/>
			<point x="414" y="201"/>
			<point x="535" y="448"/>
			<point x="636" y="610" type="curve"/>
			<point x="631" y="709" type="line"/>
			<point x="530" y="715"/>
			<point x="433" y="718"/>
			<point x="335" y="718" type="curve" smooth="yes"/>
			<point x="229" y="718"/>
			<point x="122" y="715"/>
			<point x="8" y="709" type="curve"/>
			<point x="2" y="611" type="line"/>
			<point x="63" y="490"/>
			<point x="163" y="195"/>
			<point x="194" y="5" type="curve"/>
		</contour>
		<contour>
			<point x="296" y="48" type="line"/>
			<point x="271" y="234"/>
			<point x="187" y="493"/>
			<point x="129" y="632" type="curve"/>
			<point x="48" y="594" type="line"/>
			<point x="131" y="599"/>
			<point x="216" y="602"/>
			<point x="300" y="602" type="curve" smooth="yes"/>
			<point x="377" y="602"/>
			<point x="452" y="600"/>
			<point x="526" y="594" type="curve"/>
			<point x="523" y="652" type="line"/>
			<point x="444" y="531"/>
			<point x="289" y="221"/>
			<point x="247" y="57" type="curve"/>
		</contour>
		<contour>
			<point x="305" y="430" type="curve" smooth="yes"/>
			<point x="337" y="430"/>
			<point x="366" y="449"/>
			<point x="366" y="489" type="curve" smooth="yes"/>
			<point x="366" y="531"/>
			<point x="337" y="550"/>
			<point x="305" y="550" type="curve" smooth="yes"/>
			<point x="272" y="550"/>
			<point x="246" y="531"/>
			<point x="246" y="489" type="curve" smooth="yes"/>
			<point x="246" y="449"/>
			<point x="272" y="430"/>
		</contour>
	</outline>
</glyph>
<glyph name="six-medf" format="2">
  <advance width="596"/>
  <unicode hex="16E86"/>
  <outline>
    <contour>
      <point x="367" y="-11" type="curve" smooth="yes"/>
      <point x="483" y="-11"/>
      <point x="566" y="57"/>
      <point x="566" y="153" type="curve" smooth="yes"/>
      <point x="566" y="184"/>
      <point x="556" y="215"/>
      <point x="539" y="235" type="curve"/>
      <point x="424" y="186" type="line"/>
      <point x="431" y="176"/>
      <point x="434" y="165"/>
      <point x="434" y="154" type="curve" smooth="yes"/>
      <point x="434" y="122"/>
      <point x="406" y="99"/>
      <point x="367" y="99" type="curve" smooth="yes"/>
      <point x="315" y="99"/>
      <point x="287" y="134"/>
      <point x="287" y="198" type="curve" smooth="yes"/>
      <point x="287" y="320"/>
      <point x="302" y="342"/>
      <point x="558" y="644" type="curve"/>
      <point x="461" y="720" type="line"/>
      <point x="218" y="424"/>
      <point x="158" y="321"/>
      <point x="158" y="189" type="curve" smooth="yes"/>
      <point x="158" y="58"/>
      <point x="230" y="-11"/>
    </contour>
    <contour>
      <point x="36" y="314" type="line"/>
      <point x="107" y="319"/>
      <point x="185" y="321"/>
      <point x="271" y="321" type="curve" smooth="yes"/>
      <point x="349" y="321"/>
      <point x="435" y="319"/>
      <point x="531" y="314" type="curve"/>
      <point x="531" y="421" type="line"/>
      <point x="450" y="425"/>
      <point x="366" y="427"/>
      <point x="279" y="427" type="curve" smooth="yes"/>
      <point x="198" y="427"/>
      <point x="116" y="425"/>
      <point x="36" y="421" type="curve"/>
    </contour>
    <contour>
      <point x="331" y="421" type="line"/>
      <point x="294" y="485"/>
      <point x="207" y="606"/>
      <point x="121" y="720" type="curve"/>
      <point x="20" y="646" type="line"/>
      <point x="104" y="540"/>
      <point x="169" y="458"/>
      <point x="243" y="353" type="curve"/>
    </contour>
  </outline>
</glyph>
<glyph name="seven-medf" format="2">
  <advance width="627"/>
  <unicode hex="16E87"/>
  <guideline y="321"/>
  <outline>
    <contour>
      <point x="371" y="0" type="line"/>
      <point x="436" y="71"/>
      <point x="498" y="131"/>
      <point x="612" y="233" type="curve"/>
      <point x="530" y="321" type="line"/>
      <point x="433" y="230"/>
      <point x="388" y="184"/>
      <point x="348" y="134" type="curve"/>
      <point x="381" y="71" type="line"/>
      <point x="375" y="293"/>
      <point x="376" y="479"/>
      <point x="384" y="713" type="curve"/>
      <point x="240" y="713" type="line"/>
      <point x="234" y="532"/>
      <point x="235" y="332"/>
      <point x="242" y="71" type="curve"/>
      <point x="277" y="134" type="line"/>
      <point x="221" y="200"/>
      <point x="167" y="258"/>
      <point x="99" y="321" type="curve"/>
      <point x="15" y="235" type="line"/>
      <point x="163" y="96"/>
      <point x="197" y="63"/>
      <point x="254" y="0" type="curve"/>
    </contour>
  </outline>
</glyph>
<glyph name="eight-medf" format="2">
	<unicode hex="16E88"/>
	<advance width="627"/>
	<outline>
		<contour>
			<point x="384" y="0" type="line"/>
			<point x="376" y="234"/>
			<point x="375" y="420"/>
			<point x="381" y="642" type="curve"/>
			<point x="348" y="579" type="line"/>
			<point x="388" y="529"/>
			<point x="433" y="484"/>
			<point x="530" y="393" type="curve"/>
			<point x="612" y="481" type="line"/>
			<point x="498" y="583"/>
			<point x="436" y="642"/>
			<point x="371" y="713" type="curve"/>
			<point x="254" y="713" type="line"/>
			<point x="197" y="650"/>
			<point x="163" y="618"/>
			<point x="15" y="479" type="curve"/>
			<point x="99" y="393" type="line"/>
			<point x="167" y="456"/>
			<point x="221" y="513"/>
			<point x="277" y="579" type="curve"/>
			<point x="242" y="642" type="line"/>
			<point x="235" y="381"/>
			<point x="234" y="181"/>
			<point x="240" y="0" type="curve"/>
		</contour>
	</outline>
</glyph>
<glyph name="nine-medf" format="2">
	<unicode hex="16E89"/>
	<advance width="687"/>
	<outline>
		<contour>
			<point x="672" y="108" type="line"/>
			<point x="639" y="225"/>
			<point x="631" y="254"/>
			<point x="538" y="703" type="curve"/>
			<point x="402" y="716" type="line"/>
			<point x="358" y="504"/>
			<point x="291" y="248"/>
			<point x="236" y="74" type="curve"/>
			<point x="358" y="47" type="line"/>
			<point x="403" y="213"/>
			<point x="465" y="498"/>
			<point x="488" y="647" type="curve"/>
			<point x="441" y="656" type="line"/>
			<point x="462" y="502"/>
			<point x="515" y="244"/>
			<point x="559" y="70" type="curve"/>
			<point x="632" y="118" type="line"/>
			<point x="565" y="114"/>
			<point x="497" y="112"/>
			<point x="425" y="112" type="curve" smooth="yes"/>
			<point x="323" y="112"/>
			<point x="217" y="116"/>
			<point x="99" y="125" type="curve"/>
			<point x="143" y="79" type="line"/>
			<point x="212" y="278"/>
			<point x="268" y="469"/>
			<point x="321" y="700" type="curve"/>
			<point x="193" y="719" type="line"/>
			<point x="138" y="489"/>
			<point x="77" y="286"/>
			<point x="15" y="111" type="curve"/>
			<point x="25" y="4" type="line"/>
			<point x="145" y="-3"/>
			<point x="258" y="-7"/>
			<point x="367" y="-7" type="curve" smooth="yes"/>
			<point x="458" y="-7"/>
			<point x="555" y="-4"/>
			<point x="662" y="1" type="curve"/>
		</contour>
	</outline>
</glyph>
<glyph name="ten-medf" format="2">
	<unicode hex="16E8A"/>
	<advance width="551"/>
	<outline>
		<contour>
			<point x="476" y="406" type="line"/>
			<point x="402" y="407"/>
			<point x="362" y="408"/>
			<point x="322" y="408" type="curve" smooth="yes"/>
			<point x="261" y="408"/>
			<point x="199" y="407"/>
			<point x="78" y="404" type="curve"/>
			<point x="78" y="308" type="line"/>
			<point x="145" y="309"/>
			<point x="189" y="310"/>
			<point x="231" y="310" type="curve" smooth="yes"/>
			<point x="296" y="310"/>
			<point x="370" y="309"/>
			<point x="476" y="306" type="curve"/>
		</contour>
		<contour>
			<point x="210" y="-4" type="line"/>
			<point x="295" y="191"/>
			<point x="432" y="472"/>
			<point x="506" y="613" type="curve"/>
			<point x="500" y="711" type="line"/>
			<point x="387" y="717"/>
			<point x="314" y="720"/>
			<point x="240" y="720" type="curve" smooth="yes"/>
			<point x="176" y="720"/>
			<point x="108" y="718"/>
			<point x="15" y="714" type="curve"/>
			<point x="20" y="594" type="line"/>
			<point x="68" y="597"/>
			<point x="151" y="599"/>
			<point x="229" y="599" type="curve" smooth="yes"/>
			<point x="307" y="599"/>
			<point x="365" y="598"/>
			<point x="399" y="595" type="curve"/>
			<point x="392" y="654" type="line"/>
			<point x="334" y="557"/>
			<point x="230" y="353"/>
			<point x="84" y="35" type="curve"/>
		</contour>
	</outline>
</glyph>
<glyph name="eleven-medf" format="2">
  <advance width="596"/>
  <unicode hex="16E8B"/>
  <outline>
    <contour>
      <point x="210" y="0" type="line"/>
      <point x="221" y="219"/>
      <point x="227" y="465"/>
      <point x="217" y="713" type="curve"/>
      <point x="82" y="713" type="line"/>
      <point x="94" y="462"/>
      <point x="94" y="220"/>
      <point x="85" y="0" type="curve"/>
    </contour>
    <contour>
      <point x="494" y="0" type="line"/>
      <point x="504" y="219"/>
      <point x="509" y="465"/>
      <point x="501" y="713" type="curve"/>
      <point x="367" y="713" type="line"/>
      <point x="376" y="462"/>
      <point x="377" y="220"/>
      <point x="370" y="0" type="curve"/>
    </contour>
    <contour>
      <point x="556" y="438" type="line"/>
      <point x="486" y="441"/>
      <point x="408" y="443"/>
      <point x="328" y="443" type="curve" smooth="yes"/>
      <point x="231" y="443"/>
      <point x="131" y="440"/>
      <point x="40" y="436" type="curve"/>
      <point x="40" y="316" type="line"/>
      <point x="108" y="320"/>
      <point x="182" y="322"/>
      <point x="257" y="322" type="curve" smooth="yes"/>
      <point x="361" y="322"/>
      <point x="466" y="319"/>
      <point x="556" y="314" type="curve"/>
    </contour>
  </outline>
</glyph>
<glyph name="twelve-medf" format="2">
  <advance width="596"/>
  <unicode hex="16E8C"/>
  <outline>
    <contour>
      <point x="210" y="0" type="line"/>
      <point x="221" y="219"/>
      <point x="227" y="465"/>
      <point x="217" y="713" type="curve"/>
      <point x="82" y="713" type="line"/>
      <point x="94" y="462"/>
      <point x="94" y="220"/>
      <point x="85" y="0" type="curve"/>
    </contour>
    <contour>
      <point x="494" y="0" type="line"/>
      <point x="504" y="219"/>
      <point x="509" y="465"/>
      <point x="501" y="713" type="curve"/>
      <point x="367" y="713" type="line"/>
      <point x="376" y="462"/>
      <point x="377" y="220"/>
      <point x="370" y="0" type="curve"/>
    </contour>
    <contour>
      <point x="556" y="329" type="line"/>
      <point x="486" y="332"/>
      <point x="408" y="334"/>
      <point x="328" y="334" type="curve" smooth="yes"/>
      <point x="231" y="334"/>
      <point x="131" y="331"/>
      <point x="40" y="327" type="curve"/>
      <point x="40" y="225" type="line"/>
      <point x="108" y="229"/>
      <point x="182" y="231"/>
      <point x="257" y="231" type="curve" smooth="yes"/>
      <point x="361" y="231"/>
      <point x="466" y="228"/>
      <point x="556" y="223" type="curve"/>
    </contour>
    <contour>
      <point x="556" y="528" type="line"/>
      <point x="486" y="531"/>
      <point x="408" y="533"/>
      <point x="328" y="533" type="curve" smooth="yes"/>
      <point x="231" y="533"/>
      <point x="131" y="530"/>
      <point x="40" y="526" type="curve"/>
      <point x="40" y="424" type="line"/>
      <point x="108" y="428"/>
      <point x="182" y="430"/>
      <point x="257" y="430" type="curve" smooth="yes"/>
      <point x="361" y="430"/>
      <point x="466" y="427"/>
      <point x="556" y="422" type="curve"/>
    </contour>
  </outline>
</glyph>
<glyph name="thirteen-medf" format="2">
  <advance width="759"/>
  <unicode hex="16E8D"/>
  <outline>
    <contour>
      <point x="204" y="0" type="line"/>
      <point x="215" y="219"/>
      <point x="221" y="465"/>
      <point x="211" y="713" type="curve"/>
      <point x="82" y="713" type="line"/>
      <point x="94" y="462"/>
      <point x="94" y="220"/>
      <point x="85" y="0" type="curve"/>
    </contour>
    <contour>
      <point x="431" y="0" type="line"/>
      <point x="441" y="219"/>
      <point x="446" y="465"/>
      <point x="438" y="713" type="curve"/>
      <point x="309" y="713" type="line"/>
      <point x="318" y="462"/>
      <point x="319" y="220"/>
      <point x="312" y="0" type="curve"/>
    </contour>
    <contour>
      <point x="657" y="0" type="line"/>
      <point x="667" y="219"/>
      <point x="672" y="465"/>
      <point x="664" y="713" type="curve"/>
      <point x="535" y="713" type="line"/>
      <point x="544" y="462"/>
      <point x="545" y="220"/>
      <point x="538" y="0" type="curve"/>
    </contour>
    <contour>
      <point x="719" y="438" type="line"/>
      <point x="649" y="441"/>
      <point x="538" y="443"/>
      <point x="422" y="443" type="curve" smooth="yes"/>
      <point x="280" y="443"/>
      <point x="131" y="440"/>
      <point x="40" y="436" type="curve"/>
      <point x="40" y="316" type="line"/>
      <point x="108" y="320"/>
      <point x="211" y="322"/>
      <point x="319" y="322" type="curve" smooth="yes"/>
      <point x="469" y="322"/>
      <point x="629" y="319"/>
      <point x="719" y="314" type="curve"/>
    </contour>
  </outline>
</glyph>
<glyph name="fourteen-medf" format="2">
	<unicode hex="16E8E"/>
	<advance width="636"/>
	<outline>
		<contour>
			<point x="565" y="96" type="line"/>
			<point x="507" y="217"/>
			<point x="475" y="263"/>
			<point x="393" y="364" type="curve" smooth="yes"/>
			<point x="380" y="380" type="line"/>
			<point x="264" y="351" type="line"/>
			<point x="277" y="335" type="line" smooth="yes"/>
			<point x="346" y="245"/>
			<point x="392" y="176"/>
			<point x="431" y="90" type="curve"/>
			<point x="445" y="145" type="line"/>
			<point x="338" y="175"/>
			<point x="176" y="211"/>
			<point x="36" y="236" type="curve"/>
			<point x="15" y="110" type="line"/>
			<point x="157" y="86"/>
			<point x="378" y="38"/>
			<point x="538" y="-5" type="curve"/>
		</contour>
		<contour>
			<point x="591" y="349" type="line"/>
			<point x="494" y="375"/>
			<point x="383" y="403"/>
			<point x="285" y="425" type="curve"/>
			<point x="249" y="423" type="line"/>
			<point x="118" y="452"/>
			<point x="88" y="458"/>
			<point x="47" y="466" type="curve"/>
			<point x="28" y="359" type="line"/>
			<point x="114" y="343"/>
			<point x="229" y="318"/>
			<point x="347" y="289" type="curve"/>
			<point x="359" y="296" type="line"/>
			<point x="413" y="283"/>
			<point x="467" y="269"/>
			<point x="562" y="243" type="curve"/>
		</contour>
		<contour>
			<point x="365" y="385" type="line"/>
			<point x="352" y="401" type="line" smooth="yes"/>
			<point x="309" y="454"/>
			<point x="286" y="501"/>
			<point x="286" y="543" type="curve" smooth="yes"/>
			<point x="286" y="586"/>
			<point x="311" y="611"/>
			<point x="352" y="611" type="curve" smooth="yes"/>
			<point x="389" y="611"/>
			<point x="415" y="588"/>
			<point x="415" y="556" type="curve" smooth="yes"/>
			<point x="415" y="548"/>
			<point x="414" y="541"/>
			<point x="412" y="533" type="curve"/>
			<point x="540" y="512" type="line"/>
			<point x="544" y="529"/>
			<point x="546" y="546"/>
			<point x="546" y="562" type="curve" smooth="yes"/>
			<point x="546" y="660"/>
			<point x="469" y="724"/>
			<point x="349" y="724" type="curve" smooth="yes"/>
			<point x="227" y="724"/>
			<point x="146" y="654"/>
			<point x="146" y="549" type="curve" smooth="yes"/>
			<point x="146" y="496"/>
			<point x="164" y="461"/>
			<point x="236" y="372" type="curve" smooth="yes"/>
			<point x="249" y="356" type="line"/>
		</contour>
	</outline>
</glyph>
<glyph name="fifteen-medf" format="2">
  <advance width="746"/>
  <unicode hex="16E8F"/>
  <outline>
    <contour>
      <point x="130" y="-5" type="line"/>
      <point x="192" y="143"/>
      <point x="306" y="450"/>
      <point x="359" y="616" type="curve"/>
      <point x="385" y="616" type="line"/>
      <point x="427" y="486"/>
      <point x="554" y="142"/>
      <point x="614" y="-5" type="curve"/>
      <point x="738" y="31" type="line"/>
      <point x="665" y="204"/>
      <point x="541" y="512"/>
      <point x="464" y="712" type="curve"/>
      <point x="282" y="716" type="line"/>
      <point x="208" y="513"/>
      <point x="73" y="183"/>
      <point x="5" y="33" type="curve"/>
    </contour>
    <contour>
      <point x="424" y="0" type="line"/>
      <point x="416" y="259"/>
      <point x="414" y="483"/>
      <point x="419" y="688" type="curve"/>
      <point x="330" y="691" type="line"/>
      <point x="322" y="399"/>
      <point x="320" y="169"/>
      <point x="326" y="0" type="curve"/>
    </contour>
    <contour>
      <point x="594" y="282" type="line"/>
      <point x="511" y="286"/>
      <point x="457" y="287"/>
      <point x="405" y="287" type="curve" smooth="yes"/>
      <point x="346" y="287"/>
      <point x="288" y="285"/>
      <point x="168" y="280" type="curve"/>
      <point x="168" y="184" type="line"/>
      <point x="238" y="188"/>
      <point x="296" y="190"/>
      <point x="351" y="190" type="curve" smooth="yes"/>
      <point x="421" y="190"/>
      <point x="492" y="188"/>
      <point x="594" y="182" type="curve"/>
    </contour>
  </outline>
</glyph>
<glyph name="sixteen-medf" format="2">
	<unicode hex="16E90"/>
	<advance width="745"/>
	<outline>
		<contour>
			<point x="465" y="-11" type="curve" smooth="yes"/>
			<point x="587" y="-11"/>
			<point x="662" y="54"/>
			<point x="662" y="161" type="curve" smooth="yes"/>
			<point x="662" y="227"/>
			<point x="631" y="285"/>
			<point x="542" y="398" type="curve" smooth="yes"/>
			<point x="488" y="466"/>
			<point x="467" y="512"/>
			<point x="467" y="557" type="curve" smooth="yes"/>
			<point x="467" y="593"/>
			<point x="488" y="618"/>
			<point x="520" y="618" type="curve" smooth="yes"/>
			<point x="548" y="618"/>
			<point x="567" y="599"/>
			<point x="567" y="570" type="curve" smooth="yes"/>
			<point x="567" y="524"/>
			<point x="532" y="491"/>
			<point x="441" y="452" type="curve" smooth="yes"/>
			<point x="254" y="371"/>
			<point x="194" y="324"/>
			<point x="192" y="258" type="curve"/>
			<point x="233" y="258" type="line"/>
			<point x="229" y="446"/>
			<point x="231" y="566"/>
			<point x="239" y="713" type="curve"/>
			<point x="104" y="713" type="line"/>
			<point x="95" y="462"/>
			<point x="94" y="216"/>
			<point x="103" y="0" type="curve"/>
			<point x="235" y="0" type="line"/>
			<point x="235" y="110" type="line" smooth="yes"/>
			<point x="235" y="213"/>
			<point x="291" y="265"/>
			<point x="497" y="353" type="curve" smooth="yes"/>
			<point x="633" y="411"/>
			<point x="695" y="479"/>
			<point x="695" y="570" type="curve" smooth="yes"/>
			<point x="695" y="661"/>
			<point x="625" y="724"/>
			<point x="526" y="724" type="curve" smooth="yes"/>
			<point x="416" y="724"/>
			<point x="339" y="655"/>
			<point x="339" y="557" type="curve" smooth="yes"/>
			<point x="339" y="492"/>
			<point x="365" y="432"/>
			<point x="437" y="335" type="curve" smooth="yes"/>
			<point x="501" y="250"/>
			<point x="522" y="208"/>
			<point x="522" y="167" type="curve" smooth="yes"/>
			<point x="522" y="126"/>
			<point x="498" y="103"/>
			<point x="455" y="103" type="curve" smooth="yes"/>
			<point x="442" y="103"/>
			<point x="428" y="105"/>
			<point x="418" y="108" type="curve"/>
			<point x="407" y="-6" type="line"/>
			<point x="420" y="-9"/>
			<point x="445" y="-11"/>
		</contour>
	</outline>
</glyph>
<glyph name="seventeen-medf" format="2">
  <advance width="604"/>
  <unicode hex="16E91"/>
  <outline>
    <contour>
      <point x="35" y="310" type="line"/>
      <point x="111" y="315"/>
      <point x="191" y="317"/>
      <point x="267" y="317" type="curve" smooth="yes"/>
      <point x="360" y="317"/>
      <point x="468" y="314"/>
      <point x="550" y="310" type="curve"/>
      <point x="550" y="413" type="line"/>
      <point x="469" y="417"/>
      <point x="363" y="419"/>
      <point x="280" y="419" type="curve" smooth="yes"/>
      <point x="196" y="419"/>
      <point x="115" y="417"/>
      <point x="35" y="413" type="curve"/>
    </contour>
    <contour>
      <point x="74" y="-6" type="line"/>
      <point x="123" y="23"/>
      <point x="180" y="36"/>
      <point x="238" y="36" type="curve" smooth="yes"/>
      <point x="297" y="36"/>
      <point x="365" y="20"/>
      <point x="402" y="-5" type="curve"/>
      <point x="492" y="75" type="line"/>
      <point x="474" y="189"/>
      <point x="428" y="267"/>
      <point x="388" y="336" type="curve" smooth="yes"/>
      <point x="352" y="398"/>
      <point x="322" y="454"/>
      <point x="322" y="527" type="curve" smooth="yes"/>
      <point x="322" y="587"/>
      <point x="352" y="611"/>
      <point x="388" y="611" type="curve" smooth="yes"/>
      <point x="426" y="611"/>
      <point x="448" y="585"/>
      <point x="448" y="556" type="curve" smooth="yes"/>
      <point x="448" y="548"/>
      <point x="447" y="541"/>
      <point x="445" y="533" type="curve"/>
      <point x="573" y="512" type="line"/>
      <point x="577" y="529"/>
      <point x="579" y="546"/>
      <point x="579" y="562" type="curve" smooth="yes"/>
      <point x="579" y="656"/>
      <point x="507" y="724"/>
      <point x="388" y="724" type="curve" smooth="yes"/>
      <point x="273" y="724"/>
      <point x="191" y="649"/>
      <point x="191" y="527" type="curve" smooth="yes"/>
      <point x="191" y="447"/>
      <point x="227" y="379"/>
      <point x="268" y="304" type="curve" smooth="yes"/>
      <point x="304" y="239"/>
      <point x="343" y="167"/>
      <point x="366" y="82" type="curve"/>
      <point x="450" y="61" type="line"/>
      <point x="402" y="124"/>
      <point x="314" y="154"/>
      <point x="228" y="154" type="curve" smooth="yes"/>
      <point x="149" y="154"/>
      <point x="63" y="134"/>
      <point x="4" y="87" type="curve"/>
    </contour>
  </outline>
</glyph>
<glyph name="eighteen-medf" format="2">
  <advance width="592"/>
  <unicode hex="16E92"/>
  <outline>
    <contour>
      <point x="465" y="479" type="line"/>
      <point x="413" y="484"/>
      <point x="331" y="485"/>
      <point x="279" y="485" type="curve" smooth="yes"/>
      <point x="231" y="485"/>
      <point x="163" y="485"/>
      <point x="113" y="481" type="curve"/>
      <point x="113" y="384" type="line"/>
      <point x="162" y="388"/>
      <point x="218" y="389"/>
      <point x="262" y="389" type="curve" smooth="yes"/>
      <point x="321" y="389"/>
      <point x="410" y="387"/>
      <point x="465" y="381" type="curve"/>
    </contour>
    <contour>
      <point x="455" y="321" type="line"/>
      <point x="372" y="325"/>
      <point x="322" y="326"/>
      <point x="271" y="326" type="curve" smooth="yes"/>
      <point x="224" y="326"/>
      <point x="147" y="326"/>
      <point x="103" y="323" type="curve"/>
      <point x="103" y="226" type="line"/>
      <point x="169" y="229"/>
      <point x="218" y="230"/>
      <point x="265" y="230" type="curve" smooth="yes"/>
      <point x="320" y="230"/>
      <point x="373" y="228"/>
      <point x="455" y="223" type="curve"/>
    </contour>
    <contour>
      <point x="167" y="-11" type="curve" smooth="yes"/>
      <point x="292" y="-11"/>
      <point x="342" y="66"/>
      <point x="351" y="174" type="curve" smooth="yes"/>
      <point x="363" y="306"/>
      <point x="362" y="457"/>
      <point x="368" y="540" type="curve" smooth="yes"/>
      <point x="372" y="600"/>
      <point x="392" y="619"/>
      <point x="425" y="619" type="curve" smooth="yes"/>
      <point x="455" y="619"/>
      <point x="471" y="602"/>
      <point x="471" y="577" type="curve" smooth="yes"/>
      <point x="471" y="571"/>
      <point x="470" y="565"/>
      <point x="468" y="558" type="curve"/>
      <point x="584" y="540" type="line"/>
      <point x="588" y="555"/>
      <point x="590" y="569"/>
      <point x="590" y="583" type="curve" smooth="yes"/>
      <point x="590" y="662"/>
      <point x="528" y="724"/>
      <point x="425" y="724" type="curve" smooth="yes"/>
      <point x="322" y="724"/>
      <point x="248" y="665"/>
      <point x="241" y="545" type="curve" smooth="yes"/>
      <point x="236" y="447"/>
      <point x="238" y="325"/>
      <point x="224" y="181" type="curve" smooth="yes"/>
      <point x="218" y="118"/>
      <point x="199" y="94"/>
      <point x="163" y="94" type="curve" smooth="yes"/>
      <point x="132" y="94"/>
      <point x="110" y="112"/>
      <point x="94" y="142" type="curve"/>
      <point x="0" y="84" type="line"/>
      <point x="23" y="32"/>
      <point x="79" y="-11"/>
    </contour>
  </outline>
</glyph>
<glyph name="nineteen-medf" format="2">
  <advance width="627"/>
  <unicode hex="16E93"/>
  <outline>
    <contour>
      <point x="356" y="-11" type="curve" smooth="yes"/>
      <point x="495" y="-11"/>
      <point x="575" y="58"/>
      <point x="592" y="170" type="curve"/>
      <point x="471" y="190" type="line"/>
      <point x="452" y="135"/>
      <point x="423" y="102"/>
      <point x="356" y="102" type="curve" smooth="yes"/>
      <point x="249" y="102"/>
      <point x="178" y="191"/>
      <point x="178" y="367" type="curve" smooth="yes"/>
      <point x="178" y="523"/>
      <point x="256" y="613"/>
      <point x="367" y="613" type="curve" smooth="yes"/>
      <point x="416" y="613"/>
      <point x="446" y="591"/>
      <point x="446" y="558" type="curve" smooth="yes"/>
      <point x="446" y="547"/>
      <point x="442" y="534"/>
      <point x="436" y="524" type="curve"/>
      <point x="560" y="468" type="line"/>
      <point x="578" y="495"/>
      <point x="585" y="527"/>
      <point x="585" y="559" type="curve" smooth="yes"/>
      <point x="585" y="657"/>
      <point x="508" y="724"/>
      <point x="367" y="724" type="curve" smooth="yes"/>
      <point x="175" y="724"/>
      <point x="45" y="574"/>
      <point x="45" y="367" type="curve" smooth="yes"/>
      <point x="45" y="167"/>
      <point x="137" y="-11"/>
    </contour>
    <contour>
      <point x="259" y="201" type="curve" smooth="yes"/>
      <point x="381" y="201"/>
      <point x="438" y="262"/>
      <point x="438" y="341" type="curve" smooth="yes"/>
      <point x="438" y="425"/>
      <point x="384" y="482"/>
      <point x="259" y="482" type="curve" smooth="yes"/>
      <point x="184" y="482"/>
      <point x="138" y="462"/>
      <point x="103" y="443" type="curve"/>
      <point x="132" y="383" type="line"/>
      <point x="154" y="394"/>
      <point x="197" y="401"/>
      <point x="233" y="401" type="curve" smooth="yes"/>
      <point x="301" y="401"/>
      <point x="330" y="382"/>
      <point x="330" y="341" type="curve" smooth="yes"/>
      <point x="330" y="302"/>
      <point x="301" y="282"/>
      <point x="233" y="282" type="curve" smooth="yes"/>
      <point x="198" y="282"/>
      <point x="154" y="289"/>
      <point x="132" y="299" type="curve"/>
      <point x="103" y="240" type="line"/>
      <point x="138" y="221"/>
      <point x="184" y="201"/>
    </contour>
  </outline>
</glyph>
<glyph name="one-medf.alt" format="2">
	<unicode hex="16E94"/>
	<advance width="493"/>
	<outline>
		<contour>
			<point x="227" y="0" type="line"/>
			<point x="283" y="62"/>
			<point x="317" y="95"/>
			<point x="478" y="246" type="curve"/>
			<point x="383" y="337" type="line"/>
			<point x="310" y="269"/>
			<point x="246" y="202"/>
			<point x="193" y="139" type="curve"/>
			<point x="233" y="71" type="line"/>
			<point x="240" y="332"/>
			<point x="241" y="532"/>
			<point x="235" y="713" type="curve"/>
			<point x="97" y="713" type="line"/>
			<point x="105" y="455"/>
			<point x="106" y="267"/>
			<point x="98" y="0" type="curve"/>
		</contour>
	</outline>
</glyph>
<glyph name="two-medf.alt" format="2">
	<unicode hex="16E95"/>
	<advance width="493"/>
	<outline>
		<contour>
			<point x="396" y="0" type="line"/>
			<point x="388" y="258"/>
			<point x="387" y="446"/>
			<point x="395" y="713" type="curve"/>
			<point x="266" y="713" type="line"/>
			<point x="210" y="651"/>
			<point x="176" y="619"/>
			<point x="15" y="468" type="curve"/>
			<point x="110" y="377" type="line"/>
			<point x="183" y="445"/>
			<point x="247" y="511"/>
			<point x="300" y="574" type="curve"/>
			<point x="260" y="642" type="line"/>
			<point x="253" y="381"/>
			<point x="252" y="181"/>
			<point x="258" y="0" type="curve"/>
		</contour>
	</outline>
</glyph>
<glyph name="three-medf.alt" format="2">
  <advance width="493"/>
  <unicode hex="16E96"/>
  <outline>
    <contour>
      <point x="235" y="0" type="line"/>
      <point x="241" y="181"/>
      <point x="240" y="381"/>
      <point x="233" y="642" type="curve"/>
      <point x="193" y="574" type="line"/>
      <point x="246" y="511"/>
      <point x="310" y="445"/>
      <point x="383" y="377" type="curve"/>
      <point x="478" y="468" type="line"/>
      <point x="317" y="619"/>
      <point x="283" y="651"/>
      <point x="227" y="713" type="curve"/>
      <point x="98" y="713" type="line"/>
      <point x="106" y="446"/>
      <point x="105" y="258"/>
      <point x="97" y="0" type="curve"/>
    </contour>
  </outline>
</glyph>
<glyph name="comma-medf" format="2">
  <advance width="276"/>
  <unicode hex="16E97"/>
  <outline>
    <contour>
      <point x="256" y="-69" type="line"/>
      <point x="224" y="-6"/>
      <point x="173" y="83"/>
      <point x="139" y="133" type="curve"/>
      <point x="25" y="71" type="line"/>
      <point x="62" y="13"/>
      <point x="110" y="-71"/>
      <point x="142" y="-131" type="curve"/>
    </contour>
  </outline>
</glyph>
<glyph name="period-medf" format="2">
	<unicode hex="16E98"/>
	<advance width="512"/>
	<outline>
		<contour>
			<point x="256" y="-69" type="line"/>
			<point x="224" y="-6"/>
			<point x="173" y="83"/>
			<point x="139" y="133" type="curve"/>
			<point x="25" y="71" type="line"/>
			<point x="62" y="13"/>
			<point x="110" y="-71"/>
			<point x="142" y="-131" type="curve"/>
		</contour>
		<contour>
			<point x="492" y="-64" type="line"/>
			<point x="460" y="-1"/>
			<point x="409" y="88"/>
			<point x="375" y="138" type="curve"/>
			<point x="261" y="76" type="line"/>
			<point x="298" y="18"/>
			<point x="346" y="-66"/>
			<point x="378" y="-126" type="curve"/>
		</contour>
	</outline>
</glyph>
<glyph name="or-medf" format="2">
  <advance width="1052"/>
  <unicode hex="16E99"/>
  <outline>
    <contour>
      <point x="215" y="-10" type="curve" smooth="yes"/>
      <point x="406" y="-10"/>
      <point x="578" y="237"/>
      <point x="578" y="396" type="curve" smooth="yes"/>
      <point x="578" y="478"/>
      <point x="533" y="538"/>
      <point x="443" y="538" type="curve" smooth="yes"/>
      <point x="313" y="538"/>
      <point x="270" y="400"/>
      <point x="270" y="292" type="curve" smooth="yes"/>
      <point x="270" y="141"/>
      <point x="340" y="-10"/>
      <point x="537" y="-10" type="curve" smooth="yes"/>
      <point x="751" y="-10"/>
      <point x="917" y="242"/>
      <point x="917" y="392" type="curve" smooth="yes"/>
      <point x="917" y="482"/>
      <point x="869" y="538"/>
      <point x="788" y="538" type="curve" smooth="yes"/>
      <point x="678" y="538"/>
      <point x="619" y="423"/>
      <point x="619" y="300" type="curve" smooth="yes"/>
      <point x="619" y="136"/>
      <point x="714" y="10"/>
      <point x="867" y="10" type="curve" smooth="yes"/>
      <point x="931" y="10"/>
      <point x="998" y="29"/>
      <point x="1048" y="62" type="curve"/>
      <point x="995" y="162" type="line"/>
      <point x="963" y="143"/>
      <point x="922" y="121"/>
      <point x="868" y="121" type="curve" smooth="yes"/>
      <point x="778" y="121"/>
      <point x="723" y="159"/>
      <point x="723" y="293" type="curve" smooth="yes"/>
      <point x="723" y="369"/>
      <point x="749" y="439"/>
      <point x="788" y="439" type="curve" smooth="yes"/>
      <point x="806" y="439"/>
      <point x="816" y="423"/>
      <point x="816" y="390" type="curve" smooth="yes"/>
      <point x="816" y="234"/>
      <point x="678" y="105"/>
      <point x="539" y="105" type="curve" smooth="yes"/>
      <point x="437" y="105"/>
      <point x="372" y="147"/>
      <point x="372" y="282" type="curve" smooth="yes"/>
      <point x="372" y="361"/>
      <point x="392" y="443"/>
      <point x="440" y="443" type="curve" smooth="yes"/>
      <point x="460" y="443"/>
      <point x="471" y="425"/>
      <point x="471" y="397" type="curve" smooth="yes"/>
      <point x="471" y="275"/>
      <point x="371" y="105"/>
      <point x="237" y="105" type="curve" smooth="yes"/>
      <point x="195" y="105"/>
      <point x="168" y="126"/>
      <point x="168" y="200" type="curve" smooth="yes"/>
      <point x="168" y="298"/>
      <point x="204" y="441"/>
      <point x="230" y="537" type="curve"/>
      <point x="99" y="554" type="line"/>
      <point x="78" y="484"/>
      <point x="35" y="325"/>
      <point x="35" y="203" type="curve" smooth="yes"/>
      <point x="35" y="80"/>
      <point x="73" y="-10"/>
    </contour>
  </outline>
</glyph>
<glyph name="exclam-medf" format="2">
  <advance width="427"/>
  <unicode hex="16E9A"/>
  <outline>
    <contour>
      <point x="68" y="191" type="curve"/>
      <point x="122" y="193"/>
      <point x="176" y="194"/>
      <point x="231" y="194" type="curve" smooth="yes"/>
      <point x="274" y="194"/>
      <point x="317" y="193"/>
      <point x="362" y="191" type="curve"/>
      <point x="362" y="305" type="line"/>
      <point x="337" y="306"/>
      <point x="312" y="307"/>
      <point x="286" y="307" type="curve" smooth="yes"/>
      <point x="226" y="307"/>
      <point x="165" y="304"/>
      <point x="112" y="301" type="curve"/>
      <point x="216" y="225" type="line"/>
      <point x="223" y="383"/>
      <point x="221" y="547"/>
      <point x="213" y="707" type="curve"/>
      <point x="61" y="707" type="line"/>
      <point x="72" y="542"/>
      <point x="77" y="363"/>
    </contour>
    <contour>
      <point x="213" y="-14" type="curve" smooth="yes"/>
      <point x="266" y="-14"/>
      <point x="294" y="12"/>
      <point x="294" y="59" type="curve" smooth="yes"/>
      <point x="294" y="108"/>
      <point x="267" y="132"/>
      <point x="213" y="132" type="curve" smooth="yes"/>
      <point x="159" y="132"/>
      <point x="132" y="108"/>
      <point x="132" y="59" type="curve" smooth="yes"/>
      <point x="132" y="10"/>
      <point x="159" y="-14"/>
    </contour>
  </outline>
</glyph>
<glyph name=".notdef" format="2">
  <advance width="503"/>
  <outline>
    <contour>
      <point x="51" y="0" type="line"/>
      <point x="451" y="0" type="line"/>
      <point x="451" y="714" type="line"/>
      <point x="51" y="714" type="line"/>
    </contour>
    <contour>
      <point x="99" y="48" type="line"/>
      <point x="99" y="666" type="line"/>
      <point x="403" y="666" type="line"/>
      <point x="403" y="48" type="line"/>
    </contour>
  </outline>
</glyph>
